<?xml version="1.0" encoding="UTF-8" standalone="no"?>
<!DOCTYPE svg PUBLIC "-//W3C//DTD SVG 1.1//EN"
"http://www.w3.org/Graphics/SVG/1.1/DTD/svg11.dtd">
<svg viewBox="0 0 1466 825" version="1.1" xmlns="http://www.w3.org/2000/svg" xmlns:xlink="http://www.w3.org/1999/xlink">
<defs>
<clipPath id="c0_15"><path d="M0,825V0H1466.7V825Z"/></clipPath>
<clipPath id="c1_15"><path d="M1068.6,294.6C1005.8,294.6,954.8,241,954.8,174.9c0,-66.1,51,-119.7,113.8,-119.7c62.9,0,113.9,53.6,113.9,119.7c0,66.1,-51,119.7,-113.9,119.7Z"/></clipPath>
<style type="text/css"><![CDATA[
.g0_15{
fill: #FFFFFF;
}
.g1_15{
fill: #0A91A0;
}
.g2_15{
fill: #727376;
}
.g3_15{
fill: none;
stroke: #A6A6A6;
stroke-width: 0.763;
stroke-linecap: butt;
stroke-linejoin: miter;
}
.g4_15{
fill: #363636;
}
]]></style>
</defs>
<path clip-path="url(#c0_15)" fill-rule="evenodd" d="M0,825H1466.7V0H0V825Z" class="g0_15"/>
<path fill-rule="evenodd" d="M1356.3,771.1l-29,-.1l-5.6,10.7l12,.2l-11.4,19.9c-1.4,2.2,-.9,1.9,.4,4.1c1.4,2.5,3.6,5.9,4.6,8.3c1.4,-1.1,12.2,-20.6,14.2,-23.9c1.4,-2.5,3.6,-5.8,4.7,-8.3h16.4L1375,760.3h-12.5c-1.7,3.3,-4.2,7.9,-6.2,10.8Z" class="g1_15"/>
<path fill-rule="evenodd" d="M1350.1,803.4l24.9,.2c-1.1,-3.2,-5.3,-8.6,-5.9,-10.9h-12.6c.3,-1.5,3,-5.3,3.9,-7.2l-9.2,-.1c-4.1,0,-2.9,-.3,-4.7,2.8c-2.4,4.3,-3.9,3.6,.6,10.3c1.1,1.6,1.8,3.1,3,4.9Z" class="g2_15"/>
<path d="M135.2,310.7C129,300.7,124.9,290.8,123.1,281c-1.9,-9.8,-2.1,-19.5,-.6,-29.1c1.4,-9.5,4.5,-18.7,9.2,-27.4c4.7,-8.8,11.7,-17,21,-24.8l11.6,6.6c3.2,2.2,4.7,4.7,4.5,7.6c-.3,2.8,-1.2,5.1,-2.8,6.6c-2.7,3.3,-5,7.6,-7.1,12.8c-2.1,5.1,-3.4,10.6,-4,16.5c-.5,5.9,-.2,12,.9,18.5c1.2,6.4,3.2,12,6,16.8c2.5,4.4,3.3,8,2.4,11c-.9,3,-3.4,5.3,-7.5,6.9Zm54.4,0c-6.2,-10,-10.3,-19.9,-12.1,-29.7c-1.9,-9.8,-2.1,-19.5,-.6,-29.1c1.5,-9.5,4.5,-18.7,9.2,-27.4c4.8,-8.8,11.8,-17,21.1,-24.8l11.5,6.6c3.2,2.2,4.7,4.7,4.5,7.6c-.3,2.8,-1.2,5.1,-2.7,6.6c-2.7,3.3,-5.1,7.6,-7.2,12.8c-2.1,5.1,-3.4,10.6,-4,16.5c-.5,5.9,-.2,12,.9,18.5c1.2,6.4,3.2,12,6,16.8c2.5,4.4,3.3,8,2.4,11c-.9,3,-3.4,5.3,-7.5,6.9Z" class="g1_15"/>
<path d="M244.9,186.3V358.2" class="g3_15"/>
<g clip-path="url(#c0_15)">
<image preserveAspectRatio="none" x="300" y="64" width="185" height="54" xlink:href="img/1.png"/>
<image preserveAspectRatio="none" x="462" y="64" width="234" height="54" xlink:href="img/2.png"/>
<image preserveAspectRatio="none" x="300" y="115" width="53" height="54" xlink:href="img/3.png"/>
<image preserveAspectRatio="none" x="340" y="115" width="215" height="54" xlink:href="img/4.png"/>
<image preserveAspectRatio="none" x="531" y="115" width="22" height="54" xlink:href="img/5.png"/>
<image preserveAspectRatio="none" x="488" y="261" width="176" height="53" xlink:href="img/6.png"/>
<image preserveAspectRatio="none" x="645" y="261" width="234" height="53" xlink:href="img/7.png"/>
<image preserveAspectRatio="none" x="488" y="312" width="54" height="54" xlink:href="img/8.png"/>
<image preserveAspectRatio="none" x="528" y="312" width="232" height="54" xlink:href="img/9.png"/>
<image preserveAspectRatio="none" x="734" y="312" width="21" height="54" xlink:href="img/10.png"/>
<image preserveAspectRatio="none" x="709" y="458" width="197" height="53" xlink:href="img/11.png"/>
<image preserveAspectRatio="none" x="884" y="458" width="235" height="53" xlink:href="img/12.png"/>
<image preserveAspectRatio="none" x="709" y="509" width="54" height="53" xlink:href="img/13.png"/>
<image preserveAspectRatio="none" x="749" y="509" width="199" height="53" xlink:href="img/14.png"/>
<image preserveAspectRatio="none" x="923" y="509" width="22" height="53" xlink:href="img/15.png"/>
</g>
<path fill-rule="evenodd" d="M957.7,185.9c0,-63.8,51.7,-115.5,115.5,-115.5c63.8,0,115.5,51.7,115.5,115.5c0,63.8,-51.7,115.5,-115.5,115.5c-63.8,0,-115.5,-51.7,-115.5,-115.5Z" class="g1_15"/>
<path fill-rule="evenodd" d="M953.2,177.3c0,-63.8,51.7,-115.5,115.4,-115.5c63.8,0,115.6,51.7,115.6,115.5c0,63.8,-51.8,115.5,-115.6,115.5c-63.7,0,-115.4,-51.7,-115.4,-115.5Z" class="g4_15"/>
<image clip-path="url(#c1_15)" preserveAspectRatio="none" x="955" y="55" width="228" height="240" xlink:href="img/16.png"/>
<path fill-rule="evenodd" d="M1139.2,814h276.7V757.5H1139.2V814Z" class="g0_15"/>
</svg>