<?xml version="1.0" encoding="UTF-8" standalone="no"?>
<!DOCTYPE svg PUBLIC "-//W3C//DTD SVG 1.1//EN"
"http://www.w3.org/Graphics/SVG/1.1/DTD/svg11.dtd">
<svg viewBox="0 0 1466 825" version="1.1" xmlns="http://www.w3.org/2000/svg" xmlns:xlink="http://www.w3.org/1999/xlink">
<defs>
<clipPath id="c0_4"><path d="M0,825V0H1466.7V825Z"/></clipPath>
<clipPath id="c1_4"><path d="M0,825V0H1466.7V825H0Z"/></clipPath>
<clipPath id="c2_4"><path d="M1466.7,825H0V0H1466.7V825Z"/></clipPath>
<style type="text/css"><![CDATA[
.g0_4{
fill: #FFFFFF;
}
.g1_4{
fill: #0A91A0;
}
.g2_4{
fill: #727376;
}
.g3_4{
fill: none;
stroke: #0A91A0;
stroke-width: 3.055;
stroke-linecap: butt;
stroke-linejoin: miter;
}
.g4_4{
fill: none;
stroke: #0A91A0;
stroke-width: 3.055;
stroke-linecap: butt;
stroke-linejoin: miter;
stroke-dasharray: 10,4;
}
.g5_4{
fill: #868686;
}
]]></style>
</defs>
<path clip-path="url(#c0_4)" fill-rule="evenodd" d="M0,825H1466.7V0H0V825Z" class="g0_4"/>
<path fill-rule="evenodd" d="M1356.3,771.1l-29,-.1l-5.6,10.7l12,.2l-11.4,19.9c-1.4,2.2,-.9,1.9,.4,4.1c1.4,2.5,3.6,5.9,4.6,8.3c1.4,-1.1,12.2,-20.6,14.2,-23.9c1.4,-2.5,3.6,-5.8,4.7,-8.3h16.4L1375,760.3h-12.5c-1.7,3.3,-4.2,7.9,-6.2,10.8Z" class="g1_4"/>
<path fill-rule="evenodd" d="M1350.1,803.4l24.9,.2c-1.1,-3.2,-5.3,-8.6,-5.9,-10.9h-12.6c.3,-1.5,3,-5.3,3.9,-7.2l-9.2,-.1c-4.1,0,-2.9,-.3,-4.7,2.8c-2.4,4.3,-3.9,3.6,.6,10.3c1.1,1.6,1.8,3.1,3,4.9Z" class="g2_4"/>
<path d="M649.8,413.7c0,-46.2,37.5,-83.6,83.6,-83.6c46.2,0,83.6,37.4,83.6,83.6c0,46.2,-37.4,83.6,-83.6,83.6c-46.1,0,-83.6,-37.4,-83.6,-83.6ZM675.9,134.5c0,-31.8,25.7,-57.6,57.5,-57.6c31.8,0,57.6,25.8,57.6,57.6c0,31.8,-25.8,57.5,-57.6,57.5c-31.8,0,-57.5,-25.7,-57.5,-57.5Z" class="g3_4"/>
<path d="M733.4,316V209.3" class="g4_4"/>
<path d="M791,688.3c0,31.8,-25.8,57.6,-57.6,57.6c-31.8,0,-57.5,-25.8,-57.5,-57.6c0,-31.8,25.7,-57.5,57.5,-57.5c31.8,0,57.6,25.7,57.6,57.5Z" class="g3_4"/>
<path d="M733.4,506.8V613.6" class="g4_4"/>
<path clip-path="url(#c0_4)" d="M1009.2,359.2c31.8,0,57.5,25.8,57.5,57.6c0,31.8,-25.7,57.6,-57.5,57.6c-31.8,0,-57.6,-25.8,-57.6,-57.6c0,-31.8,25.8,-57.6,57.6,-57.6Z" class="g3_4"/>
<path clip-path="url(#c1_4)" d="M827.7,416.8H934.4" class="g4_4"/>
<path d="M455.3,474.4c-31.8,0,-57.6,-25.8,-57.6,-57.6c0,-31.8,25.8,-57.6,57.6,-57.6c31.8,0,57.6,25.8,57.6,57.6c0,31.8,-25.8,57.6,-57.6,57.6Z" class="g3_4"/>
<path clip-path="url(#c0_4)" d="M637.1,416.8H530.3" class="g4_4"/>
<g clip-path="url(#c1_4)">
<path d="M889.5,179.1c22.5,-22.5,58.9,-22.5,81.4,0c22.5,22.5,22.5,58.9,0,81.4C948.4,283,912,283,889.5,260.5C867,238,867,201.6,889.5,179.1Z" class="g3_4"/>
<path d="M801.8,348.2l75.5,-75.5" class="g4_4"/>
</g>
<g clip-path="url(#c2_4)">
<path d="M579.3,652.2c-22.5,22.4,-59,22.4,-81.5,0c-22.5,-22.5,-22.5,-59,0,-81.5c22.5,-22.5,59,-22.5,81.5,0c22.4,22.5,22.4,59,0,81.5Z" class="g3_4"/>
<path d="M667,483l-75.5,75.5" class="g4_4"/>
</g>
<g clip-path="url(#c0_4)">
<path d="M969.8,576.1c22.5,22.5,22.5,59,0,81.5c-22.5,22.4,-58.9,22.4,-81.4,0c-22.5,-22.5,-22.5,-59,0,-81.5c22.5,-22.5,58.9,-22.5,81.4,0Z" class="g3_4"/>
<path d="M800.7,488.4l75.5,75.5" class="g4_4"/>
<path d="M496.7,265.9c-22.4,-22.5,-22.4,-58.9,0,-81.4c22.5,-22.5,59,-22.5,81.5,0c22.5,22.5,22.5,58.9,0,81.4c-22.5,22.5,-59,22.5,-81.5,0Z" class="g3_4"/>
</g>
<path clip-path="url(#c2_4)" d="M665.9,353.6L590.4,278.1" class="g4_4"/>
<path fill-rule="evenodd" d="M733.3,104.9c-11.2,0,-20.5,9.2,-20.5,20.3c0,7.3,7,15.2,9.3,22.1c3.8,10.6,3.3,16.6,11.2,16.6c8,0,7.5,-6,11.2,-16.6c2.4,-6.9,9.4,-14.8,9.4,-22.1c0,-11.1,-9.4,-20.3,-20.6,-20.3Zm4.7,50.2q-8.9,1,-8.9,1c-.4,-1,-.9,-1.9,-1.4,-3.3v-.4Q739.4,151,739.4,151c0,.9,-.5,1.4,-.5,1.8c-.4,1,-.4,1.4,-.9,2.3ZM727.3,151c-.5,-1.4,-1,-2.3,-1.4,-3.7q14.9,0,14.9,0c-.5,.5,-.5,1.4,-.9,1.8L727.3,151Zm6,9.2c-1.8,0,-2.8,0,-3.7,-2.3q7.9,-.9,7.9,-.9c-.9,2.7,-1.8,3.2,-4.2,3.2Zm8.9,-16.6q-17.7,0,-17.7,0c-1,-1.8,-1.9,-4.1,-2.8,-6c-2.8,-4.1,-5.2,-8.7,-5.2,-12.4c0,-9.3,7.5,-16.7,16.8,-16.7c9.4,0,16.8,7.4,16.8,16.7c0,3.7,-2.3,8.3,-5.1,12.4c-.9,1.9,-1.9,4.2,-2.8,6Z" class="g5_4"/>
<path fill-rule="evenodd" d="M733.1,114c-6,0,-11.1,5.2,-11.1,11.2c0,.5,.4,.9,.9,.9c.5,0,.9,-.4,.9,-.9c0,-5.1,4.2,-9.3,9.3,-9.3c.5,0,1,-.5,1,-.9c0,-.5,-.5,-1,-1,-1Z" class="g5_4"/>
<path fill-rule="evenodd" d="M939,604.1c0,5,-3.6,9.1,-3.6,9.1c0,-9.1,-7.3,-16.4,-7.3,-16.4c0,0,0,5.5,-3.6,11C920.9,595,910,587.8,910,587.8c5.5,20,-1.8,27.2,-1.8,41.7c0,8.2,7.3,16.4,18.1,16.4c16.3,0,19.5,-5.9,20.8,-12.7c2.7,-9.1,-.9,-20,-8.1,-29.1Zm5,28.2c-1.4,4.5,-2.8,9.9,-17.7,9.9c-9,0,-14.4,-6.3,-14.4,-12.7c0,-5,.9,-9,1.8,-13.1c1.3,-5.5,2.2,-10.9,1.8,-18.2c5.9,7.7,7.7,18.2,7.7,18.2c0,0,4.9,-7.3,6.3,-10.9c1.3,2.3,2.3,9.5,2.3,16.8c0,0,4.9,-4.1,8.5,-10c3.7,6.8,5,14.1,3.7,20Z" class="g5_4"/>
<path fill-rule="evenodd" d="M940,618.3q-1.8,1.8,-1.8,1.8c-1.8,2.2,-3.6,4.5,-8.6,6.7c-.4,-2.2,-.9,-4.5,-.9,-7.6q0,-3.2,0,-3.2q-2.7,4.1,-2.7,4.1c-1.3,1.8,-1.8,2.7,-3.1,4.5c-1.8,-4.1,-2.7,-6.8,-3.7,-9.5q-.9,-2.2,-.9,-2.2q-.9,2.7,-.9,2.7c-1.3,3.1,-2.2,6.7,-2.2,15.3c0,.5,0,.9,.9,.9c.4,0,.9,-.4,.9,-.9c0,-6.8,.4,-9.9,1.3,-12.6c.9,2.2,2.3,4.9,3.7,8.5q.4,1.4,.4,1.4q.9,-1.4,.9,-1.4c1.8,-1.8,2.7,-3.1,3.6,-4.9c.5,2.7,.9,4.5,1.4,6.3q.4,1.4,.4,1.4q.9,-.5,.9,-.5c5,-2.3,7.2,-4.5,9,-6.8c.5,3.6,0,7.3,-1.3,10c0,.4,0,.9,.9,.9c0,0,0,.4,0,.4c.4,0,.9,-.4,.9,-.9c1.3,-3.1,1.8,-8.1,.9,-12.6v-1.8Z" class="g5_4"/>
<path fill-rule="evenodd" d="M741.1,666.1c-.9,-.9,-2.3,-1.3,-3.2,-1.3c-1.4,0,-2.7,.4,-3.2,1.3q-2.7,2.7,-2.7,2.7c-.9,.5,-1.3,1.8,-1.3,3.2c0,.9,.4,1.4,.4,2.3q-24.4,9.9,-24.4,9.9c-1.4,.5,-2.7,2.3,-3.2,3.6c-.4,1.8,.5,3.6,1.8,5Q728,715.4,728,715.4c1.3,1.3,2.7,1.8,4,1.8c.5,0,.9,0,.9,0c1.8,-.5,3.6,-1.8,4.1,-3.6q9.5,-24,9.5,-24c.9,.5,1.8,.9,2.7,.9c1.4,0,2.3,-.4,3.2,-1.3q2.7,-2.7,2.7,-2.7c.9,-.9,1.3,-1.8,1.3,-3.2c0,-1.4,-.4,-2.3,-1.3,-3.2l-14,-14Zm-7.3,46.1c-.4,.9,-.9,1.4,-1.3,1.4q-.5,0,-.5,0c-.4,0,-.9,0,-1.3,-.5q-23.1,-23,-23.1,-23c-.5,0,-.5,-.9,-.5,-1.4c0,-.4,.5,-.9,1,-1.3q11.3,-4.6,11.3,-4.6c7.6,2.8,15.3,0,23,8.2l-8.6,21.2Zm18.6,-28.4q-2.8,2.7,-2.8,2.7c0,.4,-.9,.4,-1.3,0q-3.2,-3.2,-3.2,-3.2q-2.2,6.3,-2.2,6.3q0,-.4,0,-.4C737.4,683.8,732,683.3,727,682.4c-1.8,0,-3.1,-.5,-4.9,-.5q15.3,-6.3,15.3,-6.3q-2.7,-3.1,-2.7,-3.1c-.4,-.5,-.4,-.9,0,-1.4q2.3,-2.3,2.3,-2.3c.4,-.4,.9,-.4,1.3,0q14.1,13.6,14.1,13.6c.4,.4,.4,1.4,0,1.4Z" class="g5_4"/>
<path fill-rule="evenodd" d="M733.4,697.2c2.7,0,4.5,-1.8,4.5,-4.5c0,-2.7,-1.8,-4.5,-4.5,-4.5c-2.7,0,-4.5,1.8,-4.5,4.5c0,2.7,1.8,4.5,4.5,4.5Zm0,-7.2c1.4,0,2.7,1.4,2.7,2.7c0,1.4,-1.3,2.7,-2.7,2.7c-1.3,0,-2.7,-1.3,-2.7,-2.7c0,-1.3,1.4,-2.7,2.7,-2.7Z" class="g5_4"/>
<path fill-rule="evenodd" d="M756.9,659.3c-2.7,0,-4.5,1.8,-4.5,4.6c0,2.7,1.8,4.5,4.5,4.5c2.7,0,4.5,-1.8,4.5,-4.5c0,-2.8,-1.8,-4.6,-4.5,-4.6Zm0,7.3c-1.4,0,-2.7,-1.4,-2.7,-2.7c0,-1.4,1.3,-2.8,2.7,-2.8c1.3,0,2.7,1.4,2.7,2.8c0,1.3,-1.4,2.7,-2.7,2.7Z" class="g5_4"/>
<path fill-rule="evenodd" d="M717.9,690c0,1.8,1.9,3.6,3.7,3.6c1.8,0,3.7,-1.8,3.7,-3.6c0,-1.8,-1.9,-3.6,-3.7,-3.6c-1.8,0,-3.7,1.8,-3.7,3.6Zm3.7,-1.8c.9,0,1.8,.9,1.8,1.8c0,.9,-.9,1.8,-1.8,1.8c-.9,0,-1.8,-.9,-1.8,-1.8c0,-.9,.9,-1.8,1.8,-1.8Z" class="g5_4"/>
<path fill-rule="evenodd" d="M725.3,700.9c0,-1,.8,-1.8,1.8,-1.8c1,0,1.8,.8,1.8,1.8c0,1,-.8,1.8,-1.8,1.8c-1,0,-1.8,-.8,-1.8,-1.8Z" class="g5_4"/>
<path fill-rule="evenodd" d="M754.2,673.8c0,-.9,.9,-1.7,1.9,-1.7c1,0,1.8,.8,1.8,1.7c0,1,-.8,1.8,-1.8,1.8c-1,0,-1.9,-.8,-1.9,-1.8Z" class="g5_4"/>
<path fill-rule="evenodd" d="M926.6,208.9c0,-1,.8,-1.7,1.8,-1.7c1,0,1.8,.7,1.8,1.7c0,1,-.8,1.8,-1.8,1.8c-1,0,-1.8,-.8,-1.8,-1.8Z" class="g5_4"/>
<path fill-rule="evenodd" d="M926.6,230.4c0,-1,.8,-1.8,1.8,-1.8c1,0,1.8,.8,1.8,1.8c0,1.1,-.8,1.9,-1.8,1.9c-1,0,-1.8,-.8,-1.8,-1.9Z" class="g5_4"/>
<path fill-rule="evenodd" d="M915.8,219.8c0,-1,.7,-1.8,1.7,-1.8c1,0,1.7,.8,1.7,1.8c0,1,-.7,1.8,-1.7,1.8c-1,0,-1.7,-.8,-1.7,-1.8Z" class="g5_4"/>
<path fill-rule="evenodd" d="M937.4,219.8c0,-1,.8,-1.8,1.8,-1.8c1,0,1.9,.8,1.9,1.8c0,1,-.9,1.8,-1.9,1.8c-1,0,-1.8,-.8,-1.8,-1.8Z" class="g5_4"/>
<path fill-rule="evenodd" d="M919.3,226.1c-.4,.9,-.4,1.8,0,2.6c.9,.5,1.9,.5,2.8,0c.4,-.8,.4,-1.7,0,-2.6c-.9,-.4,-1.9,-.4,-2.8,0Z" class="g5_4"/>
<path fill-rule="evenodd" d="M919.3,210.6c-.4,.9,-.4,1.8,0,2.7c.9,.5,1.9,.5,2.8,0c.4,-.9,.4,-1.8,0,-2.7c-.9,-.5,-1.9,-.5,-2.8,0Z" class="g5_4"/>
<path fill-rule="evenodd" d="M934.7,226.1c-.4,.9,-.4,1.8,0,2.6c.9,.5,1.7,.5,2.6,0c.4,-.8,.4,-1.7,0,-2.6c-.9,-.4,-1.7,-.4,-2.6,0Z" class="g5_4"/>
<path fill-rule="evenodd" d="M946.4,216.2c0,0,-.4,0,-.4,0c-.5,-3.2,-1.8,-5.9,-4.1,-8.1Q939.2,194,939.2,194c0,-1.8,-1.8,-3.1,-3.6,-3.1q-14.5,0,-14.5,0c-1.4,0,-3.2,1.3,-3.2,3.1q-2.7,13.6,-2.7,13.6c-3.1,3.2,-5,7.2,-5,12.2c0,4.5,1.9,9.1,4.6,12.2q2.7,13.6,2.7,13.6c.4,1.8,1.8,3.2,3.6,3.2q14.5,0,14.5,0c1.8,0,3.1,-1.4,3.6,-3.2Q941.9,232,941.9,232c1.8,-2.7,3.6,-5.4,4.1,-8.6c0,0,.4,0,.4,0c1.8,0,3.6,-1.8,3.6,-3.6c0,-1.8,-1.8,-3.6,-3.6,-3.6ZM921.1,194.5q14.5,0,14.5,0q1.8,9.9,1.8,9.9c-2.3,-1.8,-5.5,-2.7,-9.1,-2.7c-3.1,0,-6.3,.9,-9,2.7l1.8,-9.9Zm14.5,50.7q-14.5,0,-14.5,0q-1.8,-10,-1.8,-10c2.7,1.8,5.9,2.7,9,2.7c3.2,0,6.4,-.9,9.1,-2.7l-1.8,10Zm-7.3,-10.9c-8.1,0,-14.4,-6.3,-14.4,-14.5c0,-8.1,6.3,-14.5,14.4,-14.5c8.2,0,14.5,6.4,14.5,14.5c0,8.2,-6.3,14.5,-14.5,14.5Z" class="g5_4"/>
<path fill-rule="evenodd" d="M937.4,210.7q-.5,0,-.9,0q-9.5,7.7,-9.5,7.7c-.4,.5,-.4,1,-.4,1.4c0,.5,0,.9,.4,1.4c.5,.4,.9,.4,1.4,.4c.4,0,.9,0,1.3,-.4q3.2,-4.1,3.2,-4.1q4.5,-5.5,4.5,-5.5q0,-.5,0,-.9Z" class="g5_4"/>
<path fill-rule="evenodd" d="M1033.1,406.8c-2.3,-.5,-7.7,-.5,-15.4,-.9c.5,-1.9,.5,-3.2,.5,-5.9c0,-6.4,-5,-12.3,-9,-12.3c-3.2,0,-5.4,2.3,-5.4,5.5c0,3.6,-1.4,9.9,-7.3,13.1c-.4,0,-1.8,.9,-1.8,.9c-.9,-.9,-2.2,-1.3,-3.6,-1.3q-5.4,0,-5.4,0c-3.2,0,-5.4,2.2,-5.4,5.4q0,28.9,0,28.9c0,3.2,2.2,5.5,5.4,5.5q5.4,0,5.4,0c2.3,0,4.1,-1.4,5,-3.2h.4c.9,.5,3.2,.9,7.3,1.8c.9,.5,5.8,1.4,10.8,1.4q9.9,0,9.9,0c3.2,0,5,-1.4,6.3,-3.6c0,0,.5,-.9,.9,-1.9c.5,-.9,.5,-1.8,0,-3.1c1.8,-1.4,2.7,-3.2,3.2,-4.5c.4,-2.3,.4,-4.1,0,-5c.9,-1.4,1.8,-2.7,2.2,-5c.5,-1.8,0,-3.2,-.9,-4.5c1.4,-.9,1.8,-2.7,1.8,-4.1q0,-.4,0,-.9c0,-2.3,-1.3,-5.4,-4.9,-6.3Zm-40.2,33.4c0,1,-.9,1.9,-1.8,1.9q-5.4,0,-5.4,0c-.9,0,-1.8,-.9,-1.8,-1.9q0,-28.9,0,-28.9c0,-.9,.9,-1.8,1.8,-1.8q5.4,0,5.4,0c.9,0,1.8,.9,1.8,1.8v28.9ZM1034.4,414c0,.9,-.4,2.7,-3.6,2.7c-2.7,0,-3.6,0,-3.6,0c-.4,0,-.9,.5,-.9,.9c0,.5,.5,.9,.9,.9c0,0,.9,0,3.6,0c2.7,0,3.2,2.3,2.7,3.2c0,1.4,-.9,4.1,-3.6,4.1c-3.1,0,-4.5,0,-4.5,0c-.4,0,-.9,.4,-.9,.9c0,.4,.5,.9,.9,.9c0,0,2.3,0,3.6,0c3.2,0,2.7,2.2,2.3,3.6c-.5,1.8,-.9,3.6,-4.5,3.6c-1.4,0,-3.2,0,-3.2,0c-.5,0,-.9,.5,-.9,.9c0,.5,.4,.9,.9,.9c0,0,1.4,0,2.7,0c2.3,0,2.3,1.8,1.8,2.7c0,.5,-.4,.9,-.4,1.4c-.5,.9,-1.4,1.4,-3.2,1.4q-9.9,0,-9.9,0c-5,0,-9.9,-.9,-9.9,-1.4c-7.7,-1.4,-8.2,-1.8,-8.6,-1.8c0,0,-1.4,-.5,-1.4,-1.4q0,-25.3,0,-25.3c0,-.9,.5,-1.4,1.4,-1.8c0,0,.4,0,.4,0c8.2,-3.6,10.9,-10.9,10.9,-17.2c0,-.9,.9,-1.8,1.8,-1.8c1.8,0,5.4,3.6,5.4,8.6c0,4,-.5,5,-1.8,9.5c18,0,18,.4,19.4,.9c2.2,.4,2.2,1.8,2.2,2.7q0,.5,0,.9Z" class="g5_4"/>
<path fill-rule="evenodd" d="M988.3,434.7c-1.4,0,-2.7,1.4,-2.7,2.7c0,1.4,1.3,2.8,2.7,2.8c1.3,0,2.6,-1.4,2.6,-2.8c0,-1.3,-1.3,-2.7,-2.6,-2.7Zm0,3.7c-.5,0,-.9,-.5,-.9,-1c0,-.4,.4,-.9,.9,-.9c.4,0,.8,.5,.8,.9c0,.5,-.4,1,-.8,1Z" class="g5_4"/>
<path fill-rule="evenodd" d="M565.4,213.9q-9.5,-9.5,-9.5,-9.5c-.4,-.4,-1.3,-.9,-2.2,-.9q-32.5,0,-32.5,0c-.9,0,-1.8,.5,-2.3,.9q-9.4,9.5,-9.4,9.5c-.5,.5,-.9,1.4,-.9,2.3c0,.9,.4,1.8,.9,2.7q25.2,26.7,25.2,26.7c.9,.9,1.8,1.4,2.7,1.4c.9,0,1.8,-.5,2.7,-1.4q25.3,-26.7,25.3,-26.7c.5,-.9,.9,-1.8,.9,-2.7c0,-.9,-.4,-1.8,-.9,-2.3Zm-23.9,2.3q-8.1,0,-8.1,0q4,-3.2,4,-3.2l4.1,3.2Zm-2.7,-4.6q5,-4,5,-4q3.6,3.6,3.6,3.6q-4.5,3.6,-4.5,3.6l-4.1,-3.2Zm-6.8,3.2q-4.5,-3.6,-4.5,-3.6q3.6,-3.6,3.6,-3.6q5,4,5,4l-4.1,3.2Zm9.9,3.2q-4.5,22.6,-4.5,22.6Q532.9,218,532.9,218h9Zm1.9,0q9,0,9,0q-13.6,22.2,-13.6,22.2L543.8,218Zm.4,-1.8q4.5,-3.7,4.5,-3.7q3.6,3.7,3.6,3.7h-8.1Zm1.8,-9.1q6.3,0,6.3,0q-3.6,2.7,-3.6,2.7L546,207.1Zm-8.6,3.2q-4,-3.2,-4,-3.2q8.1,0,8.1,0l-4.1,3.2Zm-11.2,-.5q-3.7,-2.7,-3.7,-2.7q6.4,0,6.4,0l-2.7,2.7Zm0,2.7q4.5,3.7,4.5,3.7q-8.2,0,-8.2,0l3.7,-3.7Zm4.9,5.5q4.5,22.2,4.5,22.2Q522.1,218,522.1,218h9Zm.5,19Q513.5,218,513.5,218q6.8,0,6.8,0l11.3,19Zm23,-19q6.8,0,6.8,0q-18.1,19,-18.1,19l11.3,-19Zm.4,-1.8q-4.9,-5,-4.9,-5q4,-3.2,4,-3.2q8.6,8.2,8.6,8.2H555ZM520.7,208q4.1,3.2,4.1,3.2q-5,5,-5,5q-7.6,0,-7.6,0l8.5,-8.2Z" class="g5_4"/>
<path fill-rule="evenodd" d="M567.6,597c0,-2.7,-1.8,-4.5,-4.1,-5.5q-23.6,-5.4,-23.6,-5.4c-.5,0,-.9,0,-1.4,0c-.4,0,-.9,0,-1.3,0q-23.6,5.4,-23.6,5.4c-2.3,1,-4.1,2.8,-4.1,5.5c0,2.7,1.8,4.5,4.1,5.4q5,.9,5,.9q0,15.4,0,15.4c0,5,5.4,9,19.9,9c14.6,0,20,-4,20,-9q0,-15.4,0,-15.4q5,-.9,5,-.9c2.3,-.9,4.1,-2.7,4.1,-5.4Zm-12.7,21.7c0,1.8,-5.5,5.4,-16.4,5.4c-10.9,0,-16.3,-3.6,-16.3,-5.4q0,-14.5,0,-14.5q15,3.6,15,3.6c.4,0,.9,0,1.3,0c.5,0,.9,0,1.4,0q15,-3.6,15,-3.6v14.5ZM539,604.2c0,0,-.5,0,-.5,0c0,0,-.4,0,-.4,0q-23.6,-5.4,-23.6,-5.4c-.9,-.5,-1.4,-.9,-1.4,-1.8c0,-.9,.5,-1.4,1.4,-1.8q23.6,-5.5,23.6,-5.5c0,0,.4,0,.4,0c0,0,.5,0,.5,0q23.6,5.5,23.6,5.5c.9,.4,1.4,.9,1.4,1.8c0,.9,-.5,1.3,-1.4,1.8L539,604.2Z" class="g5_4"/>
<path fill-rule="evenodd" d="M562.1,606.1q0,16.2,0,16.2c0,.9,.9,1.8,1.8,1.8c1,0,1.9,-.9,1.9,-1.8q0,-16.2,0,-16.2c0,-.9,-.9,-1.8,-1.9,-1.8c-.9,0,-1.8,.9,-1.8,1.8Z" class="g5_4"/>
<path fill-rule="evenodd" d="M560.4,631.3c0,-3,1.7,-5.4,3.6,-5.4c2,0,3.6,2.4,3.6,5.4c0,3,-1.6,5.4,-3.6,5.4c-1.9,0,-3.6,-2.4,-3.6,-5.4Z" class="g5_4"/>
<path fill-rule="evenodd" d="M479.4,397.1c-6.8,-6.3,-17.3,-6.8,-24.1,-.5c-6.8,-6.3,-17.3,-5.8,-24.1,.5c-6.8,6.8,-6.8,17.6,0,24.4c2.3,1.8,20,19.4,20,19.4c2.3,2.2,5.9,2.2,8.2,0c0,0,19.5,-19.4,20,-19.4c6.8,-6.8,6.8,-17.6,0,-24.4Zm-2.7,21.6q-20,19.9,-20,19.9c-.9,.5,-1.8,.5,-2.8,0Q434,418.7,434,418.7c-5.5,-5.4,-5.5,-13.9,0,-18.9c5,-5.4,13.6,-5.4,19,-.5q2.3,2.3,2.3,2.3q2.3,-2.3,2.3,-2.3c5.4,-4.9,14.1,-4.9,19.1,.5c5.4,5,5.4,13.5,0,18.9Z" class="g5_4"/>
<path fill-rule="evenodd" d="M442.9,401.1c-4,0,-7.7,3.7,-7.7,7.7c0,.5,.5,1,.9,1c.5,0,1,-.5,1,-1c0,-3.1,2.7,-5.8,5.8,-5.8c.5,0,.9,-.5,.9,-1c0,-.4,-.4,-.9,-.9,-.9Z" class="g5_4"/>
</svg>