<?xml version="1.0" encoding="UTF-8" standalone="no"?>
<!DOCTYPE svg PUBLIC "-//W3C//DTD SVG 1.1//EN"
"http://www.w3.org/Graphics/SVG/1.1/DTD/svg11.dtd">
<svg viewBox="0 0 1466 825" version="1.1" xmlns="http://www.w3.org/2000/svg" xmlns:xlink="http://www.w3.org/1999/xlink">
<defs>
<clipPath id="c0_11"><path d="M0,825V0H1466.7V825Z"/></clipPath>
<clipPath id="c1_11"><path d="M521.8,451.2V35H962V451.2Z"/></clipPath>
<clipPath id="c2_11"><path d="M29,599.3v-305H496.8v305Z"/></clipPath>
<clipPath id="c3_11"><path d="M271.1,255V32.6H493.5V255Z"/></clipPath>
<clipPath id="c4_11"><path d="M27.1,255V32.6H249.5V255Z"/></clipPath>
<clipPath id="c5_11"><path d="M984.9,285.6V38.7h185.3V285.6Z"/></clipPath>
<clipPath id="c6_11"><path d="M79,814.9V614.3H420V814.9Z"/></clipPath>
<clipPath id="c7_11"><path d="M520.7,814.9V463.8H969.1V814.9Z"/></clipPath>
<clipPath id="c8_11"><path d="M980.3,480.3V307.8h467.9V480.3Z"/></clipPath>
<clipPath id="c9_11"><path d="M1199.4,285.1V39.8h248.8V285.1Z"/></clipPath>
<clipPath id="ca_11"><path d="M1183.6,285.1V39.8h140.1V285.1Z"/></clipPath>
<clipPath id="cb_11"><path d="M992.7,813.3V502.5h448.5V813.3Z"/></clipPath>
<style type="text/css"><![CDATA[
.g0_11{
fill: #FFFFFF;
}
.g1_11{
fill: #0A91A0;
}
.g2_11{
fill: #727376;
}
]]></style>
</defs>
<path clip-path="url(#c0_11)" fill-rule="evenodd" d="M0,825H1466.7V0H0V825Z" class="g0_11"/>
<path fill-rule="evenodd" d="M1356.3,771.1l-29,-.1l-5.6,10.7l12,.2l-11.4,19.9c-1.4,2.2,-.9,1.9,.4,4.1c1.4,2.5,3.6,5.9,4.6,8.3c1.4,-1.1,12.2,-20.6,14.2,-23.9c1.4,-2.5,3.6,-5.8,4.7,-8.3h16.4L1375,760.3h-12.5c-1.7,3.3,-4.2,7.9,-6.2,10.8Z" class="g1_11"/>
<path fill-rule="evenodd" d="M1350.1,803.4l24.9,.2c-1.1,-3.2,-5.3,-8.6,-5.9,-10.9h-12.6c.3,-1.5,3,-5.3,3.9,-7.2l-9.2,-.1c-4.1,0,-2.9,-.3,-4.7,2.8c-2.4,4.3,-3.9,3.6,.6,10.3c1.1,1.6,1.8,3.1,3,4.9Z" class="g2_11"/>
<image clip-path="url(#c1_11)" preserveAspectRatio="none" x="522" y="35" width="440" height="416" xlink:href="img/1.jpg"/>
<image clip-path="url(#c2_11)" preserveAspectRatio="none" x="29" y="294" width="468" height="305" xlink:href="img/2.jpg"/>
<image clip-path="url(#c3_11)" preserveAspectRatio="none" x="271" y="33" width="223" height="222" xlink:href="img/3.jpg"/>
<image clip-path="url(#c4_11)" preserveAspectRatio="none" x="27" y="33" width="223" height="222" xlink:href="img/4.jpg"/>
<image clip-path="url(#c5_11)" preserveAspectRatio="none" x="985" y="39" width="185" height="247" xlink:href="img/5.jpg"/>
<image clip-path="url(#c6_11)" preserveAspectRatio="none" x="79" y="614" width="341" height="201" xlink:href="img/6.jpg"/>
<image clip-path="url(#c7_11)" preserveAspectRatio="none" x="521" y="464" width="443" height="351" xlink:href="img/7.jpg"/>
<image clip-path="url(#c8_11)" preserveAspectRatio="none" x="980" y="308" width="468" height="172" xlink:href="img/8.jpg"/>
<image clip-path="url(#c9_11)" preserveAspectRatio="none" x="1199" y="40" width="249" height="245" xlink:href="img/9.jpg"/>
<image clip-path="url(#ca_11)" preserveAspectRatio="none" x="1184" y="40" width="140" height="245" xlink:href="img/10.jpg"/>
<image clip-path="url(#cb_11)" preserveAspectRatio="none" x="993" y="503" width="448" height="310" xlink:href="img/11.jpg"/>
</svg>