<?xml version="1.0" encoding="UTF-8" standalone="no"?>
<!DOCTYPE svg PUBLIC "-//W3C//DTD SVG 1.1//EN"
"http://www.w3.org/Graphics/SVG/1.1/DTD/svg11.dtd">
<svg viewBox="0 0 1466 825" version="1.1" xmlns="http://www.w3.org/2000/svg" xmlns:xlink="http://www.w3.org/1999/xlink">
<defs>
<clipPath id="c0_8"><path d="M0,825V0H1466.7V825Z"/></clipPath>
<style type="text/css"><![CDATA[
.g0_8{
fill: #FFFFFF;
}
.g1_8{
fill: #0A91A0;
}
.g2_8{
fill: #727376;
}
.g3_8{
fill: #D7D7D7;
}
.g4_8{
fill: #7FEBF7;
}
.g5_8{
fill: #3FE1F3;
}
.g6_8{
fill: none;
stroke: #FFFFFF;
stroke-width: 2.291;
stroke-linecap: butt;
stroke-linejoin: miter;
}
.g7_8{
fill: #D7D7D7;
fill-opacity: 0.54902005;
}
.g8_8{
fill: #0A91A0;
fill-opacity: 0.54902005;
}
.g9_8{
fill: #868686;
fill-opacity: 0.54902005;
}
]]></style>
</defs>
<path clip-path="url(#c0_8)" fill-rule="evenodd" d="M0,825H1466.7V0H0V825Z" class="g0_8"/>
<path fill-rule="evenodd" d="M1356.3,771.1l-29,-.1l-5.6,10.7l12,.2l-11.4,19.9c-1.4,2.2,-.9,1.9,.4,4.1c1.4,2.5,3.6,5.9,4.6,8.3c1.4,-1.1,12.2,-20.6,14.2,-23.9c1.4,-2.5,3.6,-5.8,4.7,-8.3h16.4L1375,760.3h-12.5c-1.7,3.3,-4.2,7.9,-6.2,10.8Z" class="g1_8"/>
<path fill-rule="evenodd" d="M1350.1,803.4l24.9,.2c-1.1,-3.2,-5.3,-8.6,-5.9,-10.9h-12.6c.3,-1.5,3,-5.3,3.9,-7.2l-9.2,-.1c-4.1,0,-2.9,-.3,-4.7,2.8c-2.4,4.3,-3.9,3.6,.6,10.3c1.1,1.6,1.8,3.1,3,4.9Z" class="g2_8"/>
<g clip-path="url(#c0_8)">
<path fill-rule="evenodd" d="M268.6,746H1467.4V616.2H268.6V746Z" class="g3_8"/>
<path fill-rule="evenodd" d="M424.2,616H1467.4V486.2H424.2V616Z" class="g4_8"/>
</g>
<path fill-rule="evenodd" d="M579.9,485.3h886.6V355.5H579.9V485.3Z" class="g5_8"/>
<path fill-rule="evenodd" d="M734.1,355.3h732.4V225.5H734.1V355.3Z" class="g1_8"/>
<path fill-rule="evenodd" d="M229.8,733c0,1.5,1.5,3.1,3,3.1c1.9,0,3.4,-1.6,3.4,-3.1c0,-1.5,-.9,-2.5,-2.1,-3.1q.3,-4.3,.3,-4.3c3.9,.3,6.4,1.2,7.9,1.8c1,.7,1.6,1,1.9,1.3c0,0,0,.3,0,.3q0,1.2,0,1.2c-.9,.3,-1.6,1.6,-1.6,2.8c0,1.5,1.3,3.1,3.1,3.1c1.6,0,3.1,-1.6,3.1,-3.1c0,-1.5,-.9,-2.8,-2.2,-3.1q0,-1.8,0,-1.8q-.3,0,-.3,0c0,-.7,-2.7,-4.4,-11.6,-4.7q.3,-4.6,.3,-4.6q9.2,0,9.2,0c1.5,0,2.8,-1.2,2.8,-2.8q1.2,-22.5,1.2,-22.5c.3,-1.6,-.9,-3.1,-2.5,-3.1c-1.8,-.3,-3.1,.9,-3.1,2.8q-1.2,19.7,-1.2,19.7q-19.9,0,-19.9,0c-1.5,0,-2.8,1.3,-2.8,2.8c0,1.5,1.3,3.1,2.8,3.1q8.9,0,8.9,0q.6,4.6,.6,4.6c-9.2,.3,-11.7,4,-12,4.7q0,1.8,0,1.8c-1.2,.6,-2.1,1.6,-2.1,3.1c0,1.5,1.5,3.1,3.1,3.1c1.8,0,3,-1.6,3,-3.1c0,-1.5,-.6,-2.5,-1.8,-3.1q0,-.9,0,-.9c.6,-.9,3,-3.1,9.8,-3.4q.6,4.6,.6,4.6c-.9,.3,-1.8,1.6,-1.8,2.8Z" class="g1_8"/>
<path fill-rule="evenodd" d="M131.2,728.1q-.3,0,-.3,0q0,1.8,0,1.8c-1.3,.3,-2.2,1.6,-2.2,3.1c0,1.5,1.5,3.1,3.1,3.1c1.8,0,3.1,-1.6,3.1,-3.1c0,-1.2,-.6,-2.5,-1.9,-2.8q0,-1.2,0,-1.2c.6,-.9,3.1,-3.1,10.2,-3.4q.3,4.3,.3,4.3c-1.2,.6,-2.2,1.6,-2.2,3.1c0,1.5,1.6,3.1,3.1,3.1c1.9,0,3.4,-1.6,3.4,-3.1c0,-1.2,-.9,-2.5,-1.8,-2.8q.6,-4.6,.6,-4.6c4,.3,6.5,1.2,8,1.8c.6,.7,1.2,1,1.6,1.3c0,0,.3,.3,.3,.3q0,.9,0,.9c-1.3,.6,-1.9,1.6,-1.9,3.1c0,1.5,1.2,3.1,3.1,3.1c1.5,0,3.1,-1.6,3.1,-3.1c0,-1.5,-.9,-2.5,-2.2,-3.1q0,-1.8,0,-1.8c-.3,-.7,-2.8,-4.4,-12,-4.7q.6,-4.6,.6,-4.6q9,0,9,0c1.5,0,2.7,-1.6,2.7,-3.1c0,-1.5,-1.2,-2.8,-2.7,-2.8q-20.1,0,-20.1,0q-1.2,-19.7,-1.2,-19.7c0,-1.9,-1.6,-3.1,-3.1,-2.8c-1.6,0,-2.8,1.5,-2.8,3.1q1.6,22.5,1.6,22.5c0,1.6,1.2,2.8,2.7,2.8q9,0,9,0q.6,4.6,.6,4.6c-9.3,.3,-11.7,4,-11.7,4.7Z" class="g1_8"/>
<path fill-rule="evenodd" d="M207.9,689.2q-42.2,0,-42.2,0c-1.2,0,-2.2,.6,-2.2,1.8q0,.3,0,.3c0,.9,1,1.9,2.2,1.9q12.6,0,12.6,0q0,42.2,0,42.2q4.6,0,4.6,0q0,-42.6,0,-42.6q7.4,0,7.4,0q0,42.6,0,42.6q5,0,5,0q0,-42.2,0,-42.2q12.6,0,12.6,0c.9,0,1.8,-1,1.8,-1.9q0,-.3,0,-.3c0,-1.2,-.9,-1.8,-1.8,-1.8Z" class="g1_8"/>
<path fill-rule="evenodd" d="M226.4,673.2c-4.6,0,-8.6,-4,-8.6,-8.6c0,-5,4,-8.7,8.6,-9c4.9,0,8.6,4,8.6,8.6c0,5,-3.7,9,-8.6,9Z" class="g1_8"/>
<path fill-rule="evenodd" d="M227.7,678.8c1.2,-.6,2.2,-1.2,2.8,-1.5c.3,0,.3,-.3,.3,-.3q.3,0,.3,0c1.2,-1.2,3.1,-1.2,4.3,.3c.9,1.2,.9,3,-.3,4.2c-.3,0,-1.9,1.6,-5.2,2.8c-4.7,2.1,-13,3.9,-25.3,2.1c-1.5,-.3,-2.8,-1.8,-2.4,-3.3c.3,-1.9,1.8,-2.8,3.3,-2.8c11.4,1.9,18.5,0,22.2,-1.5Z" class="g1_8"/>
<path fill-rule="evenodd" d="M224.2,691.9c0,-1.8,.6,-3.7,.9,-5.5c-.9,.3,-2.1,.6,-3.3,.6c-.3,1.5,-.9,2.8,-1.2,4c.3,1.5,.6,3,1.2,4.6c.6,-1.6,1.5,-2.8,2.4,-3.7Z" class="g1_8"/>
<path fill-rule="evenodd" d="M241.3,680.9c-1,-6.2,-5.9,-9.9,-9.9,-8.4c-.7,.4,-1.3,.7,-1.6,1q-.3,0,-.3,.3c-.6,.3,-2.5,2.1,-2.5,2.1c-.3,.7,-.9,1.6,-1.2,2.8c.6,-.3,.9,-.3,1.5,-.6c1.3,-.6,2.2,-.9,2.8,-1.2c0,-.3,.3,-.3,.3,-.7c1,-.6,1.6,-.9,2.5,-.9c1.2,0,2.2,.6,2.8,1.3c1.5,1.5,1.2,4,-.3,5.2c-.3,.3,-1.9,1.9,-5.3,3.1c-.9,.6,-2.5,.9,-4,1.5c0,4.3,-.3,8.7,-1.5,13c-.4,.6,-.7,1.2,-.7,2.1q-12.7,0,-12.7,0c-2.4,0,-4.6,1.6,-4.9,4.1q-3.4,22.2,-3.4,22.2c-.3,2.4,1.2,4.9,4,5.5c.3,0,.6,0,.6,0c2.5,0,4.7,-1.8,5,-4q2.8,-18.2,2.8,-18.2q15.4,0,15.4,0q.3,0,.7,0c0,0,.3,0,.3,0c3.1,-.3,6.2,-3.1,7.4,-7.4c2.5,-7.4,3.1,-15.1,2.2,-22.8Z" class="g1_8"/>
<path fill-rule="evenodd" d="M222.7,679.6c.3,-1.2,.9,-2.4,1.2,-3.6c.3,-1.2,-.3,-2.7,-1.8,-3c-1.2,-.3,-2.7,.3,-3,1.8c-.6,2.4,-1.6,4.2,-2.8,5.4c2.2,0,4.3,-.3,6.4,-.6Z" class="g1_8"/>
<path fill-rule="evenodd" d="M150.5,671.9c4.6,0,8.6,-4,8.6,-8.6c0,-5,-4,-8.7,-8.6,-9c-4.9,0,-8.6,4,-8.6,8.7c0,4.9,3.7,8.9,8.6,8.9Z" class="g1_8"/>
<path fill-rule="evenodd" d="M150.5,678.8c-1.2,-.6,-2.1,-1.2,-2.8,-1.5c-.3,0,-.3,-.3,-.6,-.3c-1.2,-1.2,-3.1,-1.2,-4.3,.3c-1.3,1.2,-1,3,.3,4.2c0,0,1.8,1.6,4.9,2.8c5,2.1,13.4,3.9,25.4,2.1c1.9,-.3,3.1,-1.8,2.8,-3.3c-.3,-1.9,-1.8,-2.8,-3.4,-2.8c-11.4,1.9,-18.6,0,-22.3,-1.5Z" class="g1_8"/>
<path fill-rule="evenodd" d="M154,691.9c.9,.9,1.8,2.1,2.4,3.7c.7,-1.6,1,-3.1,1.3,-4.6c-.3,-1.2,-1,-2.5,-1.6,-4c-1.2,0,-2.1,-.3,-3,-.6c.3,1.8,.6,3.7,.9,5.5Z" class="g1_8"/>
<path fill-rule="evenodd" d="M171.8,705.6c-.6,-2.5,-2.5,-4.1,-4.9,-4.1q-12.9,0,-12.9,0c0,-.9,0,-1.5,-.3,-2.1c-1.2,-4.3,-1.9,-8.7,-1.5,-13c-1.6,-.6,-3.1,-.9,-4,-1.5c-3.4,-1.2,-5.2,-2.8,-5.5,-3.1c-1.3,-1.2,-1.6,-3.7,-.4,-5.2c1,-.7,1.9,-1.3,2.8,-1.3c.9,0,1.8,.3,2.5,.9q.3,.4,.6,.7c.6,.3,1.5,.6,2.7,1.2c.3,.3,.9,.3,1.6,.6c-.3,-1.2,-1,-2.1,-1.6,-2.8c.3,0,-1.5,-1.8,-2.1,-2.1c0,-.3,-.3,-.3,-.3,-.3c-.6,-.3,-.9,-.6,-1.6,-1c-3.9,-1.5,-8.8,2.2,-9.8,8.4c-.9,7.7,-.3,15.4,2.2,22.8c1.2,4.3,4.3,7.1,7.3,7.4h.3c0,0,.4,0,.7,0q15.3,0,15.3,0q2.7,18.2,2.7,18.2c.3,2.2,2.5,4,4.6,4c.3,0,.7,0,1,0c2.4,-.6,4.2,-3.1,3.9,-5.5l-3.3,-22.2Z" class="g1_8"/>
<path fill-rule="evenodd" d="M164.2,680.6c2.8,0,5.6,-.3,8.3,-.9q.4,0,.7,0c.9,0,1.8,.6,2.4,1.2c.6,-.9,.9,-1.8,.6,-2.7c-.6,-1.8,-2.1,-2.4,-4,-2.1c-8.9,3,-15.4,3.3,-19.7,2.7c3.4,1.2,7.4,1.8,11.7,1.8Z" class="g1_8"/>
<path fill-rule="evenodd" d="M174.9,682.7l-.9,.4L171.8,667h1.1l2,15.7Z" class="g1_8"/>
<path fill-rule="evenodd" d="M211.1,661.5c0,0,-.3,0,-.3,0q-4,-2.5,-4,-2.5c-1.9,.6,-3.7,.6,-5.6,.6c-9,0,-15.5,-5.5,-15.5,-13.5c0,-7.7,6.5,-13.6,15.5,-13.6c9.6,0,17.3,6.2,17.3,13.6c0,4,-2.1,8,-6.2,10.4q0,3.4,0,3.4q0,.3,0,.3c0,.7,-.3,1.3,-.9,1.3h-.3Zm-4.3,-5c.3,0,.6,0,.6,.3q2.8,1.6,2.8,1.6q0,-2.5,0,-2.5c0,-.3,0,-.9,.3,-.9c3.7,-2.2,5.6,-5.6,5.6,-8.9c0,-6.2,-6.5,-11.1,-14.9,-11.1c-7.7,0,-13,4.6,-13,11.1c0,6.7,5.3,11.4,13,11.4c1.9,0,3.7,-.3,5.3,-1q.3,0,.3,0Z" class="g1_8"/>
<path fill-rule="evenodd" d="M187.5,655c-.9,0,-1.8,.3,-2.7,.3c-2.8,0,-5.6,-.6,-8.1,-1.2q-.3,0,-.6,0c-.3,0,-.6,0,-.9,.3q-4,2.1,-4,2.1q0,-3.6,0,-3.6c0,-.7,-.3,-1.3,-.6,-1.6c-5.6,-3.1,-8.3,-8,-8.3,-13.2c0,-9.6,9.8,-17.2,22.5,-17.2c8.9,0,16,4.3,18.7,10.7c1.3,0,2.8,.3,4,.6c-2.7,-8.9,-11.4,-14.7,-22.7,-14.7c-14.8,0,-26.2,8.9,-26.2,20.6c0,6.1,3.4,12,9.2,15.7q0,5.5,0,5.5c0,0,0,.3,0,.3c0,1,.6,1.9,1.6,1.9h.3c.3,0,.6,0,.6,-.3q6.1,-3.4,6.1,-3.4c2.8,.6,5.6,.9,8.4,.9c2.1,0,4,0,6.1,-.6c-1.2,-.9,-2.4,-1.9,-3.4,-3.1Z" class="g1_8"/>
<path fill-rule="evenodd" d="M194.6,649.2c-1.2,0,-2.5,-1.3,-2.5,-2.8c0,-1.3,1.3,-2.5,2.5,-2.5c1.6,0,2.9,1.2,2.9,2.5c0,1.5,-1.3,2.8,-2.9,2.8Zm0,-4.1c-.6,0,-1.2,.6,-1.2,1.3c0,.9,.6,1.5,1.2,1.5c1,0,1.6,-.6,1.6,-1.5c0,-.7,-.6,-1.3,-1.6,-1.3Z" class="g1_8"/>
<path fill-rule="evenodd" d="M201.7,649.2c-1.5,0,-2.8,-1.3,-2.8,-2.8c0,-1.3,1.3,-2.5,2.8,-2.5c1.3,0,2.5,1.2,2.5,2.5c0,1.5,-1.2,2.8,-2.5,2.8Zm0,-4.1c-.9,0,-1.5,.6,-1.5,1.3c0,.9,.6,1.5,1.5,1.5c.7,0,1.3,-.6,1.3,-1.5c0,-.7,-.6,-1.3,-1.3,-1.3Z" class="g1_8"/>
<path fill-rule="evenodd" d="M208.5,649.2c-1.5,0,-2.8,-1.3,-2.8,-2.8c0,-1.3,1.3,-2.5,2.8,-2.5c1.3,0,2.5,1.2,2.5,2.5c0,1.5,-1.2,2.8,-2.5,2.8Zm0,-4.1c-.9,0,-1.5,.6,-1.5,1.3c0,.9,.6,1.5,1.5,1.5c.6,0,1.3,-.6,1.3,-1.5c0,-.7,-.7,-1.3,-1.3,-1.3Z" class="g1_8"/>
<path fill-rule="evenodd" d="M324.1,560.4q7.7,0,7.7,0q0,-1.2,0,-1.2q-2.5,0,-2.5,0c-.4,.2,-.8,.4,-1.2,.4q-.2,0,-.4,0c-.5,0,-1.1,-.2,-1.5,-.4q-2.1,0,-2.1,0v1.2Z" class="g1_8"/>
<path fill-rule="evenodd" d="M374.6,513.7c5.6,-1.7,8.8,-7.5,7.3,-13.1c-1.7,-5.6,-7.5,-8.7,-13.1,-7.3c-5.6,1.7,-8.9,7.5,-7.3,13.1c1.7,5.6,7.5,9,13.1,7.3Z" class="g1_8"/>
<path fill-rule="evenodd" d="M393,548.9c.6,-10.6,-.4,-16.6,-4.1,-25.8c-2.8,-6.8,-8.6,-8.7,-12.5,-7.4c-2.1,.6,-3.5,2.5,-4.2,4.8c-1.2,2.6,-2,9.7,-2.2,15.7c1.4,-1.6,2.5,-3.5,3.1,-5.2c0,-.6,0,-1.2,0,-1.8c0,.4,.2,.8,.2,1.2c.2,-.4,.4,-1,.4,-1.5c.6,-1.6,.8,-3.3,1,-4.3c.2,-.6,.2,-1,.2,-1.2q0,-.3,0,-.3q0,-.2,0,-.2c0,-2.4,2.1,-4.3,4.6,-4.3q.2,0,.2,0c1.3,0,2.5,.4,3.3,1.4c.9,.9,1.3,2.1,1.3,3.4c-.2,2,-.6,7.6,-3.5,13.4c-1.5,2.5,-3.2,5,-5.2,6.9c.2,1,.4,2.3,.4,3.1q0,50.2,0,50.2c0,3.3,2.7,5.8,5.8,5.8c3.3,0,6,-2.5,6,-5.8q0,-40.2,0,-40.2c2.5,-1.3,4.6,-3.4,5.2,-7.9Z" class="g1_8"/>
<path fill-rule="evenodd" d="M373.8,545.6c-.4,.2,-.8,.4,-1.2,.8c-.2,0,-.4,.2,-.6,.4c.4,.9,.8,1.7,1.2,2.1c.2,-.8,.4,-2.1,.6,-3.3Z" class="g1_8"/>
<path fill-rule="evenodd" d="M371.9,545.5c4,-2.5,6.5,-6,8.1,-9.3c3.3,-6.5,3.3,-12.7,3.5,-12.9c0,-2.1,-1.6,-3.9,-3.7,-3.9c-2.1,0,-3.7,1.6,-3.9,3.7c0,0,0,.2,0,.2c0,.4,0,.9,0,1.5c-.2,1,-.6,2.7,-1.1,4.5c-1.2,3.5,-3.3,7.5,-7,10c-2.5,1.8,-5.8,2.9,-10.6,2.9c0,0,-.2,0,-.2,0c-2.1,.2,-3.7,1.8,-3.7,3.9c0,2.1,1.6,3.7,3.7,3.7h.2c6,0,11,-1.6,14.7,-4.3Z" class="g1_8"/>
<path fill-rule="evenodd" d="M330.2,500.6c-1.7,5.6,1.6,11.4,7.3,13.1c5.6,1.7,11.4,-1.7,13,-7.3c1.5,-5.6,-1.6,-11.4,-7.2,-13.1c-5.6,-1.4,-11.5,1.7,-13.1,7.3Z" class="g1_8"/>
<path fill-rule="evenodd" d="M327.7,558.6q.2,0,.2,0c2.1,0,3.7,-1.8,3.5,-3.9c0,-1.9,0,-3.8,0,-5.4c0,-16.5,4.1,-24.4,4.3,-24.8c1.1,-1.8,.5,-4.1,-1.4,-5.2c-1.7,-1,-3.9,-.4,-5,1.5c-.4,.4,-5.4,9.5,-5.4,28.5c0,1.8,0,3.7,0,5.8c.3,2.1,1.9,3.5,3.8,3.5Z" class="g1_8"/>
<path fill-rule="evenodd" d="M355.5,541.6c-4.6,0,-7.9,-1.2,-10.4,-2.9c-1.3,-.8,-2.3,-1.9,-3.1,-2.9c-.5,-5.8,-1.3,-12.7,-2.3,-15.1c-.6,-2.5,-2.1,-4.4,-4.2,-5c-3.9,-1.3,-9.7,.6,-12.5,7.4c-3.7,9.2,-4.7,15.2,-4.1,25.8c.4,3.3,1.7,5.4,3.3,6.6q.6,0,.6,0c0,0,-.2,-.2,-.2,-.2c0,-2.1,0,-4.2,0,-6c0,-19.7,5.4,-28.8,5.6,-29.1c.9,-1.6,2.5,-2.5,4.2,-2.5c1,0,1.9,.3,2.7,.7c1,.6,1.9,1.8,2.3,3.1c.2,1,.2,2.1,-.4,3.1q0,.2,0,.2c0,.2,-.2,.2,-.2,.4c-.4,.8,-4.2,8.3,-4.2,24.1c0,1.6,0,3.5,0,5.4c.2,2.7,-1.9,5.2,-4.6,5.2q-.2,0,-.4,0c-1.2,0,-2.5,-.5,-3.5,-1.5q0,38.6,0,38.6c0,3.3,2.7,5.8,5.8,5.8c3.3,0,6,-2.5,6,-5.8q0,-36.5,0,-36.5q0,-7.9,0,-7.9q0,-5.8,0,-5.8c0,-1.7,.5,-3.7,.7,-5.8c.4,.4,.6,.8,1,1.2c.4,1.7,.8,5,1.2,6.7c.7,-.9,1.3,-2.5,1.9,-4.2c0,0,.2,.2,.2,.2c3.2,2.1,7.3,3.8,12.3,4.2c-.6,-.9,-1,-1.9,-1,-2.9c0,-1.3,.4,-2.5,1.4,-3.3c.4,-.7,1.1,-1.1,1.9,-1.3ZM338.8,530.4c0,0,-.2,-.2,-.2,-.4c0,-.2,.2,-.4,.2,-.8c0,.4,0,.8,0,1.2Z" class="g1_8"/>
<path fill-rule="evenodd" d="M369.6,584.5q0,-2,0,-2c0,-1,-.8,-2.1,-2.1,-2.1q-24.1,0,-24.1,0c-1.2,0,-2,1.1,-2,2.1q0,2,0,2q14.1,4.2,14.1,4.2l14.1,-4.2Z" class="g1_8"/>
<path fill-rule="evenodd" d="M357.1,589.9q0,2.1,0,2.1c0,.2,-.2,.6,-.6,.6q-2.3,0,-2.3,0c-.2,0,-.4,-.4,-.4,-.6q0,-2.1,0,-2.1q-12.4,-3.8,-12.4,-3.8q0,14.6,0,14.6c0,1.3,.8,2.1,2,2.1q24.1,0,24.1,0c1.3,0,2.1,-.8,2.1,-2.1q0,-14.6,0,-14.6l-12.5,3.8Z" class="g1_8"/>
<path fill-rule="evenodd" d="M361.4,577.4c0,.4,-.3,.7,-.7,.7q-10.3,0,-10.3,0c-.4,0,-.6,-.3,-.6,-.7c0,-.2,.2,-.6,.6,-.6q10.3,0,10.3,0c.4,0,.7,.4,.7,.6Z" class="g1_8"/>
<path fill-rule="evenodd" d="M360.6,581.5h.4v-4h-.4v4Z" class="g1_8"/>
<path fill-rule="evenodd" d="M349.8,581.7h.7v-4.2h-.7v4.2Z" class="g1_8"/>
<path d="M507.4,638.6v93.9M666.9,511.2V605" class="g6_8"/>
<path fill-rule="evenodd" d="M466.8,464.7q0,.3,0,.3q0,1.8,0,1.8c-1.4,.6,-2.4,1.7,-2.4,3.4c0,2.1,1.4,3.5,3.5,3.5c1.7,0,3.5,-1.4,3.5,-3.5c0,-1.4,-.7,-2.8,-2.1,-3.1q0,-1.4,0,-1.4c.7,-.7,3.5,-3.2,11.2,-3.8q.7,4.9,.7,4.9c-1.4,.6,-2.4,2,-2.4,3.4c0,2.1,1.7,3.5,3.5,3.5c2.1,0,3.5,-1.4,3.5,-3.5c0,-1.4,-.7,-2.4,-1.8,-3.1q.4,-5.2,.4,-5.2c4.5,.3,7.3,1.4,9.1,2.1c1.1,.7,1.8,1,2.1,1.3q0,.4,0,.4q0,1.4,0,1.4c-1,.3,-2.1,1.7,-2.1,3.1c0,2.1,1.8,3.5,3.5,3.5c2.1,0,3.9,-1.4,3.9,-3.5c0,-1.4,-1.1,-2.8,-2.5,-3.4q0,-1.8,0,-1.8q-.3,-.3,-.3,-.3c0,-.4,-2.8,-4.9,-13.4,-5.3q.7,-5.2,.7,-5.2q9.9,0,9.9,0c2.1,0,3.5,-1.4,3.5,-3.2c0,-2.1,-1.4,-3.5,-3.5,-3.5q-22.5,0,-22.5,0q-1.4,-22.3,-1.4,-22.3c0,-1.8,-1.8,-3.2,-3.5,-3.2c-1.8,0,-3.2,1.8,-3.2,3.5q1.8,25.5,1.8,25.5c0,1.8,1.4,3.2,3.1,3.2q10.2,0,10.2,0q.7,5.2,.7,5.2c-10.5,.4,-13.3,4.9,-13.7,5.3Z" class="g1_8"/>
<path fill-rule="evenodd" d="M479.2,391.3c0,-5.4,4.4,-9.8,9.8,-9.8c5.5,0,9.8,4.4,9.8,9.8c0,5.4,-4.3,9.8,-9.8,9.8c-5.4,0,-9.8,-4.4,-9.8,-9.8Z" class="g1_8"/>
<path fill-rule="evenodd" d="M489.4,408.8c-1.4,-.7,-2.5,-1,-3.2,-1.4c-.3,-.3,-.7,-.3,-.7,-.7c-1.4,-1.3,-3.8,-1,-4.9,.4c-1.4,1.4,-1.4,3.5,.4,4.9c0,.3,1.7,1.7,5.6,3.5c5.6,2.1,14.7,4.1,28.7,2.1c2.1,0,3.2,-1.8,3.2,-3.9c-.4,-1.7,-2.1,-3.1,-4.2,-2.8c-12.7,1.8,-20.7,-.3,-24.9,-2.1Z" class="g1_8"/>
<path fill-rule="evenodd" d="M493.1,423.9c1.1,1.4,1.8,2.8,2.9,4.2c.3,-1.8,1,-3.5,1.4,-5.2c-.7,-1.1,-1.1,-2.8,-1.8,-4.2c-1.4,-.3,-2.5,-.7,-3.5,-.7c.3,1.7,.7,3.8,1,5.9Z" class="g1_8"/>
<path fill-rule="evenodd" d="M513.2,439.2c-.4,-2.5,-2.5,-4.6,-5.3,-4.6q-14.7,0,-14.7,0c0,-.7,0,-1.7,-.4,-2.4c-1.4,-4.5,-2.1,-9.8,-1.7,-14.7c-2.1,-.7,-3.5,-1,-4.9,-1.7c-3.6,-1.4,-5.7,-3.2,-6,-3.5c-1.8,-1.4,-1.8,-4.2,-.4,-5.6c.7,-1.1,2.1,-1.4,3.2,-1.4c1,0,2.1,.3,2.8,1q.4,0,.7,.4c.7,.3,1.8,1,3.2,1.4c.3,.3,1,.7,1.4,.7c-.4,-1.4,-.7,-2.1,-1.4,-3.2c0,0,-1.8,-2.1,-2.5,-2.4c0,0,-.3,-.4,-.3,-.4c-.7,-.3,-1.4,-.7,-1.8,-1c-4.6,-1.4,-10.2,2.5,-11.2,9.4c-1.1,8.8,-.4,17.8,2.1,26.2c1.4,4.6,5.2,7.7,8.7,8.1c.4,0,.8,0,1.1,0q17.5,0,17.5,0q3.2,20.6,3.2,20.6c.4,2.8,2.8,4.5,5.3,4.5c.3,0,.7,0,1,0c2.8,-.3,4.9,-3.1,4.6,-6.3l-4.2,-25.1Z" class="g1_8"/>
<path fill-rule="evenodd" d="M504.8,410.9c2.8,0,6,-.4,9.5,-.7q.3,0,.7,0c1,0,2.1,.3,2.8,1c.7,-.7,1,-2.1,.7,-3.1c-.7,-1.7,-2.8,-2.7,-4.6,-2.1c-10.1,3.1,-17.5,3.5,-22.4,2.8c3.9,1.4,8.4,2.1,13.3,2.1Z" class="g1_8"/>
<path fill-rule="evenodd" d="M505.5,389.2c-.4,0,-.4,-.3,-.4,-.7q0,-4.9,0,-4.9q-.3,0,-.3,0c-4.2,-3.1,-6.7,-7.3,-6.7,-11.8c.4,-8.4,8.8,-15,19.7,-14.7c10.2,0,17.5,6.6,17.2,15.4c0,9,-7.4,15,-17.6,15c-2.1,0,-4.2,-.4,-6.3,-1.1q-5.3,2.8,-5.3,2.8h-.3Zm12.3,-30.7c-9.9,-.3,-18.3,5.9,-18.3,13.3c0,4.5,2.5,8.3,6.7,11.1c0,0,.4,.4,.4,.4q-.4,4.2,-.4,4.2q4.2,-2.5,4.2,-2.5q.4,0,.4,0q.3,0,.3,0c2.1,.7,4.2,1.1,6.3,1.1c9.5,0,16.2,-5.6,16.5,-13.6c0,-8.1,-6.6,-14,-16.1,-14Z" class="g1_8"/>
<path fill-rule="evenodd" d="M512.4,418.9H528v-2H512.4v2Z" class="g1_8"/>
<path fill-rule="evenodd" d="M531,473q13.8,0,13.8,0c1,-.7,1.7,-2.1,1.7,-3.5q0,-25.1,0,-25.1c0,-2.5,-1.7,-4.2,-4.2,-4.2q-8.8,0,-8.8,0c-2.5,0,-4.2,1.7,-4.2,4.2q0,25.1,0,25.1c0,1.4,.7,2.8,1.7,3.5Z" class="g1_8"/>
<path fill-rule="evenodd" d="M536.4,386.1v24.6h2.1v6.6h2.2V386.1h-4.3Z" class="g1_8"/>
<path fill-rule="evenodd" d="M542.7,417.9c0,.7,-.7,1,-1.1,1q-7,0,-7,0c-.7,0,-1.1,-.3,-1.1,-1c0,-.7,.4,-1,1.1,-1q7,0,7,0c.4,0,1.1,.3,1.1,1Z" class="g1_8"/>
<path fill-rule="evenodd" d="M512.5,368.3c0,0,.3,.3,.3,.3q0,.7,0,.7c.7,.4,1.5,.4,1.8,.7q.4,-.3,.4,-.3c0,0,.3,0,.3,0q.4,0,.4,0q.7,.7,.7,.7q.3,.3,0,.7q-.4,.3,-.4,.3c.4,.8,.7,1.1,.7,1.8q.7,0,.7,0c0,0,.4,.4,.4,.7q0,.7,0,.7c0,.4,-.4,.7,-.4,.7q-.7,0,-.7,0c0,.7,-.3,1.1,-.7,1.8q.4,.4,.4,.4c.3,0,.3,.3,0,.7q-.7,.7,-.7,.7h-.4c0,0,-.3,0,-.3,0q-.4,-.4,-.4,-.4c-.3,.4,-1.1,.4,-1.8,.7q0,.4,0,.4c0,.3,-.3,.7,-.3,.7q-1.1,0,-1.1,0c-.3,0,-.7,-.4,-.7,-.7q0,-.4,0,-.4c-.3,-.3,-1,-.3,-1.4,-.7q-.7,.4,-.7,.4h-.7q-.7,-.7,-.7,-.7c0,-.4,0,-.7,0,-.7q.7,-.4,.7,-.4c-.3,-.7,-.7,-1.1,-.7,-1.8q-.7,0,-.7,0c-.4,0,-.7,-.3,-.7,-.7q0,-.7,0,-.7c0,-.3,.3,-.7,.7,-.7q.7,0,.7,0c0,-.7,.4,-1,.7,-1.8q-.7,-.3,-.7,-.3q0,-.4,0,-.7q.7,-.7,.7,-.7q.4,0,.4,0q.3,0,.3,0q.7,.3,.7,.3c.4,-.3,1.1,-.3,1.4,-.7q0,-.7,0,-.7c0,0,.4,-.3,.7,-.3q1.1,0,1.1,0m0,-1.1q-1.1,0,-1.1,0c-.7,0,-1.4,.7,-1.4,1.4q-.3,0,-.7,.4c-.3,-.4,-.7,-.4,-1,-.4c-.4,0,-.7,0,-1.1,.4q-.7,.7,-.7,.7c0,.3,-.4,.7,-.4,1c0,.4,.4,.7,.4,1.1c0,0,0,.4,-.4,.4c-.7,.3,-1,.7,-1,1.7q0,.7,0,.7c0,.7,.3,1.4,1,1.8c.4,0,.4,.4,.4,.4c0,.3,-.4,.7,-.4,1c0,.4,.4,.7,.4,1.1q.7,.7,.7,.7c.4,.3,.7,.3,1.1,.3c.3,0,.7,0,1,-.3c.4,0,.4,.3,.7,.3c0,.7,.7,1.4,1.4,1.4q1.1,0,1.1,0c.7,0,1.4,-.7,1.4,-1.4c0,0,.4,-.3,.7,-.3c0,.3,.4,.3,.7,.3c.4,0,.7,0,1.1,-.3q.7,-.7,.7,-.7c.3,-.4,.3,-.7,.3,-1.1c0,-.3,0,-.7,-.3,-1c.3,0,.3,-.4,.3,-.4c.7,-.4,1.4,-1.1,1.4,-1.8q0,-.7,0,-.7c0,-1,-.7,-1.4,-1.4,-1.7c0,0,0,-.4,-.3,-.4c.3,-.4,.3,-.7,.3,-1.1c0,-.3,0,-.7,-.3,-1q-.7,-.7,-.7,-.7c-.4,-.4,-.7,-.4,-1.1,-.4c-.3,0,-.7,0,-.7,.4c-.3,-.4,-.7,-.4,-.7,-.4c0,-.7,-.7,-1.4,-1.4,-1.4Z" class="g1_8"/>
<path fill-rule="evenodd" d="M511.8,377.3c-1.8,0,-3.2,-1.4,-3.2,-3.1c0,-1.7,1.4,-3.1,3.2,-3.1c1.8,0,3.2,1.4,3.2,3.1c0,1.7,-1.4,3.1,-3.2,3.1Zm0,-5.9c-1.4,0,-2.5,1.4,-2.5,2.8c0,1.4,1.1,2.7,2.5,2.7c1.8,0,2.8,-1.3,2.8,-2.7c0,-1.4,-1,-2.8,-2.8,-2.8Z" class="g1_8"/>
<path fill-rule="evenodd" d="M511.8,376c-.7,0,-1.8,-.7,-1.8,-1.7c0,-1.1,1.1,-1.8,1.8,-1.8c1,0,1.7,.7,1.7,1.8c0,1,-.7,1.7,-1.7,1.7Zm0,-3.1c-.7,0,-1.1,.7,-1.1,1.4c0,.7,.4,1,1.1,1c.7,0,1.4,-.3,1.4,-1c0,-.7,-.7,-1.4,-1.4,-1.4Z" class="g1_8"/>
<path fill-rule="evenodd" d="M524.8,364.4q.3,0,.3,.4q0,.3,0,.3c.4,.4,1.1,.4,1.4,.7q.4,-.3,.4,-.3h.7q.3,.7,.3,.7c.4,0,.4,.3,0,.3q-.3,.4,-.3,.4c.3,.3,.7,1,.7,1.4q.3,0,.3,0c.4,0,.4,.3,.4,.3q0,1.1,0,1.1c0,0,0,.3,-.4,.3q-.3,0,-.3,0c0,.4,-.4,.7,-.7,1.4q.3,.4,.3,.4c.4,0,.4,.3,0,.3q-.3,.7,-.3,.7q-.4,0,-.4,0q-.3,0,-.3,0q-.4,-.3,-.4,-.3c-.3,.3,-1,.3,-1.4,.7q0,.3,0,.3q0,.3,-.3,.3q-.7,0,-.7,0q-.4,0,-.4,-.3q0,-.3,0,-.3c-.7,-.4,-1,-.4,-1.4,-.7q-.3,.3,-.3,.3q-.4,0,-.4,0q-.3,0,-.3,0q-.7,-.7,-.7,-.7c0,0,0,-.3,0,-.3q.3,-.4,.3,-.4c0,-.7,-.3,-1,-.3,-1.4q-.7,0,-.7,0c0,0,-.4,-.3,-.4,-.3q0,-1.1,0,-1.1c0,0,.4,-.3,.4,-.3q.7,0,.7,0c0,-.4,.3,-1.1,.3,-1.4q-.3,-.4,-.3,-.4c0,0,0,-.3,0,-.3q.7,-.7,.7,-.7h.7q.3,.3,.3,.3c.4,-.3,.7,-.3,1.4,-.7q0,-.3,0,-.3q0,-.4,.4,-.4q.7,0,.7,0m0,-.7q-.7,0,-.7,0c-.7,0,-1.4,.4,-1.4,1.1c0,0,-.4,0,-.4,0c-.3,0,-.3,-.4,-.7,-.4c-.3,0,-.7,.4,-1,.4q-.4,.7,-.4,.7c-.3,.3,-.3,.7,-.3,.7c0,.3,0,.7,.3,1q-.3,0,-.3,.4c-.7,0,-1.1,.7,-1.1,1q0,1.1,0,1.1c0,.3,.4,1,1.1,1c0,0,0,.4,.3,.4c-.3,.3,-.3,.7,-.3,.7c0,.3,0,.7,.3,1q.4,.4,.4,.4c.3,.3,.7,.3,1,.3q.4,0,.7,0c0,0,.4,0,.4,0c0,.7,.7,1.1,1.4,1.1q.7,0,.7,0c.7,0,1,-.4,1,-1.1q.4,0,.7,0c0,0,.4,0,.7,0c.4,0,.7,0,.7,-.3q.7,-.4,.7,-.4c0,-.3,.4,-.7,.4,-1c0,0,0,-.4,-.4,-.7c0,0,0,-.4,.4,-.4c.3,0,1,-.7,1,-1q0,-1.1,0,-1.1c0,-.3,-.7,-1,-1,-1q-.4,-.4,-.4,-.4c.4,-.3,.4,-.7,.4,-1c0,0,-.4,-.4,-.4,-.7q-.7,-.7,-.7,-.7c0,0,-.3,-.4,-.7,-.4c-.3,0,-.7,.4,-.7,.4q-.3,0,-.7,0c0,-.7,-.3,-1.1,-1,-1.1Z" class="g1_8"/>
<path fill-rule="evenodd" d="M524.4,371.8c-1.4,0,-2.8,-1.4,-2.8,-2.7c0,-1.4,1.4,-2.4,2.8,-2.4c1.4,0,2.5,1,2.5,2.4c0,1.3,-1.1,2.7,-2.5,2.7Zm0,-4.8c-1.4,0,-2.1,1,-2.1,2.1c0,1.3,.7,2.4,2.1,2.4c1.1,0,2.1,-1.1,2.1,-2.4c0,-1.1,-1,-2.1,-2.1,-2.1Z" class="g1_8"/>
<path fill-rule="evenodd" d="M524.4,370.3c-.7,0,-1.4,-.3,-1.4,-1.3c0,-.7,.7,-1.4,1.4,-1.4c.7,0,1.4,.7,1.4,1.4c0,1,-.7,1.3,-1.4,1.3Zm0,-2c-.7,0,-1,.3,-1,.7c0,.6,.3,1,1,1c.4,0,1.1,-.4,1.1,-1c0,-.4,-.7,-.7,-1.1,-.7Z" class="g1_8"/>
<path fill-rule="evenodd" d="M529.1,473c-.7,-1,-1.1,-2.1,-1.1,-3.5q0,-25.1,0,-25.1c0,-3.1,2.4,-5.5,5.6,-5.5q10.2,0,10.2,0q0,-18.2,0,-18.2q-37.5,0,-37.5,0c-1.1,0,-2.1,1.1,-2.1,2.1q0,.4,0,.4c0,1,1,2.1,2.1,2.1q14.7,0,14.7,0q0,47.7,0,47.7h8.1Z" class="g1_8"/>
<path fill-rule="evenodd" d="M632.2,235q88.8,0,88.8,0q0,57.7,0,57.7q-88.8,0,-88.8,0q0,-12.6,0,-12.6c-.4,.2,-.7,.3,-1,.4q0,12.6,0,12.6q0,.7,0,.7q0,4.7,0,4.7q90.8,0,90.8,0q0,-4.7,0,-4.7q0,-.6,0,-.6q0,-.1,0,-.1q0,-58.7,0,-58.7q0,-.5,0,-.5q0,-4.9,0,-4.9q-90.8,0,-90.8,0q0,4.9,0,4.9q0,.5,0,.5q0,37.6,0,37.6c.3,-.1,.6,-.3,1,-.4V235Z" class="g1_8"/>
<path fill-rule="evenodd" d="M607.4,264.6c0,-4.7,3.8,-8.5,8.4,-8.5c4.7,0,8.5,3.8,8.5,8.5c0,4.7,-3.8,8.6,-8.5,8.6c-4.6,0,-8.4,-3.9,-8.4,-8.6Z" class="g1_8"/>
<path fill-rule="evenodd" d="M653.8,265.2c-1,-1.4,-2.9,-1.7,-4.3,-.7c-6,4.2,-12.8,7,-18,8.6c-2.7,.8,-4.9,1.3,-6.6,1.7c-.7,.1,-1.4,.2,-1.9,.3c-.1,0,-.3,0,-.3,.2q-.2,0,-.2,0q-13.5,0,-13.5,0c-.1,0,-.3,-.2,-.5,-.2c-.8,0,-1.9,.2,-3.3,.9c-2,1,-4.1,3.2,-5.6,7.1c-1.5,3.9,-2.7,9.5,-2.7,18.1c0,2.2,.2,4.6,.3,7.1c.1,1.7,1.4,2.9,3,2.9c0,0,.1,0,.1,0c1.8,-.1,3,-1.5,2.9,-3.1c-.1,-2.5,-.2,-4.9,-.2,-6.9c0,-9.2,1.3,-14.2,2.6,-16.9q-.1,58.5,-.1,58.5c0,2.5,2.1,4.6,4.6,4.6c2.6,0,4.7,-2.1,4.7,-4.6q.1,-36,.1,-36q1.7,0,1.7,0q-.1,36,-.1,36c0,2.5,2.2,4.6,4.7,4.6c2.6,0,4.7,-2.1,4.7,-4.6q0,-62.1,0,-62.1c5.1,-1,16.9,-4.1,27.1,-11.3c1.4,-1,1.7,-2.8,.8,-4.2Zm-39.4,13.1q1.4,0,1.4,0q1.3,0,1.3,0q.8,2.9,.8,2.9q-.1,.1,-.1,.1c-.5,.5,-1.3,.8,-2,.8c-.8,0,-1.5,-.3,-2,-.8q-.2,-.1,-.2,-.1l.8,-2.9Zm1.4,24.2Q612.3,298,612.3,298q2,-15.1,2,-15.1c.5,.2,1,.3,1.5,.3c.5,0,1,-.1,1.5,-.3q2,15.1,2,15.1l-3.5,4.5Z" class="g1_8"/>
<path fill-rule="evenodd" d="M697.1,242c-3.4,0,-5.6,2.6,-5.6,5.7c0,1.5,.7,3,1.8,4.1q-7.1,10.6,-7.1,10.6c-.4,-.4,-1.1,-.8,-1.9,-.8c-2.2,0,-4.1,1.6,-4.9,3.1q-4.1,-2.3,-4.1,-2.3c.4,-.4,.4,-1.1,.4,-1.9c0,-3.4,-2.6,-5.7,-5.6,-5.7c-3,0,-5.7,2.3,-5.7,5.7c0,1.5,.8,3,1.9,4.2q-3,3.7,-3,3.7c-.7,-.3,-1.9,-.7,-3,-.7c-3.4,0,-5.6,2.3,-5.6,5.7c0,3,2.2,5.6,5.6,5.6c3,0,5.6,-2.6,5.6,-5.6c0,-1.5,-.7,-2.7,-1.5,-3.8q3,-4.2,3,-4.2c.8,.4,1.9,.8,2.7,.8c1.8,0,3.7,-1.1,4.5,-2.7q4.1,2.7,4.1,2.7c0,.4,0,.7,0,1.5c0,3,2.2,5.7,5.6,5.7c3,0,5.7,-2.7,5.7,-5.7c0,-1.9,-1.2,-3.8,-2.3,-4.5q6.8,-10.6,6.8,-10.6c.7,.4,1.5,.7,2.6,.7c3,0,5.6,-2.6,5.6,-5.6c0,-3.1,-2.6,-5.7,-5.6,-5.7Zm-36.8,34c-1.5,0,-3,-1.1,-3,-2.6c0,-1.9,1.5,-3.1,3,-3.1c1.5,0,2.6,1.2,2.6,3.1c0,1.5,-1.1,2.6,-2.6,2.6Zm9.8,-12.8c-1.5,0,-2.7,-1.2,-2.7,-2.7c0,-1.5,1.2,-3,2.7,-3c1.5,0,3,1.5,3,3c0,1.5,-1.5,2.7,-3,2.7Zm14.2,7.1c-1.5,0,-3,-1.1,-3,-2.6c0,-1.9,1.5,-3,3,-3c1.5,0,2.7,1.1,2.7,3c0,1.5,-1.2,2.6,-2.7,2.6Zm12.8,-20c-1.9,0,-3,-1.1,-3,-2.6c0,-1.5,1.1,-3.1,3,-3.1c1.5,0,2.6,1.6,2.6,3.1c0,1.5,-1.1,2.6,-2.6,2.6Z" class="g1_8"/>
<path d="M908.9,374.1v93.8M1022.7,246.7v93.8" class="g6_8"/>
<path fill-rule="evenodd" d="M679.3,80.7L649.9,54.8l-1.6,2l27.1,23.9h3.9Z" class="g7_8"/>
<path fill-rule="evenodd" d="M695.6,80.7L641,32.6l-1.7,1.9l52.3,46.2h4Z" class="g8_8"/>
<path fill-rule="evenodd" d="M713.5,80.7L674.3,46.2L672.7,48L710,80.7h3.5Z" class="g9_8"/>
<path fill-rule="evenodd" d="M753.1,149.2l56,49.2l1.8,-2L757.2,149.2h-4.1Z" class="g7_8"/>
<path fill-rule="evenodd" d="M769.6,149.2l30.6,27l1.7,-2l-28.4,-25h-3.9Z" class="g8_8"/>
<path fill-rule="evenodd" d="M783.2,149.2l19.2,16.9l1.5,-1.7L786.7,149.2h-3.5Z" class="g9_8"/>
</svg>