<?xml version="1.0" encoding="UTF-8" standalone="no"?>
<!DOCTYPE svg PUBLIC "-//W3C//DTD SVG 1.1//EN"
"http://www.w3.org/Graphics/SVG/1.1/DTD/svg11.dtd">
<svg viewBox="0 0 1466 825" version="1.1" xmlns="http://www.w3.org/2000/svg" xmlns:xlink="http://www.w3.org/1999/xlink">
<defs>
<clipPath id="c0_7"><path d="M0,825V0H1466.7V825Z"/></clipPath>
<clipPath id="c1_7"><path d="M852.1,825V0h614.6V825Z"/></clipPath>
<style type="text/css"><![CDATA[
.g0_7{
fill: #FFFFFF;
}
.g1_7{
fill: #0A91A0;
}
.g2_7{
fill: #727376;
}
.g3_7{
fill: #D7D7D7;
fill-opacity: 0.54902005;
}
.g4_7{
fill: #0A91A0;
fill-opacity: 0.54902005;
}
.g5_7{
fill: #868686;
fill-opacity: 0.54902005;
}
]]></style>
</defs>
<path clip-path="url(#c0_7)" fill-rule="evenodd" d="M0,825H1466.7V0H0V825Z" class="g0_7"/>
<path fill-rule="evenodd" d="M1356.3,771.1l-29,-.1l-5.6,10.7l12,.2l-11.4,19.9c-1.4,2.2,-.9,1.9,.4,4.1c1.4,2.5,3.6,5.9,4.6,8.3c1.4,-1.1,12.2,-20.6,14.2,-23.9c1.4,-2.5,3.6,-5.8,4.7,-8.3h16.4L1375,760.3h-12.5c-1.7,3.3,-4.2,7.9,-6.2,10.8Z" class="g1_7"/>
<path fill-rule="evenodd" d="M1350.1,803.4l24.9,.2c-1.1,-3.2,-5.3,-8.6,-5.9,-10.9h-12.6c.3,-1.5,3,-5.3,3.9,-7.2l-9.2,-.1c-4.1,0,-2.9,-.3,-4.7,2.8c-2.4,4.3,-3.9,3.6,.6,10.3c1.1,1.6,1.8,3.1,3,4.9Z" class="g2_7"/>
<image clip-path="url(#c1_7)" preserveAspectRatio="none" x="852" y="0" width="616" height="825" xlink:href="img/1.jpg"/>
<path fill-rule="evenodd" d="M139.5,44l-18,-16l-1.1,1.3L137.1,44h2.4Z" class="g3_7"/>
<path fill-rule="evenodd" d="M149.8,44L116,14.3l-1.1,1.2L147.3,44h2.5Z" class="g4_7"/>
<path fill-rule="evenodd" d="M160.8,44L136.5,22.6l-1,1.1L158.6,44h2.2Z" class="g5_7"/>
<path fill-rule="evenodd" d="M185.4,86.5L220,116.8l1.1,-1.2L187.8,86.5h-2.4Z" class="g3_7"/>
<path fill-rule="evenodd" d="M195.6,86.5l19,16.7l1,-1.2L198,86.5h-2.4Z" class="g4_7"/>
<path fill-rule="evenodd" d="M204,86.5L215.9,97l1,-1.1L206.3,86.5H204Z" class="g5_7"/>
</svg>