<?xml version="1.0" encoding="UTF-8" standalone="no"?>
<!DOCTYPE svg PUBLIC "-//W3C//DTD SVG 1.1//EN"
"http://www.w3.org/Graphics/SVG/1.1/DTD/svg11.dtd">
<svg viewBox="0 0 1466 825" version="1.1" xmlns="http://www.w3.org/2000/svg" xmlns:xlink="http://www.w3.org/1999/xlink">
<defs>
<clipPath id="c0_2"><path d="M0,825V0H1466.7V825Z"/></clipPath>
<clipPath id="c1_2"><path d="M0,596V229H964.3V596Z"/></clipPath>
<style type="text/css"><![CDATA[
.g0_2{
fill: #FFFFFF;
}
.g1_2{
fill: #0A91A0;
}
.g2_2{
fill: #727376;
}
.g3_2{
fill: #D7D7D7;
fill-opacity: 0.54902005;
}
.g4_2{
fill: #0A91A0;
fill-opacity: 0.54902005;
}
.g5_2{
fill: #868686;
fill-opacity: 0.54902005;
}
]]></style>
</defs>
<path clip-path="url(#c0_2)" fill-rule="evenodd" d="M0,825H1466.7V0H0V825Z" class="g0_2"/>
<path fill-rule="evenodd" d="M1356.3,771.1l-29,-.1l-5.6,10.7l12,.2l-11.4,19.9c-1.4,2.2,-.9,1.9,.4,4.1c1.4,2.5,3.6,5.9,4.6,8.3c1.4,-1.1,12.2,-20.6,14.2,-23.9c1.4,-2.5,3.6,-5.8,4.7,-8.3h16.4L1375,760.3h-12.5c-1.7,3.3,-4.2,7.9,-6.2,10.8Z" class="g1_2"/>
<path fill-rule="evenodd" d="M1350.1,803.4l24.9,.2c-1.1,-3.2,-5.3,-8.6,-5.9,-10.9h-12.6c.3,-1.5,3,-5.3,3.9,-7.2l-9.2,-.1c-4.1,0,-2.9,-.3,-4.7,2.8c-2.4,4.3,-3.9,3.6,.6,10.3c1.1,1.6,1.8,3.1,3,4.9Z" class="g2_2"/>
<path fill-rule="evenodd" d="M679.3,80.7L649.9,54.8l-1.6,2l27.1,23.9h3.9Z" class="g3_2"/>
<path fill-rule="evenodd" d="M695.6,80.7L641,32.6l-1.7,1.9l52.3,46.2h4Z" class="g4_2"/>
<path fill-rule="evenodd" d="M713.5,80.7L674.3,46.2L672.7,48L710,80.7h3.5Z" class="g5_2"/>
<path fill-rule="evenodd" d="M753.1,149.2l56,49.2l1.8,-2L757.2,149.2h-4.1Z" class="g3_2"/>
<path fill-rule="evenodd" d="M769.6,149.2l30.6,27l1.7,-2l-28.4,-25h-3.9Z" class="g4_2"/>
<path fill-rule="evenodd" d="M783.2,149.2l19.2,16.9l1.5,-1.7L786.7,149.2h-3.5Z" class="g5_2"/>
<path fill-rule="evenodd" d="M964.3,596h502.4V229H964.3V596Z" class="g1_2"/>
<image clip-path="url(#c1_2)" preserveAspectRatio="none" x="0" y="229" width="964" height="367" xlink:href="img/1.jpg"/>
</svg>