<?xml version="1.0" encoding="UTF-8" standalone="no"?>
<!DOCTYPE svg PUBLIC "-//W3C//DTD SVG 1.1//EN"
"http://www.w3.org/Graphics/SVG/1.1/DTD/svg11.dtd">
<svg viewBox="0 0 1466 825" version="1.1" xmlns="http://www.w3.org/2000/svg" xmlns:xlink="http://www.w3.org/1999/xlink">
<defs>
<clipPath id="c0_1"><path d="M0,825V0H1466.7V825Z"/></clipPath>
<clipPath id="c1_1"><path d="M33,283.4V96.4H795.1v187Z"/></clipPath>
<clipPath id="c2_1"><path d="M82.5,274.3V209.7H800.6v64.6Z"/></clipPath>
<clipPath id="c3_1"><path d="M948.6,825L0,712.8V603.6L45.3,220.3L1459.4,387.6L1407.6,825Z"/></clipPath>
<style type="text/css"><![CDATA[
.g0_1{
fill: #FFFFFF;
}
.g1_1{
fill: #0A91A0;
}
.g2_1{
fill: #727376;
}
.g3_1{
fill: #D7D7D7;
fill-opacity: 0.54902005;
}
.g4_1{
fill: #0A91A0;
fill-opacity: 0.54902005;
}
.g5_1{
fill: #868686;
fill-opacity: 0.54902005;
}
]]></style>
</defs>
<path clip-path="url(#c0_1)" fill-rule="evenodd" d="M0,825H1466.7V0H0V825Z" class="g0_1"/>
<path fill-rule="evenodd" d="M1356.3,771.1l-29,-.1l-5.6,10.7l12,.2l-11.4,19.9c-1.4,2.2,-.9,1.9,.4,4.1c1.4,2.5,3.6,5.9,4.6,8.3c1.4,-1.1,12.2,-20.6,14.2,-23.9c1.4,-2.5,3.6,-5.8,4.7,-8.3h16.4L1375,760.3h-12.5c-1.7,3.3,-4.2,7.9,-6.2,10.8Z" class="g1_1"/>
<path fill-rule="evenodd" d="M1350.1,803.4l24.9,.2c-1.1,-3.2,-5.3,-8.6,-5.9,-10.9h-12.6c.3,-1.5,3,-5.3,3.9,-7.2l-9.2,-.1c-4.1,0,-2.9,-.3,-4.7,2.8c-2.4,4.3,-3.9,3.6,.6,10.3c1.1,1.6,1.8,3.1,3,4.9Z" class="g2_1"/>
<path fill-rule="evenodd" d="M197.3,121.2L136.1,67.3l-3.4,4.1l56.5,49.8h8.1Z" class="g3_1"/>
<path fill-rule="evenodd" d="M231.5,121.2L117.5,21.3L114,25.2l109.3,96h8.2Z" class="g4_1"/>
<path fill-rule="evenodd" d="M268.8,121.2L187,49.3L183.5,53l77.9,68.2h7.4Z" class="g5_1"/>
<path fill-rule="evenodd" d="M351.4,264.2L467.8,366.3l3.7,-4.1l-111.7,-98h-8.4Z" class="g3_1"/>
<path fill-rule="evenodd" d="M385.7,264.2l63.5,56.1l3.5,-4.1l-58.9,-52h-8.1Z" class="g4_1"/>
<path fill-rule="evenodd" d="M414.1,264.2l39.7,35.2l3.3,-3.7L421.5,264.2h-7.4Z" class="g5_1"/>
<image clip-path="url(#c1_1)" preserveAspectRatio="none" x="33" y="96" width="762" height="187" xlink:href="img/1.png"/>
<image clip-path="url(#c2_1)" preserveAspectRatio="none" x="83" y="210" width="718" height="64" xlink:href="img/2.png"/>
<image clip-path="url(#c3_1)" preserveAspectRatio="none" x="-12" y="220" width="1471" height="659" xlink:href="img/3.png"/>
</svg>