<?xml version="1.0" encoding="UTF-8" standalone="no"?>
<!DOCTYPE svg PUBLIC "-//W3C//DTD SVG 1.1//EN"
"http://www.w3.org/Graphics/SVG/1.1/DTD/svg11.dtd">
<svg viewBox="0 0 1466 825" version="1.1" xmlns="http://www.w3.org/2000/svg" xmlns:xlink="http://www.w3.org/1999/xlink">
<defs>
<clipPath id="c0_5"><path d="M0,825V0H1466.7V825Z"/></clipPath>
<clipPath id="c1_5"><path d="M869.4,326V242.9h61.9V326Z"/></clipPath>
<style type="text/css"><![CDATA[
.g0_5{
fill: #FFFFFF;
}
.g1_5{
fill: #0A91A0;
}
.g2_5{
fill: #727376;
}
.g3_5{
fill: none;
stroke: #FFFFFF;
stroke-width: 6.875;
stroke-linecap: butt;
stroke-linejoin: miter;
}
.g4_5{
fill: #086D78;
}
.g5_5{
fill: #7E7E7E;
}
.g6_5{
fill: #D7D7D7;
fill-opacity: 0.54902005;
}
.g7_5{
fill: #0A91A0;
fill-opacity: 0.54902005;
}
.g8_5{
fill: #868686;
fill-opacity: 0.54902005;
}
]]></style>
</defs>
<path clip-path="url(#c0_5)" fill-rule="evenodd" d="M0,825H1466.7V0H0V825Z" class="g0_5"/>
<path fill-rule="evenodd" d="M1356.3,771.1l-29,-.1l-5.6,10.7l12,.2l-11.4,19.9c-1.4,2.2,-.9,1.9,.4,4.1c1.4,2.5,3.6,5.9,4.6,8.3c1.4,-1.1,12.2,-20.6,14.2,-23.9c1.4,-2.5,3.6,-5.8,4.7,-8.3h16.4L1375,760.3h-12.5c-1.7,3.3,-4.2,7.9,-6.2,10.8Z" class="g1_5"/>
<path fill-rule="evenodd" d="M1350.1,803.4l24.9,.2c-1.1,-3.2,-5.3,-8.6,-5.9,-10.9h-12.6c.3,-1.5,3,-5.3,3.9,-7.2l-9.2,-.1c-4.1,0,-2.9,-.3,-4.7,2.8c-2.4,4.3,-3.9,3.6,.6,10.3c1.1,1.6,1.8,3.1,3,4.9Z" class="g2_5"/>
<path fill-rule="evenodd" d="M415.1,697.2H719.9V284.3H415.1V697.2Z" class="g1_5"/>
<path d="M415.1,697.2H719.9V284.3H415.1V697.2Z" class="g3_5"/>
<path fill-rule="evenodd" d="M502.9,284.4c0,-35.6,28.9,-64.6,64.6,-64.6c35.7,0,64.6,29,64.6,64.6c0,35.7,-28.9,64.7,-64.6,64.7c-35.7,0,-64.6,-29,-64.6,-64.7Z" class="g1_5"/>
<path d="M502.9,284.4c0,-35.6,28.9,-64.6,64.6,-64.6c35.7,0,64.6,29,64.6,64.6c0,35.7,-28.9,64.7,-64.6,64.7c-35.7,0,-64.6,-29,-64.6,-64.7Z" class="g3_5"/>
<path fill-rule="evenodd" d="M555.6,312.9l-11.5,-8.5c-.3,-.3,-.9,-.3,-1.2,0c-.3,.3,-.6,.5,-.6,1.1v4.2h-.6c-2.9,0,-5.3,-2.1,-5.6,-5c0,-1.8,.6,-3.9,2.4,-4.8c.6,-.3,.6,-.9,.6,-1.4c-.3,-.6,-.6,-.9,-1.2,-.6c-5,.8,-8.9,5.3,-8.6,10.6c.3,5.3,5,9.7,10.6,9.7h2.7v4.2c0,.6,.3,.8,.6,1.1c.3,.3,.9,0,1.2,0l11.5,-8.2c.3,-.3,.6,-.6,.6,-.9c-.3,-.9,-.6,-1.2,-.9,-1.5ZM544.4,320v-3c0,-.5,-.6,-1.1,-1.2,-1.1h-3.8c-4.5,0,-8.3,-3.6,-8.3,-7.7c0,-2.4,.9,-4.7,2.9,-6.2c-.3,.9,-.6,2.1,-.3,2.9c.3,4.2,3.9,7.1,8,7.1h1.8c.6,0,1.2,-.6,1.2,-1.1v-3l8.2,5.9l-8.5,6.2Z" class="g0_5"/>
<path fill-rule="evenodd" d="M606.6,308.2l-8.2,-11.5c-.6,-.6,-1.5,-.6,-1.8,0l-8.3,11.5c-.3,.3,-.3,.9,0,1.2c.3,.3,.6,.6,1.2,.6h4.1c0,3.8,-2.3,5.9,-5,6.2c-1.7,0,-3.8,-.9,-4.7,-2.4c-.3,-.5,-.9,-.5,-1.5,-.5c-.6,.2,-.9,.5,-.6,1.1c.9,5.1,5.1,8.6,10.1,8.6c0,0,.3,0,.3,0c5.3,-.3,9.7,-5,9.7,-10.6v-2.7h4.2c.5,0,.8,-.3,1.1,-.6c-.3,0,-.3,-.6,-.6,-.9Zm-6.5,-.6c-.5,0,-1.1,.6,-1.1,1.2v3.9c0,4.4,-3.6,8.2,-7.7,8.2H591c-2.4,0,-4.7,-1.2,-5.9,-2.9c.9,.3,2.1,.6,2.9,.3c4.2,-.3,7.1,-3.9,7.1,-8v-1.8c0,-.6,-.6,-1.2,-1.1,-1.2h-3l5.9,-8.2l5.9,8.2l-2.7,.3Z" class="g0_5"/>
<path fill-rule="evenodd" d="M580.1,256.3l11.7,7.9c.9,.6,2.1,-.3,1.8,-1.2v-3.8h.6c2.9,0,5.3,2.1,5.6,4.7c.3,2.1,-.9,3.9,-2.4,5.1c-.6,.2,-.6,.8,-.3,1.4c.3,.6,.6,.9,1.2,.6c5,-.9,8.8,-5.6,8.2,-10.6c-.3,-5.3,-5,-9.5,-10.6,-9.5H593l-.3,-4.1c0,-.6,-.3,-.9,-.6,-1.2c-.3,-.3,-.8,0,-1.1,0l-10.9,8.6c-.3,.3,-.6,.6,-.6,.9c0,.6,0,.9,.6,1.2Zm10.6,-7.4v2.9c0,.6,.6,1.2,1.1,1.2h4.1c4.4,0,8,3.3,8.3,7.4c0,2.3,-.9,4.7,-2.7,6.5c.3,-.9,.6,-2.1,.3,-3c-.3,-3.8,-3.8,-7.1,-7.9,-7.1h-1.8c-.3,0,-.6,0,-.8,.3c-.3,.3,-.3,.6,-.3,.9v3l-8.6,-5.9l8.3,-6.2Z" class="g0_5"/>
<path fill-rule="evenodd" d="M537.6,272.2c0,.3,.5,.6,.9,.6c.2,0,.5,-.3,.8,-.6l8,-11.8c.3,-.3,.3,-.9,0,-1.2c-.3,-.3,-.6,-.6,-1.2,-.6H542v-.3c0,-2.9,2.1,-5.6,4.7,-5.9c1.8,-.3,3.8,.6,4.7,2.4c.3,.2,.6,.6,.9,.6c.9,0,1.5,-.9,1.2,-1.8c-.3,-5,-5,-8.3,-10,-8.3c-5.4,.3,-9.5,5.3,-9.5,10.9v2.7h-4.1c-.6,0,-.9,.3,-1.2,.6c-.3,.3,0,.9,0,1.2l8.9,11.5Zm-2.4,-10.9c.6,0,1.2,-.6,1.2,-1.2v-3.9c0,-4.4,3.2,-8.2,7.4,-8.5c2.3,0,4.7,.9,6.5,2.6c-.9,-.3,-1.8,-.3,-3,-.3c-4.1,.3,-7.1,4.2,-7.1,8.3v1.8c0,.6,.6,1.2,1.2,1.2h2.9l-5.8,8.5l-6.3,-8.3h3Z" class="g0_5"/>
<path fill-rule="evenodd" d="M584.1,306.1c.3,0,.6,0,.9,-.3l4.1,-4.1c.6,-.6,.6,-1.2,0,-1.5l-3.2,-4.4c1.1,-2.1,2,-4.1,2.6,-6.5l5.3,-.6c.6,0,1.2,-.6,1.2,-1.2v-5.9c0,-.5,-.6,-1.1,-1.2,-1.1l-5.3,-.6c-.6,-2.4,-1.5,-4.4,-2.6,-6.5l3.2,-4.1c.3,-.6,.3,-1.2,0,-1.8L585,263.1c-.6,-.6,-1.2,-.6,-1.5,0l-4.4,3.3c-2.1,-1.2,-4.1,-2.1,-6.5,-2.7l-.6,-5.3c0,-.6,-.5,-1.2,-1.1,-1.2H565c-.6,0,-1.2,.6,-1.2,1.2l-.6,5.3c-2.4,.6,-4.4,1.5,-6.5,2.7l-4.4,-3.3c-.6,-.3,-1.2,-.3,-1.5,0l-4.1,4.1c-.6,.6,-.6,1.2,0,1.5l3.3,4.4c-1.2,2.1,-2.1,4.1,-2.7,6.5l-5.3,.6c-.6,0,-1.2,.6,-1.2,1.2v5.8c0,.6,.6,1.2,1.2,1.2l5.3,.6c.6,2.4,1.5,4.4,2.7,6.5l-3.3,4.4c-.3,.6,-.3,1.2,0,1.5l4.1,4.1c.6,.6,1.2,.6,1.5,0l4.4,-3.2c2.1,1.1,4.1,2,6.5,2.6l.6,5.3c0,.6,.6,1.2,1.2,1.2h5.9c.6,0,1.1,-.6,1.1,-1.2l.6,-5.3c2.4,-.6,4.4,-1.5,6.5,-2.6l4.1,3.2c.3,.6,.6,.6,.9,.6Zm-5.6,-5.9c-2.1,1.5,-4.7,2.3,-7,2.9c-.6,0,-.9,.6,-.9,1.2l-.6,5.3h-3.9l-.8,-5.6c0,-.6,-.6,-.9,-.9,-1.2c-2.7,-.5,-5,-1.4,-7.1,-2.9c-.6,-.3,-.9,-.3,-1.4,0l-4.2,3.2l-2.6,-2.6l3.2,-4.1c.3,-.6,.3,-1.2,0,-1.5c-1.5,-2.1,-2.3,-4.4,-2.9,-7.1c0,-.6,-.6,-.9,-1.2,-.9l-5.3,-.5v-3.9l5.3,-.5c.6,0,.9,-.6,1.2,-.9c.6,-2.7,1.4,-5,2.9,-7.1c.3,-.6,.3,-.9,0,-1.5l-3.2,-4.1l2.6,-2.6l4.2,3.2c.2,.3,1.1,.3,1.4,0c2.1,-1.5,4.4,-2.4,7.1,-3c.6,0,.9,-.5,.9,-1.1l.6,-5.3h3.8l.6,5.3c0,.6,.6,.9,.9,1.1c2.6,.6,5,1.5,7,3c.6,.3,.9,.3,1.5,0l4.1,-3.2l2.7,2.6l-3.3,4.1c-.3,.3,-.3,.9,0,1.5c1.5,2.1,2.4,4.7,3,7.1c0,.5,.6,.9,1.1,.9l5.3,.5v3.9l-5.3,.5c-.5,0,-.8,.6,-1.1,.9c-.6,2.7,-1.5,5,-3,7.1c-.3,.6,-.3,.9,0,1.5l3.3,4.1l-2.7,2.6L580,299.9c-.6,0,-1.2,0,-1.5,.3Z" class="g0_5"/>
<path fill-rule="evenodd" d="M567.7,271.3c-7.1,0,-12.9,5.9,-12.9,13c0,7.1,5.8,13,12.9,13c7,0,12.9,-5.9,12.9,-13c0,-7.1,-5.6,-13,-12.9,-13Zm0,23.7c-5.9,0,-10.6,-4.8,-10.6,-10.7c0,-5.9,4.7,-10.6,10.6,-10.6c5.8,0,10.5,4.7,10.5,10.6c0,5.9,-4.7,10.7,-10.5,10.7Z" class="g0_5"/>
<path fill-rule="evenodd" d="M82.1,697.2H387.2V284.3H82.1V697.2Z" class="g4_5"/>
<path d="M82.1,697.2H387.2V284.3H82.1V697.2Z" class="g3_5"/>
<path fill-rule="evenodd" d="M169.9,284.4c0,-35.6,29,-64.6,64.8,-64.6c35.7,0,64.7,29,64.7,64.6c0,35.7,-29,64.7,-64.7,64.7c-35.8,0,-64.8,-29,-64.8,-64.7Z" class="g4_5"/>
<path d="M169.9,284.4c0,-35.6,29,-64.6,64.8,-64.6c35.7,0,64.7,29,64.7,64.6c0,35.7,-29,64.7,-64.7,64.7c-35.8,0,-64.8,-29,-64.8,-64.7Z" class="g3_5"/>
<path fill-rule="evenodd" d="M747.8,697.2h305.1V284.3H747.8V697.2Z" class="g2_5"/>
<path d="M747.8,697.2h305.1V284.3H747.8V697.2Z" class="g3_5"/>
<path fill-rule="evenodd" d="M835.6,284.4c0,-35.6,29,-64.6,64.8,-64.6c35.7,0,64.7,29,64.7,64.6c0,35.7,-29,64.7,-64.7,64.7c-35.8,0,-64.8,-29,-64.8,-64.7Z" class="g2_5"/>
<path d="M835.6,284.4c0,-35.6,29,-64.6,64.8,-64.6c35.7,0,64.7,29,64.7,64.6c0,35.7,-29,64.7,-64.7,64.7c-35.8,0,-64.8,-29,-64.8,-64.7Z" class="g3_5"/>
<path fill-rule="evenodd" d="M1080.8,697.2h304.8V284.3H1080.8V697.2Z" class="g5_5"/>
<path d="M1080.8,697.2h304.8V284.3H1080.8V697.2Z" class="g3_5"/>
<path fill-rule="evenodd" d="M1168.6,284.4c0,-35.6,28.9,-64.6,64.6,-64.6c35.7,0,64.6,29,64.6,64.6c0,35.7,-28.9,64.7,-64.6,64.7c-35.7,0,-64.6,-29,-64.6,-64.7Z" class="g5_5"/>
<path d="M1168.6,284.4c0,-35.6,28.9,-64.6,64.6,-64.6c35.7,0,64.6,29,64.6,64.6c0,35.7,-28.9,64.7,-64.6,64.7c-35.7,0,-64.6,-29,-64.6,-64.7Z" class="g3_5"/>
<path fill-rule="evenodd" d="M1201.3,269.6h1.7v-4.5h-1.7v4.5Z" class="g0_5"/>
<path fill-rule="evenodd" d="M1201.3,295.3h1.7v-4.5h-1.7v4.5Z" class="g0_5"/>
<path fill-rule="evenodd" d="M1201.3,303.8h1.7v-4.4h-1.7v4.4Z" class="g0_5"/>
<path fill-rule="evenodd" d="M1201.3,278.1h1.7v-4.4h-1.7v4.4Z" class="g0_5"/>
<path fill-rule="evenodd" d="M1201.3,286.7h1.7v-4.4h-1.7v4.4Z" class="g0_5"/>
<path fill-rule="evenodd" d="M1214,316.4h4.4v-1.7H1214v1.7Z" class="g0_5"/>
<path fill-rule="evenodd" d="M1239.9,316.4h4.4v-1.7h-4.4v1.7Z" class="g0_5"/>
<path fill-rule="evenodd" d="M1248.5,316.4h4.4v-1.7h-4.4v1.7Z" class="g0_5"/>
<path fill-rule="evenodd" d="M1222.5,316.4h4.5v-1.7h-4.5v1.7Z" class="g0_5"/>
<path fill-rule="evenodd" d="M1231.3,316.4h4.5v-1.7h-4.5v1.7Z" class="g0_5"/>
<path fill-rule="evenodd" d="M1263.8,269.6h1.8v-4.5h-1.8v4.5Z" class="g0_5"/>
<path fill-rule="evenodd" d="M1263.8,286.7h1.8v-4.4h-1.8v4.4Z" class="g0_5"/>
<path fill-rule="evenodd" d="M1263.8,278.1h1.8v-4.4h-1.8v4.4Z" class="g0_5"/>
<path fill-rule="evenodd" d="M1263.8,295.3h1.8v-4.5h-1.8v4.5Z" class="g0_5"/>
<path fill-rule="evenodd" d="M1263.8,303.8h1.8v-4.4h-1.8v4.4Z" class="g0_5"/>
<path fill-rule="evenodd" d="M1231.3,254.2h4.5v-1.8h-4.5v1.8Z" class="g0_5"/>
<path fill-rule="evenodd" d="M1222.5,254.2h4.5v-1.8h-4.5v1.8Z" class="g0_5"/>
<path fill-rule="evenodd" d="M1239.9,254.2h4.4v-1.8h-4.4v1.8Z" class="g0_5"/>
<path fill-rule="evenodd" d="M1248.5,254.2h4.4v-1.8h-4.4v1.8Z" class="g0_5"/>
<path fill-rule="evenodd" d="M1214,254.2h4.4v-1.8H1214v1.8Z" class="g0_5"/>
<path fill-rule="evenodd" d="M1263.8,259.6v1.5h1.8v-1.8c2.7,-.6,4.4,-3,4.4,-5.6c0,-3.3,-2.6,-5.6,-5.6,-5.6c-2.7,0,-5,1.7,-5.6,4.4h-1.5v1.8h1.5c-.3,2.6,2.1,5,5,5.3Zm.3,-9.8c2.4,0,4.2,1.8,4.2,4.2c0,2,-1.5,3.8,-3.6,4.1c-2.7,.3,-4.7,-1.8,-4.4,-4.4c0,-2.4,1.7,-3.9,3.8,-3.9Z" class="g0_5"/>
<path fill-rule="evenodd" d="M1201.3,259.3v1.5h1.8v-1.2c2.9,-.3,5,-2.4,5.3,-5.3h1.5v-1.8h-1.5c-.6,-2.7,-2.9,-4.4,-5.6,-4.4c-3.3,0,-5.6,2.6,-5.6,5.6c0,2.6,1.8,5,4.1,5.6Zm1.5,-9.5c2.1,0,3.8,1.5,4.1,3.6c.3,2.6,-1.7,4.7,-4.4,4.4c-2.1,-.3,-3.5,-1.8,-3.5,-4.1c-.4,-2.1,1.4,-3.9,3.8,-3.9Z" class="g0_5"/>
<path fill-rule="evenodd" d="M1265.2,309.3v-1.5h-1.7v1.5c-3,.3,-5,2.4,-5.3,5.3h-1.5v1.8h1.5c.6,2.7,2.9,4.4,5.6,4.4c3.2,0,5.5,-2.6,5.5,-5.6c.3,-2.9,-1.4,-5,-4.1,-5.9Zm-1.1,9.8c-2.1,0,-3.9,-1.5,-4.2,-3.6c-.2,-2.6,1.8,-4.7,4.4,-4.4c2.1,.3,3.6,1.8,3.6,4.1c.3,2.1,-1.8,3.9,-3.8,3.9Z" class="g0_5"/>
<path fill-rule="evenodd" d="M1203,309.3v-1.5h-1.8v1.5c-2.6,.6,-4.4,3,-4.4,5.6c0,3.3,2.7,5.6,5.6,5.6c2.7,0,5,-1.7,5.6,-4.4h1.5v-1.8H1208c0,-2.6,-2,-4.7,-5,-5Zm-.3,9.8c-2.3,0,-4.1,-1.8,-4.1,-4.2c0,-2,1.5,-3.8,3.5,-4.1c2.7,-.3,4.8,1.8,4.5,4.4c0,2.4,-1.8,3.9,-3.9,3.9Z" class="g0_5"/>
<path fill-rule="evenodd" d="M1253.8,278.4l-1.2,1.2l4.1,4.1h-6.2c-.3,-8.8,-7.4,-15.9,-16.2,-16.2v-6.4l4.1,4.1l1.2,-1.2l-6.2,-5.9l-5.9,5.9l1.2,1.2l4.1,-4.1v6.1c-8.8,.3,-15.9,7.4,-16.2,16.2h-6.2l4.1,-4.1l-1.2,-1.2l-5.9,6.2l5.9,5.9l1.2,-1.2l-4.1,-4.1h6.2c.3,8.8,7.4,15.9,16.2,16.2v6.2l-4.1,-4.2l-1.2,1.2l5.9,5.9l5.9,-5.9l-1.2,-1.2l-4.1,4.2v-5.9c8.8,-.6,15.9,-7.4,16.2,-16.2h6.2l-4.1,4.1l1.2,1.2l5.9,-5.9l-5.6,-6.2Zm-5.1,5h-14.4V269c7.7,.3,14.2,6.8,14.4,14.4ZM1232.5,269v14.4h-14.7c.6,-7.6,6.7,-14.1,14.7,-14.4Zm-14.7,16.2h14.4v14.4c-7.7,-.3,-13.8,-6.5,-14.4,-14.4Zm16.5,14.7V285.2h14.4c-.2,7.9,-6.7,14.1,-14.4,14.7Z" class="g0_5"/>
<path fill-rule="evenodd" d="M1223.7,275.2V281h5.9v-5.8h-5.9Zm4.1,4.1h-2.3v-2.4h2.3v2.4Z" class="g0_5"/>
<path fill-rule="evenodd" d="M1242.8,280.8v-6h-5.9v6h5.9Zm-3.8,-4.2h2.3V279H1239v-2.4Z" class="g0_5"/>
<path fill-rule="evenodd" d="M1223.7,287.9v5.9h5.9v-5.9h-5.9Zm4.1,4.1h-2.3v-2.3h2.3V292Z" class="g0_5"/>
<path fill-rule="evenodd" d="M1242.8,293.8v-5.9h-5.9v5.9h5.9Zm-3.8,-4.1h2.3V292H1239v-2.3Z" class="g0_5"/>
<path fill-rule="evenodd" d="M679.3,80.7L649.9,54.8l-1.6,2l27.1,23.9h3.9Z" class="g6_5"/>
<path fill-rule="evenodd" d="M695.6,80.7L641,32.6l-1.7,1.9l52.3,46.2h4Z" class="g7_5"/>
<path fill-rule="evenodd" d="M713.5,80.7L674.3,46.2L672.7,48L710,80.7h3.5Z" class="g8_5"/>
<path fill-rule="evenodd" d="M753.1,149.2l56,49.2l1.8,-2L757.2,149.2h-4.1Z" class="g6_5"/>
<path fill-rule="evenodd" d="M769.6,149.2l30.6,27l1.7,-2l-28.4,-25h-3.9Z" class="g7_5"/>
<path fill-rule="evenodd" d="M783.2,149.2l19.2,16.9l1.5,-1.7L786.7,149.2h-3.5Z" class="g8_5"/>
<path fill-rule="evenodd" d="M216.3,260.2q-2.4,-3.5,-2.4,-3.5c-1.2,-1.1,-2.4,-1.1,-3.5,0c-1.2,1.2,-1.2,2.3,0,3.5q3.5,3.4,3.5,3.4c0,0,2.4,0,2.4,0c1.1,-1.1,1.1,-2.3,0,-3.4Z" class="g0_5"/>
<path fill-rule="evenodd" d="M204.6,279.8q-4.6,0,-4.6,0c-1.2,0,-2.4,1.2,-2.4,2.3c0,1.2,1.2,2.4,2.4,2.4q4.6,0,4.6,0c1.2,0,2.4,-1.2,2.4,-2.4c0,-1.1,-1.2,-2.3,-2.4,-2.3Z" class="g0_5"/>
<path fill-rule="evenodd" d="M269.4,284.5q-4.6,0,-4.6,0c-1.1,0,-2.3,1.1,-2.3,2.2c0,1.1,1.2,2.2,2.3,2.2q4.6,0,4.6,0c1.2,0,2.3,-1.1,2.3,-2.2c0,-1.1,-1.1,-2.2,-2.3,-2.2Z" class="g0_5"/>
<path fill-rule="evenodd" d="M262.6,260c-1.1,-1.1,-2.3,-1.1,-3.5,0q-3.5,3.6,-3.5,3.6c0,0,0,2.3,0,2.3c1.1,1.2,2.3,1.2,3.5,0q3.5,-2.3,3.5,-2.3c1.2,-1.2,1.2,-2.4,0,-3.6Z" class="g0_5"/>
<path fill-rule="evenodd" d="M237.1,256.7q1.1,0,1.1,-1.2q1.1,0,1.1,-1.2q0,-4.6,0,-4.6c0,-1.2,-1.1,-2.4,-2.2,-2.4c-1.1,0,-2.2,1.2,-2.2,1.2q0,1.2,0,1.2q0,4.6,0,4.6c0,1.2,1.1,2.4,2.2,2.4Z" class="g0_5"/>
<path fill-rule="evenodd" d="M234.7,265.8c-10.5,0,-18.6,8.1,-18.6,18.5c0,7,3.5,12.7,9.3,16.2q0,6.9,0,6.9q18.5,0,18.5,0q0,-6.9,0,-6.9c5.8,-3.5,9.3,-9.2,9.3,-16.2c0,-10.4,-8.1,-18.5,-18.5,-18.5Zm6.9,30.1q-2.3,1.1,-2.3,1.1q0,3.5,0,3.5q0,2.3,0,2.3q-9.3,0,-9.3,0q0,-2.3,0,-2.3q0,-3.5,0,-3.5q-2.3,-1.1,-2.3,-1.1c-4.6,-2.3,-6.9,-7,-6.9,-11.6c0,-8.1,5.8,-13.8,13.9,-13.8c8.1,0,13.9,5.7,13.9,13.8c0,4.6,-2.4,9.3,-7,11.6Z" class="g0_5"/>
<path fill-rule="evenodd" d="M225.5,316.9q4.6,0,4.6,0c0,2.3,2.3,4.7,4.7,4.7c2.3,0,4.6,-2.4,4.6,-4.7q4.6,0,4.6,0q0,-4.7,0,-4.7q-18.5,0,-18.5,0v4.7Z" class="g0_5"/>
<image clip-path="url(#c1_5)" preserveAspectRatio="none" x="869" y="243" width="62" height="83" xlink:href="img/1.png"/>
</svg>