<?xml version="1.0" encoding="UTF-8" standalone="no"?>
<!DOCTYPE svg PUBLIC "-//W3C//DTD SVG 1.1//EN"
"http://www.w3.org/Graphics/SVG/1.1/DTD/svg11.dtd">
<svg viewBox="0 0 1466 825" version="1.1" xmlns="http://www.w3.org/2000/svg" xmlns:xlink="http://www.w3.org/1999/xlink">
<defs>
<clipPath id="c0_9"><path d="M0,825V0H1466.7V825Z"/></clipPath>
<clipPath id="c1_9"><path d="M791.9,304.4C724.6,304.4,670,249.8,670,182.5C670,115.2,724.6,60.6,791.9,60.6c67.3,0,121.9,54.6,121.9,121.9c0,67.3,-54.6,121.9,-121.9,121.9Z"/></clipPath>
<clipPath id="c2_9"><path d="M796.7,610.2c-67.4,0,-121.9,-54.6,-121.9,-121.9c0,-67.3,54.5,-121.9,121.9,-121.9c67.3,0,121.9,54.6,121.9,121.9c0,67.3,-54.6,121.9,-121.9,121.9Z"/></clipPath>
<clipPath id="c3_9"><path d="M51.3,466.6V46.2H370.2V466.6Z"/></clipPath>
<clipPath id="c4_9"><path d="M.1,825.1V.1H1466.8v825H.1Z"/></clipPath>
<clipPath id="c5_9"><path d="M368.7,792.9V435H746.2V792.9Z"/></clipPath>
<style type="text/css"><![CDATA[
.g0_9{
fill: #FFFFFF;
}
.g1_9{
fill: #0A91A0;
}
.g2_9{
fill: #727376;
}
.g3_9{
fill: #D7D7D7;
fill-opacity: 0.54902005;
}
.g4_9{
fill: #0A91A0;
fill-opacity: 0.54902005;
}
.g5_9{
fill: #868686;
fill-opacity: 0.54902005;
}
.g6_9{
fill: #FFFFFF;
fill-opacity: 0.32941005;
}
.g7_9{
fill: none;
stroke: #0A91A0;
stroke-width: 2.291;
stroke-linecap: butt;
stroke-linejoin: miter;
}
.g8_9{
fill: none;
stroke: #0A91A0;
stroke-width: 1.145;
stroke-linecap: butt;
stroke-linejoin: round;
}
]]></style>
</defs>
<path clip-path="url(#c0_9)" fill-rule="evenodd" d="M0,825H1466.7V0H0V825Z" class="g0_9"/>
<path fill-rule="evenodd" d="M1356.3,771.1l-29,-.1l-5.6,10.7l12,.2l-11.4,19.9c-1.4,2.2,-.9,1.9,.4,4.1c1.4,2.5,3.6,5.9,4.6,8.3c1.4,-1.1,12.2,-20.6,14.2,-23.9c1.4,-2.5,3.6,-5.8,4.7,-8.3h16.4L1375,760.3h-12.5c-1.7,3.3,-4.2,7.9,-6.2,10.8Z" class="g1_9"/>
<path fill-rule="evenodd" d="M1350.1,803.4l24.9,.2c-1.1,-3.2,-5.3,-8.6,-5.9,-10.9h-12.6c.3,-1.5,3,-5.3,3.9,-7.2l-9.2,-.1c-4.1,0,-2.9,-.3,-4.7,2.8c-2.4,4.3,-3.9,3.6,.6,10.3c1.1,1.6,1.8,3.1,3,4.9Z" class="g2_9"/>
<path fill-rule="evenodd" d="M1177.2,80.7L1147.8,54.8l-1.6,2l27.1,23.9h3.9Z" class="g3_9"/>
<path fill-rule="evenodd" d="M1193.7,80.7L1139.1,32.6l-1.7,1.9l52.3,46.2h4Z" class="g4_9"/>
<path fill-rule="evenodd" d="M1211.5,80.7L1172.3,46.2l-1.7,1.8l37.3,32.7h3.6Z" class="g5_9"/>
<path fill-rule="evenodd" d="M1251.3,149.2l55.7,49.2l1.8,-2l-53.5,-47.2h-4Z" class="g3_9"/>
<path fill-rule="evenodd" d="M1267.7,149.2l30.5,27l1.6,-2l-28.2,-25h-3.9Z" class="g4_9"/>
<path fill-rule="evenodd" d="M1281.3,149.2l19,16.9l1.6,-1.7l-17.1,-15.2h-3.5Z" class="g5_9"/>
<path fill-rule="evenodd" d="M1017,541.5c.8,0,1.6,.4,2.3,.8q83.3,-132.6,83.3,-132.6c-1.6,-1.2,-2.4,-2.8,-2.4,-4.4c0,-2.8,2.4,-5.1,5.2,-5.1c2.8,0,5.2,2.3,5.2,5.1c0,2,-1.2,3.6,-2.4,4.4q10.7,20.6,10.7,20.6q63.4,-71.9,63.4,-71.9q.4,-.4,.4,-.4q60.7,76.7,60.7,76.7c.8,-.4,1.6,-.8,2.8,-.8c1.6,0,3.2,1.2,4.3,2.4q192.4,-77.9,192.4,-77.9q.4,0,.4,0q0,.4,0,.4q-48.4,50.5,-48.4,50.5c.8,.8,1.2,2,1.2,3.2c0,2.3,-1.6,3.9,-3.6,4.7Q1429,550.3,1429,550.3c0,0,.4,-.4,.8,-.4c2.8,0,5.1,2.4,5.1,5.1c0,2.8,-2.3,5.2,-5.1,5.2c-2.8,0,-5.2,-2.4,-5.2,-5.2c0,-.8,.4,-1.5,.8,-2.3Q1250.5,441.5,1250.5,441.5c-.3,.3,-.3,.7,-.7,1.1q3.5,4.4,3.5,4.4q95.2,113.6,95.2,113.6c.4,-.4,1.2,-.4,2,-.4c2.8,0,5.1,2,5.1,4.8c0,.8,-.4,1.6,-.4,2.4q94.4,82.6,94.4,82.6q-.4,0,-.4,0q0,.4,0,.4q-93.6,7.9,-93.6,7.9c0,0,0,.4,0,.4c0,2.8,-2.3,5.2,-5.1,5.2c-2.4,0,-4,-1.6,-4.8,-4q-217.3,64.7,-217.3,64.7q0,.4,0,.8c0,2.8,-2.4,5.2,-5.1,5.2c-2.8,0,-4.8,-2.4,-4.8,-5.2c0,-2.8,2,-5.1,4.8,-5.1c1.9,0,3.5,1.1,4.7,2.7Q1345.7,566.6,1345.7,566.6q-111,55.6,-111,55.6c0,.4,.4,1.1,.4,1.9c0,2.8,-2.4,4.8,-5.2,4.8c-2,0,-3.6,-.8,-4.3,-2.4q-89.7,42.9,-89.7,42.9c.4,.4,.4,1.2,.4,2c0,2.8,-1.9,5.2,-4.7,5.2c-2.8,0,-5.2,-2.4,-5.2,-5.2c0,-1.2,.4,-2,.8,-2.8Q1020.1,550.7,1020.1,550.7c-.8,.8,-1.9,1.2,-3.1,1.2c-2.8,0,-5.2,-2.4,-5.2,-5.2c0,-2.8,2.4,-5.2,5.2,-5.2Zm4.3,2.8Q1147,484.7,1147,484.7q-1.9,-3.5,-1.9,-3.5c-.4,.4,-1.2,.8,-2,.8c-3.2,0,-5.2,-2.4,-5.2,-5.2c0,-1.6,.8,-3.2,2.4,-4.4q-21.4,-40.9,-21.4,-40.9q-98.4,111.6,-98.4,111.6c.4,.4,.4,.8,.8,1.2Zm89.3,-9.9q70.9,8.3,70.9,8.3q-10.7,-17.8,-10.7,-17.8q-14.6,-25.1,-14.6,-25.1q-46.4,31.8,-46.4,31.8c.4,.4,.8,1.6,.8,2.4c0,0,0,.4,0,.4Zm35.2,-53.2q2,3.5,2,3.5q6,-3.1,6,-3.1q-6.4,-2.4,-6.4,-2.4c-.4,.8,-.8,1.2,-1.6,2Zm2.4,3.9q8,13.9,8,13.9q15,-9.9,15,-9.9Q1154.6,482,1154.6,482l-6.4,3.1Zm23.4,3.6q69.8,-47.6,69.8,-47.6q-86,40.5,-86,40.5l16.2,7.1ZM1249.4,443c-.8,.4,-2,1.2,-3.2,1.2c-2,0,-3.6,-1.2,-4.4,-2.4q-69.4,46.9,-69.4,46.9q174.5,73.1,174.5,73.1c0,-.4,.4,-.8,.8,-.8Q1254.1,448.6,1254.1,448.6l-4.7,-5.6Zm97.1,119.2Q1171.6,489.1,1171.6,489.1q-15,10.3,-15,10.3q15,25.5,15,25.5q10.7,18.2,10.7,18.2q163.8,19.5,163.8,19.5c0,0,0,-.4,.4,-.4Zm-121.3,60c.4,-1.2,1.1,-1.6,1.5,-2.4q-44.8,-76.3,-44.8,-76.3q-71.3,-8.7,-71.3,-8.7c-.8,2.4,-2.8,4.4,-5.2,4.4c-2.8,0,-5.2,-2.4,-5.2,-5.2c0,-2.8,2.4,-5.2,5.2,-5.2c1.6,0,3.2,.8,4,2q46.4,-31.4,46.4,-31.4q-8.4,-14.3,-8.4,-14.3q-126.1,59.6,-126.1,59.6c.4,.8,.4,1.2,.4,2c0,.4,0,.8,0,1.6q116.2,42.1,116.2,42.1l87.3,31.8ZM1107.4,410.1c-.4,.4,-1.2,.4,-2,.4c-.8,0,-1.6,-.4,-2.4,-.8q-83.3,133,-83.3,133h.4q98.4,-111.6,98.4,-111.6l-11.1,-21Zm33.3,62.3c.8,-.4,1.6,-.8,2.4,-.8c2.7,0,4.7,2.4,4.7,5.2c0,.8,0,1.2,0,1.6q6.8,3.2,6.8,3.2q86.8,-41.3,86.8,-41.3c-.4,-.4,-.4,-.8,-.4,-1.2c0,-1.6,.8,-3.2,2,-4q-60.3,-76.3,-60.3,-76.3q-63.4,72.3,-63.4,72.3l21.4,41.3Zm109.8,-35.3c0,0,.4,0,.4,.4q134.9,-24.3,134.9,-24.3q0,-.3,0,-.7c0,-2.8,2.4,-5.2,5.1,-5.2c1.2,0,2.4,.8,3.6,1.6q47.6,-49.3,47.6,-49.3l-191.6,77.5Zm174.9,115.2c.8,-.8,1.6,-1.6,2.8,-2Q1392.1,417.6,1392.1,417.6c-.4,0,-.8,0,-1.2,0c-2.3,0,-4.3,-1.6,-4.7,-4q-135.3,24.3,-135.3,24.3c0,.4,.4,.8,.4,1.2c0,.8,-.4,1.6,-.8,2l174.9,111.2Zm23.4,97.7q-94,-82.2,-94,-82.2c-.8,1.1,-2.3,2.3,-3.9,2.3q-1.2,83.4,-1.2,83.4q.4,0,.8,0c2.4,0,4.7,2,5.1,4.4l93.2,-7.9ZM1128,723.4c0,.4,.4,.4,.4,.8q217.3,-64.7,217.3,-64.7q-.4,-.4,-.4,-.8c0,-2.4,1.6,-4.4,4,-5.2q.8,-83.4,.8,-83.4c-1.6,0,-3.2,-1.2,-4,-2.7L1128,723.4ZM1345.3,565.8q0,-.4,0,-.8c0,-.4,.4,-1.2,.4,-1.6q-163,-19.9,-163,-19.9q44.8,75.9,44.8,75.9c.8,-.4,1.6,-.4,2.4,-.4c2,0,3.6,1.2,4.4,2.4l111,-55.6ZM1131.6,666.6c1.6,0,3.2,.8,3.9,2q89.7,-42.5,89.7,-42.5c-.4,-.8,-.4,-1.6,-.4,-2c0,-.8,0,-1.1,.4,-1.5q-83.7,-30.2,-83.7,-30.2Q1021.3,548.7,1021.3,548.7c0,.4,-.4,1.2,-.8,1.6q107.1,117.9,107.1,117.9c1.2,-1.2,2.4,-1.6,4,-1.6Z" class="g6_9"/>
<path d="M1111.6,320.2h238.2M1111.6,433.5h238.2" class="g7_9"/>
<image clip-path="url(#c0_9)" preserveAspectRatio="none" x="662" y="58" width="259" height="258" xlink:href="img/1.png"/>
<image clip-path="url(#c1_9)" preserveAspectRatio="none" x="631" y="57" width="286" height="285" xlink:href="img/2.png"/>
<path d="M670,182.5C670,115.2,724.6,60.6,791.9,60.6c67.3,0,121.9,54.6,121.9,121.9c0,67.3,-54.6,121.9,-121.9,121.9C724.6,304.4,670,249.8,670,182.5Z" class="g7_9"/>
<image clip-path="url(#c0_9)" preserveAspectRatio="none" x="667" y="363" width="259" height="259" xlink:href="img/3.png"/>
<image clip-path="url(#c2_9)" preserveAspectRatio="none" x="675" y="366" width="244" height="244" xlink:href="img/4.png"/>
<path d="M674.8,488.3c0,-67.3,54.5,-121.9,121.9,-121.9c67.3,0,121.9,54.6,121.9,121.9c0,67.3,-54.6,121.9,-121.9,121.9c-67.4,0,-121.9,-54.6,-121.9,-121.9Z" class="g7_9"/>
<image clip-path="url(#c3_9)" preserveAspectRatio="none" x="51" y="46" width="319" height="421" xlink:href="img/5.jpg"/>
<path clip-path="url(#c4_9)" d="M50.8,467.1H370.7V45.6H50.8V467.1Z" class="g8_9"/>
<image clip-path="url(#c5_9)" preserveAspectRatio="none" x="369" y="435" width="377" height="358" xlink:href="img/6.png"/>
</svg>