<?xml version="1.0" encoding="UTF-8" standalone="no"?>
<!DOCTYPE svg PUBLIC "-//W3C//DTD SVG 1.1//EN"
"http://www.w3.org/Graphics/SVG/1.1/DTD/svg11.dtd">
<svg viewBox="0 0 1466 825" version="1.1" xmlns="http://www.w3.org/2000/svg" xmlns:xlink="http://www.w3.org/1999/xlink">
<defs>
<clipPath id="c0_12"><path d="M0,825V0H1466.7V825Z"/></clipPath>
<clipPath id="c1_12"><path d="M673.2,270.8V105.6h189V270.8Z"/></clipPath>
<clipPath id="c2_12"><path d="M78.1,312.4V32.6H322.3V312.4Z"/></clipPath>
<clipPath id="c3_12"><path d="M398.2,312.4V63.8h189V312.4Z"/></clipPath>
<clipPath id="c4_12"><path d="M44.2,677.8V422H284.3V677.8Z"/></clipPath>
<clipPath id="c5_12"><path d="M384.1,664.4V414.9H639.3V664.4Z"/></clipPath>
<clipPath id="c6_12"><path d="M673.2,662.4V451.9H903.6V662.4Z"/></clipPath>
<style type="text/css"><![CDATA[
.g0_12{
fill: #FFFFFF;
}
.g1_12{
fill: #0A91A0;
}
.g2_12{
fill: #727376;
}
.g3_12{
fill: #D7D7D7;
fill-opacity: 0.54902005;
}
.g4_12{
fill: #0A91A0;
fill-opacity: 0.54902005;
}
.g5_12{
fill: #868686;
fill-opacity: 0.54902005;
}
.g6_12{
fill: none;
stroke: #0A91A0;
stroke-width: 2.291;
stroke-linecap: butt;
stroke-linejoin: miter;
}
]]></style>
</defs>
<path clip-path="url(#c0_12)" fill-rule="evenodd" d="M0,825H1466.7V0H0V825Z" class="g0_12"/>
<path fill-rule="evenodd" d="M1356.3,771.1l-29,-.1l-5.6,10.7l12,.2l-11.4,19.9c-1.4,2.2,-.9,1.9,.4,4.1c1.4,2.5,3.6,5.9,4.6,8.3c1.4,-1.1,12.2,-20.6,14.2,-23.9c1.4,-2.5,3.6,-5.8,4.7,-8.3h16.4L1375,760.3h-12.5c-1.7,3.3,-4.2,7.9,-6.2,10.8Z" class="g1_12"/>
<path fill-rule="evenodd" d="M1350.1,803.4l24.9,.2c-1.1,-3.2,-5.3,-8.6,-5.9,-10.9h-12.6c.3,-1.5,3,-5.3,3.9,-7.2l-9.2,-.1c-4.1,0,-2.9,-.3,-4.7,2.8c-2.4,4.3,-3.9,3.6,.6,10.3c1.1,1.6,1.8,3.1,3,4.9Z" class="g2_12"/>
<path fill-rule="evenodd" d="M1177.2,80.7L1147.8,54.8l-1.6,2l27.1,23.9h3.9Z" class="g3_12"/>
<path fill-rule="evenodd" d="M1193.7,80.7L1139.1,32.6l-1.7,1.9l52.3,46.2h4Z" class="g4_12"/>
<path fill-rule="evenodd" d="M1211.5,80.7L1172.3,46.2l-1.7,1.8l37.3,32.7h3.6Z" class="g5_12"/>
<path fill-rule="evenodd" d="M1251.3,149.2l55.7,49.2l1.8,-2l-53.5,-47.2h-4Z" class="g3_12"/>
<path fill-rule="evenodd" d="M1267.7,149.2l30.5,27l1.6,-2l-28.2,-25h-3.9Z" class="g4_12"/>
<path fill-rule="evenodd" d="M1281.3,149.2l19,16.9l1.6,-1.7l-17.1,-15.2h-3.5Z" class="g5_12"/>
<path d="M877.2,281.9h238.2" class="g6_12"/>
<image clip-path="url(#c1_12)" preserveAspectRatio="none" x="673" y="106" width="189" height="165" xlink:href="img/1.png"/>
<image clip-path="url(#c2_12)" preserveAspectRatio="none" x="78" y="33" width="244" height="279" xlink:href="img/2.jpg"/>
<image clip-path="url(#c3_12)" preserveAspectRatio="none" x="398" y="64" width="189" height="248" xlink:href="img/3.jpg"/>
<image clip-path="url(#c4_12)" preserveAspectRatio="none" x="44" y="422" width="240" height="256" xlink:href="img/4.png"/>
<image clip-path="url(#c5_12)" preserveAspectRatio="none" x="384" y="415" width="255" height="249" xlink:href="img/5.png"/>
<image clip-path="url(#c6_12)" preserveAspectRatio="none" x="673" y="452" width="231" height="210" xlink:href="img/6.png"/>
<path d="M892.7,707.9h238.2" class="g6_12"/>
</svg>