<?xml version="1.0" encoding="UTF-8" standalone="no"?>
<!DOCTYPE svg PUBLIC "-//W3C//DTD SVG 1.1//EN"
"http://www.w3.org/Graphics/SVG/1.1/DTD/svg11.dtd">
<svg viewBox="0 0 1466 825" version="1.1" xmlns="http://www.w3.org/2000/svg" xmlns:xlink="http://www.w3.org/1999/xlink">
<defs>
<clipPath id="c0_6"><path d="M669,427.8V323.9H796.4V427.8Z"/></clipPath>
<clipPath id="c1_6"><path d="M0,825V0H1466.7V825Z"/></clipPath>
<clipPath id="c2_6"><path d="M0,825V0H1466.7V825H0Z"/></clipPath>
<clipPath id="c3_6"><path d="M1466.7,825H0V0H1466.7V825Z"/></clipPath>
<clipPath id="c4_6"><path d="M668.6,428.1V323.6h128V428.1Z"/></clipPath>
<style type="text/css"><![CDATA[
.g0_6{
fill: #0A91A0;
}
.g1_6{
fill: #727376;
}
.g2_6{
fill: #FFFFFF;
}
]]></style>
</defs>
<path clip-path="url(#c1_6)" fill-rule="evenodd" d="M0,825H1466.7V0H0V825Z" class="g0_6"/>
<path fill-rule="evenodd" d="M1356.3,771.1l-29,-.1l-5.6,10.7l12,.2l-11.4,19.9c-1.4,2.2,-.9,1.9,.4,4.1c1.4,2.5,3.6,5.9,4.6,8.3c1.4,-1.1,12.2,-20.6,14.2,-23.9c1.4,-2.5,3.6,-5.8,4.7,-8.3h16.4L1375,760.3h-12.5c-1.7,3.3,-4.2,7.9,-6.2,10.8Z" class="g0_6"/>
<path fill-rule="evenodd" d="M1350.1,803.4l24.9,.2c-1.1,-3.2,-5.3,-8.6,-5.9,-10.9h-12.6c.3,-1.5,3,-5.3,3.9,-7.2l-9.2,-.1c-4.1,0,-2.9,-.3,-4.7,2.8c-2.4,4.3,-3.9,3.6,.6,10.3c1.1,1.6,1.8,3.1,3,4.9Z" class="g1_6"/>
<path fill-rule="evenodd" d="M1310.5,811.4H1395V736.5h-84.5v74.9Z" class="g0_6"/>
<path clip-path="url(#c2_6)" d="M269.7,461.2L261.5,452l-3.7,-4.9l-3.5,-5L251.2,437l-3,-5.3l-2.6,-5.4l-2.3,-5.4l-2,-5.6l-1.8,-5.6L238,404l-1.2,-5.7l-1,-5.8l-.6,-5.8l-.4,-5.8l-.1,-5.9l.2,-5.8l.4,-5.8l.7,-5.8l1.1,-5.8l1.2,-5.7l1.6,-5.7l1.8,-5.6l2.2,-5.5l2.4,-5.4l2.7,-5.4l2.9,-5.2l3.2,-5.1l3.5,-5l3.8,-4.8l4.1,-4.7l4.3,-4.5l4.6,-4.3l4.7,-4l4.9,-3.7l5,-3.5l5.2,-3.1l5.2,-2.9l5.4,-2.6l5.5,-2.4l5.5,-2l5.6,-1.8l5.7,-1.5l5.8,-1.2l5.7,-1l5.8,-.6l5.9,-.4l5.8,-.1l5.8,.2l5.9,.4l5.8,.8l5.7,1l5.8,1.3l5.6,1.5l5.6,1.9l5.5,2.1l5.5,2.4l5.3,2.7l5.2,2.9l5.1,3.3l5,3.5l4.8,3.8l4.7,4l4.5,4.4l4.2,4.5l4,4.6l3.7,4.8l3.4,5l3.2,5l2.8,5.2l2.6,5.3l2.3,5.4l2.1,5.4l1.8,5.6l1.5,5.6l1.3,5.6l.9,5.7l.7,5.7l.5,5.8l.1,5.7l-.1,5.8l-.4,5.8l-.6,5.7l-.9,5.7l-1.2,5.7l-1.5,5.6l-1.7,5.5l-2.1,5.5l-2.2,5.4l-2.6,5.3l-2.8,5.2l-3.1,5.1l-3.4,5l-3.6,4.8l-8.1,9.1l-3.4,-3l8,-9l-.2,.1l3.6,-4.7v.1L455,439l-.1,.1l3,-5v.1l2.8,-5.1l-.1,.1l2.5,-5.2v.1l2.2,-5.3v.1l1.9,-5.4v.1l1.7,-5.5v.2l1.4,-5.5v.1l1.2,-5.6l-.1,.1l1,-5.6l-.1,.1l.7,-5.6v.1l.4,-5.6v.1v-5.7v.1l-.1,-5.6v.1l-.4,-5.7v.1l-.7,-5.6v.1l-.9,-5.6v.2l-1.2,-5.6v.1l-1.5,-5.5v.1L466.9,337v.1l-2,-5.4v.1l-2.3,-5.2l.1,.1l-2.6,-5.2l.1,.1l-2.8,-5.1v.1l-3.1,-5l.1,.1L451,306.9l.1,.1l-3.6,-4.7h.1l-3.9,-4.5l.1,.1l-4.2,-4.5l.1,.1l-4.4,-4.2h.1l-4.6,-3.9h.1l-4.8,-3.7l.1,.1l-4.9,-3.5l.1,.1l-5,-3.2l.1,.1l-5.1,-2.9h.1l-5.2,-2.6l.1,.1L401,267.5h.1l-5.4,-2h.1l-5.5,-1.8h.1l-5.5,-1.5h.1L379.4,261h.1l-5.7,-1h.1l-5.7,-.7h.2l-5.8,-.4h.2l-5.8,-.2h.1l-5.7,.1h.1l-5.7,.4h.1l-5.7,.6h.1l-5.7,.9h.2l-5.7,1.2l.1,-.1l-5.6,1.5h.2l-5.5,1.7h.1l-5.5,2h.1l-5.4,2.3l.2,-.1l-5.3,2.6l.1,-.1l-5.2,2.9l.1,-.1l-5,3.1l.1,-.1l-4.9,3.4l-4.7,3.6l.1,-.1l-4.7,4l.1,-.1l-4.5,4.2l.1,-.1l-4.2,4.4l-4,4.6l.1,-.1l-3.7,4.7l.1,-.1l-3.5,4.9l.1,-.1l-3.2,5l.1,-.1l-2.9,5.1v-.1l-2.6,5.3v-.1l-2.3,5.3V331l-2.1,5.4l.1,-.1l-1.8,5.5v-.1l-1.5,5.5v-.1l-1.3,5.6l.1,-.1l-1,5.7v-.1l-.7,5.7v-.1l-.5,5.7v-.1l-.1,5.7V375l.1,5.7v-.1l.3,5.7v-.1l.7,5.7v-.1l.9,5.7v-.1l1.2,5.6l-.1,-.1l1.5,5.6v-.1l1.7,5.5v-.1l2,5.4l-.1,-.1l2.3,5.4v-.1l2.5,5.2v-.1l2.8,5.2v-.1l3.1,5l-.1,-.1l3.4,5l-.1,-.1l3.7,4.8L265,449l8.1,9.2Zm6.8,-6.2c2.5,2.8,2.4,7.1,-.4,9.7c-2.8,2.6,-7.1,2.4,-9.7,-.3c-2.6,-2.8,-2.4,-7.2,.3,-9.8c2.8,-2.5,7.2,-2.4,9.8,.4Zm170.6,8.6c-2.5,2.8,-6.9,3,-9.7,.4c-2.8,-2.5,-3,-6.9,-.5,-9.7c2.6,-2.8,6.9,-3,9.8,-.5c2.8,2.6,3,6.9,.4,9.8Z" class="g2_6"/>
<path clip-path="url(#c1_6)" d="M646,461.2L637.8,452L634,447.1l-3.4,-5L627.4,437l-2.9,-5.3l-2.6,-5.4l-2.3,-5.4l-2.1,-5.6l-1.8,-5.6L614.2,404L613,398.3l-.9,-5.8l-.7,-5.8l-.4,-5.8l-.1,-5.9l.2,-5.8l.5,-5.8l.7,-5.8l1,-5.8l1.3,-5.7l1.6,-5.7l1.8,-5.6l2.1,-5.5l2.4,-5.4l2.7,-5.4l3,-5.2l3.2,-5.1l3.5,-5l3.8,-4.8l4.1,-4.7l4.3,-4.5l4.6,-4.3l4.7,-4l4.9,-3.7l5,-3.5l5.1,-3.1l5.3,-2.9l5.4,-2.6l5.4,-2.4l5.6,-2l5.6,-1.8l5.7,-1.5l5.7,-1.2l5.8,-1l5.8,-.6l5.8,-.4l5.9,-.1l5.8,.2l5.8,.4l5.8,.8l5.8,1l5.7,1.3l5.7,1.5l5.6,1.9l5.5,2.1l5.4,2.4l5.4,2.7l5.2,2.9l5.1,3.3l5,3.5l4.8,3.8l4.7,4l4.5,4.4l4.2,4.5l4,4.6l3.7,4.8l3.4,5l3.1,5l2.9,5.2l2.6,5.3l2.3,5.4l2.1,5.4l1.8,5.6l1.5,5.6l1.2,5.6l1,5.7l.7,5.7l.4,5.8l.2,5.7l-.1,5.8l-.4,5.8l-.7,5.7l-.9,5.7l-1.2,5.7l-1.4,5.6l-1.8,5.5l-2,5.5l-2.3,5.4l-2.5,5.3l-2.9,5.2l-3.1,5.1l-3.3,5l-3.7,4.8l-8,9.1l-3.4,-3l7.9,-9l-.1,.1l3.6,-4.7l-.1,.1l3.3,-4.9v.1l3,-5l-.1,.1l2.8,-5.1v.1l2.5,-5.2l-.1,.1l2.3,-5.3l-.1,.1l2,-5.4v.1l1.7,-5.5l-.1,.2l1.5,-5.5v.1l1.1,-5.6v.1l.9,-5.6v.1l.6,-5.6v.1l.4,-5.6v.1l.1,-5.7v.1l-.1,-5.6v.1l-.5,-5.7l.1,.1l-.7,-5.6v.1l-1,-5.6v.2l-1.2,-5.6v.1l-1.5,-5.5l.1,.1L843.1,337l.1,.1l-2.1,-5.4l.1,.1l-2.3,-5.2v.1l-2.5,-5.2v.1l-2.8,-5.1l.1,.1l-3.1,-5l.1,.1l-3.4,-4.8l.1,.1l-3.6,-4.7L820,297.8v.1l-4.1,-4.5l.1,.1l-4.5,-4.2h.1L807,285.4h.1l-4.7,-3.7l.1,.1l-4.9,-3.5l.1,.1l-5,-3.2l.1,.1l-5.2,-2.9h.2l-5.3,-2.6l.1,.1l-5.3,-2.4h.1l-5.4,-2h.1l-5.5,-1.8h.1l-5.6,-1.5h.1L755.6,261h.1l-5.6,-1h.1l-5.7,-.7h.1l-5.7,-.4h.1l-5.7,-.2h.1l-5.7,.1h.1l-5.8,.4h.1l-5.6,.6h.1l-5.7,.9h.1l-5.6,1.2l.1,-.1l-5.6,1.5h.1l-5.5,1.7h.1l-5.4,2h.1l-5.4,2.3l.1,-.1l-5.3,2.6l.2,-.1l-5.2,2.9l.1,-.1l-5.1,3.1l.1,-.1l-4.9,3.4h.1l-4.8,3.6l.1,-.1l-4.6,4l.1,-.1l-4.5,4.2l.1,-.1l-4.3,4.4h.1l-4,4.6l.1,-.1l-3.8,4.7l.1,-.1l-3.4,4.9v-.1l-3.1,5v-.1l-2.9,5.1l.1,-.1l-2.7,5.3l.1,-.1l-2.4,5.3l.1,-.1l-2.1,5.4v-.1l-1.8,5.5l.1,-.1l-1.6,5.5l.1,-.1l-1.3,5.6v-.1l-1,5.7v-.1l-.7,5.7v-.1l-.4,5.7v-.1l-.2,5.7V375l.1,5.7v-.1l.4,5.7v-.1l.6,5.7v-.1l.9,5.7v-.1l1.2,5.6v-.1l1.5,5.6l-.1,-.1l1.8,5.5l-.1,-.1l2,5.4v-.1l2.3,5.4v-.1l2.5,5.2l-.1,-.1l2.9,5.2l-.1,-.1l3.1,5v-.1l3.4,5l-.1,-.1l3.7,4.8l-.2,-.2l8.2,9.2Zm6.7,-6.2c2.6,2.8,2.4,7.1,-.4,9.7c-2.7,2.6,-7.1,2.4,-9.7,-.3c-2.6,-2.8,-2.4,-7.2,.4,-9.8c2.8,-2.5,7.1,-2.4,9.7,.4Zm170.7,8.6c-2.6,2.8,-6.9,3,-9.7,.4c-2.8,-2.5,-3.1,-6.9,-.5,-9.7c2.6,-2.8,6.9,-3,9.7,-.5c2.8,2.6,3,6.9,.5,9.8Z" class="g2_6"/>
<path clip-path="url(#c3_6)" d="M1044,461.2l-8.2,-9.2l-3.7,-4.9l-3.5,-5l-3.1,-5.1l-2.9,-5.3l-2.6,-5.4l-2.4,-5.4l-2,-5.6l-1.8,-5.6l-1.5,-5.7l-1.2,-5.7l-.9,-5.8l-.7,-5.8l-.4,-5.8L1009,375l.2,-5.8l.4,-5.8l.8,-5.8l1,-5.8l1.3,-5.7l1.5,-5.7l1.9,-5.6l2.1,-5.5l2.4,-5.4l2.7,-5.4l2.9,-5.2l3.3,-5.1l3.5,-5l3.8,-4.8l4,-4.7l4.4,-4.5l4.5,-4.3l4.8,-4l4.8,-3.7l5.1,-3.5l5.1,-3.1l5.3,-2.9l5.3,-2.6l5.5,-2.4l5.5,-2l5.7,-1.8l5.6,-1.5l5.8,-1.2l5.8,-1l5.8,-.6l5.8,-.4l5.8,-.1l5.9,.2l5.8,.4l5.8,.8l5.8,1l5.7,1.3l5.6,1.5l5.7,1.9l5.5,2.1l5.4,2.4l5.3,2.7l5.3,2.9l5.1,3.3l4.9,3.5l4.9,3.8l4.6,4l4.6,4.4l4.2,4.5l3.9,4.6l3.7,4.8l3.4,5l3.2,5l2.8,5.2l2.7,5.3l2.3,5.4l2,5.4l1.8,5.6l1.6,5.6l1.2,5.6l1,5.7l.7,5.7l.4,5.8l.2,5.7l-.1,5.8l-.4,5.8l-.7,5.7l-.9,5.7l-1.2,5.7l-1.5,5.6l-1.7,5.5l-2,5.5l-2.3,5.4l-2.6,5.3l-2.8,5.2l-3.1,5.1l-3.4,5l-3.6,4.8l-8,9.1l-3.5,-3l8,-9l-.1,.1l3.5,-4.7v.1l3.3,-4.9l-.1,.1l3.1,-5l-.1,.1l2.8,-5.1l-.1,.1l2.5,-5.2v.1l2.2,-5.3v.1l2,-5.4l-.1,.1l1.7,-5.5v.2l1.4,-5.5v.1l1.2,-5.6v.1l.9,-5.6v.1l.6,-5.6v.1l.4,-5.6v.1l.1,-5.7v.1l-.2,-5.6v.1l-.4,-5.7v.1l-.7,-5.6v.1l-.9,-5.6v.2l-1.2,-5.6v.1l-1.5,-5.5l.1,.1l-1.8,-5.4v.1l-2,-5.4l.1,.1l-2.3,-5.2v.1l-2.5,-5.2v.1l-2.8,-5.1l.1,.1l-3.1,-5v.1l-3.3,-4.8v.1l-3.6,-4.7h.1l-3.9,-4.5l.1,.1l-4.1,-4.5v.1l-4.4,-4.2h.1l-4.6,-3.9h.1l-4.7,-3.7v.1l-4.8,-3.5l.1,.1l-5,-3.2l.1,.1l-5.2,-2.9h.1l-5.2,-2.6l.1,.1l-5.3,-2.4h.1l-5.4,-2h.1l-5.5,-1.8h.1l-5.6,-1.5h.1l-5.6,-1.2h.1l-5.6,-1h.1l-5.7,-.7h.1l-5.7,-.4h.1l-5.7,-.2h.1l-5.8,.1h.1l-5.7,.4h.1l-5.7,.6h.2l-5.7,.9h.1l-5.6,1.2l.1,-.1l-5.6,1.5h.1l-5.5,1.7h.1l-5.5,2h.1l-5.3,2.3l.1,-.1l-5.3,2.6l.1,-.1l-5.1,2.9l.1,-.1l-5.1,3.1l.1,-.1l-4.9,3.4h.1l-4.8,3.6l.1,-.1l-4.7,4l.1,-.1l-4.4,4.2v-.1l-4.2,4.4h.1l-4,4.6v-.1l-3.7,4.7l.1,-.1l-3.4,4.9v-.1l-3.2,5l.1,-.1l-2.9,5.1l.1,-.1l-2.7,5.3l.1,-.1l-2.4,5.3V331l-2,5.4v-.1l-1.8,5.5v-.1l-1.5,5.5v-.1l-1.2,5.6l-1,5.6v-.1l-.7,5.7v-.1l-.4,5.7v-.1l-.2,5.7V375l.1,5.7v-.1l.4,5.7l-.1,-.1l.7,5.7v-.1l.9,5.7v-.1l1.2,5.6v-.1l1.4,5.6v-.1l1.7,5.5v-.1l2,5.4v-.1l2.3,5.4l-.1,-.1l2.6,5.2l-.1,-.1l2.9,5.2l-.1,-.1l3.1,5l3.3,4.9v-.1l3.6,4.8l-.1,-.2l8.2,9.2Zm6.8,-6.2c2.6,2.8,2.4,7.1,-.4,9.7c-2.8,2.6,-7.1,2.4,-9.7,-.3c-2.6,-2.8,-2.4,-7.2,.4,-9.8c2.8,-2.5,7.1,-2.4,9.7,.4Zm170.6,8.6c-2.5,2.8,-6.9,3,-9.7,.4c-2.8,-2.5,-3,-6.9,-.4,-9.7c2.5,-2.8,6.9,-3,9.7,-.5c2.8,2.6,3,6.9,.4,9.8Z" class="g2_6"/>
<path fill-rule="evenodd" d="M1177.1,350.2v-5.9l-29.9,-10h-5v8.9l-26.7,-8.9h-5v15.9h-3.2v-35h-22.2v35h-3.2v63.6h98.4V350.2h-3.2Zm-31.7,-12.7h1.3l27.2,9.1v3.6h-28.5V337.5Zm-31.7,0h1.3l27.2,9.1v3.6h-28.5V337.5Zm-9.6,-19.1v6.4h-15.8v-6.4h15.8Zm-15.8,9.6h15.8v22.2h-15.8V328Zm88.8,82.6h-92V353.4h92v57.2Z" class="g2_6"/>
<path fill-rule="evenodd" d="M1093.2,393.3l-3,3.1l9,8.9l3,-3c.6,.3,1.2,.5,1.8,.8v4.2h12.7v-4.2c.7,-.3,1.3,-.5,1.9,-.8l3,3l4.3,-4.3h41.6c3.5,0,6.4,-2.8,6.4,-6.3c0,-3,-2.1,-5.5,-4.8,-6.2V359.8h-33.2v28.5h-3.3v-9.5h-4.3c-.2,-.6,-.4,-1.2,-.7,-1.9l3,-3l-9,-8.9l-3,3c-.6,-.3,-1.2,-.6,-1.9,-.8V363H1104v4.2c-.6,.2,-1.2,.5,-1.8,.8l-3,-3l-9,8.9l3,3c-.3,.7,-.5,1.3,-.7,1.9h-4.3v12.7h4.3c.2,.6,.4,1.2,.7,1.8Zm35.9,4.5l1.5,-1.4l-3,-3.1c.3,-.6,.5,-1.2,.7,-1.8h1.1c1.8,0,3.2,1.4,3.2,3.2c0,1.7,-1.4,3.1,-3.2,3.1h-.3Zm28.9,-3.1c0,1.7,-1.4,3.1,-3.2,3.1c-1.7,0,-3.2,-1.4,-3.2,-3.1c0,-1.8,1.5,-3.2,3.2,-3.2c1.8,0,3.2,1.4,3.2,3.2Zm2.3,-3.2h1.7c-.5,.9,-.8,2,-.8,3.2c0,1.1,.3,2.2,.8,3.1h-1.7c.5,-.9,.9,-2,.9,-3.1c0,-1.2,-.4,-2.3,-.9,-3.2Zm-11,6.3h-1.7c.5,-.9,.9,-2,.9,-3.1c0,-1.2,-.4,-2.3,-.9,-3.2h1.7c-.5,.9,-.8,2,-.8,3.2c0,1.1,.3,2.2,.8,3.1Zm-4,-3.1c0,1.7,-1.4,3.1,-3.2,3.1c-1.7,0,-3.2,-1.4,-3.2,-3.1c0,-1.8,1.5,-3.2,3.2,-3.2c1.8,0,3.2,1.4,3.2,3.2Zm-8.6,3.1h-1.8c.5,-.9,.9,-2,.9,-3.1c0,-1.2,-.4,-2.3,-.9,-3.2h1.8c-.6,.9,-.9,2,-.9,3.2c0,1.1,.3,2.2,.9,3.1Zm34,-3.1c0,1.7,-1.4,3.1,-3.2,3.1c-1.7,0,-3.2,-1.4,-3.2,-3.1c0,-1.8,1.5,-3.2,3.2,-3.2c1.8,0,3.2,1.4,3.2,3.2ZM1150.1,363h4.7v9.5h-4.7V363Zm-11.1,0h7.9v12.6H1158V363h7.9v25.3H1139V363Zm-47.6,19h3.4l.3,-1.2c.4,-1.2,.9,-2.3,1.4,-3.4l.6,-1l-2.4,-2.5l4.5,-4.4l2.4,2.4l1.1,-.6c1,-.6,2.2,-1,3.4,-1.4l1.1,-.3v-3.5h6.4v3.5l1.1,.3c1.2,.4,2.4,.8,3.4,1.4l1.1,.6l2.4,-2.4l4.5,4.4l-2.5,2.5l.6,1c.6,1.1,1.1,2.2,1.4,3.4l.4,1.2h3.4v6.3H1126l-.4,1.2c-.3,1.2,-.8,2.3,-1.4,3.4l-.6,1l2.5,2.5l-4.5,4.4l-2.4,-2.4l-1.1,.6c-1,.6,-2.2,1,-3.4,1.4l-1.1,.3v3.5h-6.4v-3.5l-1.1,-.3c-1.2,-.4,-2.4,-.8,-3.4,-1.4l-1.1,-.6l-2.4,2.4l-4.5,-4.4l2.4,-2.5l-.6,-1c-.5,-1.1,-1,-2.2,-1.4,-3.4l-.3,-1.2h-3.4V382Z" class="g2_6"/>
<path fill-rule="evenodd" d="M1110.5,394.7c5.2,0,9.5,-4.3,9.5,-9.6c0,-5.2,-4.3,-9.5,-9.5,-9.5c-5.2,0,-9.5,4.3,-9.5,9.5c0,5.3,4.3,9.6,9.5,9.6Zm0,-15.9c3.5,0,6.3,2.8,6.3,6.3c0,3.5,-2.8,6.4,-6.3,6.4c-3.5,0,-6.3,-2.9,-6.3,-6.4c0,-3.5,2.8,-6.3,6.3,-6.3Z" class="g2_6"/>
<path fill-rule="evenodd" d="M339.2,345c0,-6.6,5.1,-12.1,11.5,-12.3c6.7,-.2,12.4,5.2,12.4,11.9v.4c0,.6,.7,.8,1.1,.3c1.8,-2.5,2.8,-5.7,2.8,-9.1c0,-8.7,-7.1,-15.8,-15.8,-15.8c-8.7,0,-15.8,7.1,-15.8,15.8c0,3.4,1.1,6.6,2.9,9.1c.2,.4,.9,.1,.9,-.3Z" class="g2_6"/>
<path fill-rule="evenodd" d="M381.3,367.4c-1.1,0,-2.4,.2,-3.4,.8c-1.5,-2.1,-3.9,-3.4,-6.6,-3.4c-1.3,0,-2.6,.4,-3.8,1c-1.5,-1.9,-3.8,-3,-6.3,-3c-.6,0,-1.2,.1,-1.8,.2V344.4c0,-4.5,-3.7,-8.2,-8.3,-8.2c-4.6,0,-8.2,3.7,-8.2,8.2v34.4l-4.1,-6c-1.1,-1.7,-2.9,-2.9,-5.1,-3.2c-2.1,-.4,-4.1,.2,-6,1.3c-1.8,1.2,-3.1,3,-3.5,5c-.6,2,-.3,4.2,.9,5.9c.1,.3,16.4,24.9,19.3,29.1c.4,.6,1.1,1.4,1.7,2.1v11.8c0,2.4,1.9,4.3,4.2,4.3h26.9c2.3,0,4.2,-2,4.2,-4.3V414.7c4.6,-3.7,7.5,-9.5,7.5,-15.8V375.4c.3,-4.5,-3.1,-8,-7.6,-8Zm3.2,31.3v.3c0,5,-2.3,9.3,-5.8,12.3H351.4c-1.2,-.9,-2.2,-1.9,-2.9,-3c-2.9,-4.1,-19,-28.8,-19.3,-29c-.4,-.6,-.4,-1.4,-.3,-2.2c.2,-.9,.8,-1.7,1.6,-2.2c.7,-.4,1.3,-.6,2.2,-.6c.2,0,.3,0,.5,0c.8,.1,1.5,.5,1.9,1.1l8.2,12.6c.6,.9,1.6,1.3,2.7,.9c1,-.3,1.7,-1.2,1.7,-2.3V344.3c0,-1.9,1.6,-3.5,3.6,-3.5c1.9,0,3.5,1.6,3.5,3.5v33.6c0,1.3,1,2.3,2.3,2.3c1.3,0,2.3,-1,2.3,-2.3v-10c.6,-.3,1.1,-.5,1.8,-.5c1.4,0,2.7,.9,3.2,2.2v8.9c0,1.3,1.1,2.3,2.3,2.3c1.3,0,2.3,-1,2.3,-2.3v-8.4c.6,-.4,1.4,-.8,2.2,-.8c1.5,0,2.9,1,3.3,2.4v7.8c0,1.3,1.1,2.3,2.3,2.3c1.3,0,2.3,-1,2.3,-2.3v-7c.6,-.4,1.3,-.7,2.1,-.7c2.1,0,3.1,1.8,3.1,3.6v23.3Z" class="g2_6"/>
<g clip-path="url(#c4_6)">
<path clip-path="url(#c0_6)" fill-rule="evenodd" d="M706.8,415.5l4.9,-24.9c.8,-4.4,.3,-2.9,7.3,-7.6c2,-1.3,7.4,-5.3,9.2,-5.8v27.9l-21.4,10.4ZM669,412.1v-.5l23.4,-47.3c2,.6,2.9,2.3,4.3,3.6l12.1,11.8c7.9,-5.3,15.9,-10.6,23.9,-15.9c7.9,5.3,15.9,10.6,23.9,15.9c1.4,-.9,.6,-1,2.5,-1.5c.5,2.5,2.7,5.6,3,6.5c.4,1.3,.1,.3,-.3,1.8c-.5,2.2,5.1,27.7,5.7,30.5l18,-8.9c-.9,-1.7,-7,-13.4,-7,-14.4c0,0,2.7,-7.9,4.8,-8.4l13.1,26.8c-3.3,1.7,-30.9,15.6,-31.9,15.6c-1.1,0,-13.7,-6.6,-15.9,-7.7c-2.2,-1.1,-14.8,-7.7,-15.9,-7.7c-1.8,0,-30.1,15.4,-31.9,15.4c-.9,0,-27.6,-13.5,-31.8,-15.6Zm67.7,-35.4l13.5,8.9c2.8,1.8,2.7,1,3.4,4.6l5,25.3L736.7,404.6V376.7ZM697.8,417l-17.9,-8.9L695,377.8c2.2,1.5,4.5,4.4,6.7,6.5c3.1,3,2.2,2.6,.7,10c-1.5,7.7,-2.8,15.3,-4.6,22.7Z" class="g2_6"/>
<path fill-rule="evenodd" d="M772.5,332.5c6.6,0,11.5,5.9,11.5,9.4c0,4.9,.5,7.2,-3.9,11.1c-4.6,4.1,-11.1,3.9,-15.7,-.5c-7.5,-7.2,-2.5,-20,8.1,-20Zm-19.9,9.9c0,11.3,4.2,14.8,9.3,25.1c1.8,3.6,3.4,6.8,5.1,10.2c1.1,2.1,4.1,8.9,5.5,10c1.7,-1.3,9.5,-18,10.6,-20.2c5.2,-10.3,9.3,-13.8,9.3,-25.1c0,-9.9,-9.8,-18.4,-19.9,-18.4c-10.1,0,-19.9,8.5,-19.9,18.4Z" class="g2_6"/>
</g>
</svg>