<?xml version="1.0" encoding="UTF-8" standalone="no"?>
<!DOCTYPE svg PUBLIC "-//W3C//DTD SVG 1.1//EN"
"http://www.w3.org/Graphics/SVG/1.1/DTD/svg11.dtd">
<svg viewBox="0 0 1466 825" version="1.1" xmlns="http://www.w3.org/2000/svg" xmlns:xlink="http://www.w3.org/1999/xlink">
<defs>
<clipPath id="c0_14"><path d="M0,825V0H1466.7V825Z"/></clipPath>
<clipPath id="c1_14"><path d="M471.5,567.1V397.5H641.1V567.1Z"/></clipPath>
<clipPath id="c2_14"><path d="M1095.6,554.2V410.1h302.1V554.2Z"/></clipPath>
<clipPath id="c3_14"><path d="M783,567.1V397.3H953.5V567.1Z"/></clipPath>
<clipPath id="c4_14"><path d="M35.2,560.3V404.1H329.5V560.3Z"/></clipPath>
<style type="text/css"><![CDATA[
.g0_14{
fill: #FFFFFF;
}
.g1_14{
fill: #0A91A0;
}
.g2_14{
fill: #727376;
}
.g3_14{
fill: #E3E3E4;
}
.g4_14{
fill: #D7D7D7;
fill-opacity: 0.54902005;
}
.g5_14{
fill: #0A91A0;
fill-opacity: 0.54902005;
}
.g6_14{
fill: #868686;
fill-opacity: 0.54902005;
}
]]></style>
</defs>
<path clip-path="url(#c0_14)" fill-rule="evenodd" d="M0,825H1466.7V0H0V825Z" class="g0_14"/>
<path fill-rule="evenodd" d="M1356.3,771.1l-29,-.1l-5.6,10.7l12,.2l-11.4,19.9c-1.4,2.2,-.9,1.9,.4,4.1c1.4,2.5,3.6,5.9,4.6,8.3c1.4,-1.1,12.2,-20.6,14.2,-23.9c1.4,-2.5,3.6,-5.8,4.7,-8.3h16.4L1375,760.3h-12.5c-1.7,3.3,-4.2,7.9,-6.2,10.8Z" class="g1_14"/>
<path fill-rule="evenodd" d="M1350.1,803.4l24.9,.2c-1.1,-3.2,-5.3,-8.6,-5.9,-10.9h-12.6c.3,-1.5,3,-5.3,3.9,-7.2l-9.2,-.1c-4.1,0,-2.9,-.3,-4.7,2.8c-2.4,4.3,-3.9,3.6,.6,10.3c1.1,1.6,1.8,3.1,3,4.9Z" class="g2_14"/>
<path fill-rule="evenodd" d="M0,663.1H1466.7V301.4H0V663.1Z" class="g3_14"/>
<path fill-rule="evenodd" d="M679.3,80.7L649.9,54.8l-1.6,2l27.1,23.9h3.9Z" class="g4_14"/>
<path fill-rule="evenodd" d="M695.6,80.7L641,32.6l-1.7,1.9l52.3,46.2h4Z" class="g5_14"/>
<path fill-rule="evenodd" d="M713.5,80.7L674.3,46.2L672.7,48L710,80.7h3.5Z" class="g6_14"/>
<path fill-rule="evenodd" d="M753.1,149.2l56,49.2l1.8,-2L757.2,149.2h-4.1Z" class="g4_14"/>
<path fill-rule="evenodd" d="M769.6,149.2l30.6,27l1.7,-2l-28.4,-25h-3.9Z" class="g5_14"/>
<path fill-rule="evenodd" d="M783.2,149.2l19.2,16.9l1.5,-1.7L786.7,149.2h-3.5Z" class="g6_14"/>
<image clip-path="url(#c0_14)" preserveAspectRatio="none" x="462" y="394" width="182" height="182" xlink:href="img/1.png"/>
<image clip-path="url(#c1_14)" preserveAspectRatio="none" x="472" y="397" width="169" height="170" xlink:href="img/2.png"/>
<image clip-path="url(#c0_14)" preserveAspectRatio="none" x="1086" y="407" width="314" height="156" xlink:href="img/3.png"/>
<image clip-path="url(#c2_14)" preserveAspectRatio="none" x="1096" y="410" width="302" height="144" xlink:href="img/4.png"/>
<image clip-path="url(#c0_14)" preserveAspectRatio="none" x="773" y="394" width="183" height="182" xlink:href="img/5.png"/>
<image clip-path="url(#c3_14)" preserveAspectRatio="none" x="783" y="397" width="171" height="170" xlink:href="img/6.png"/>
<image clip-path="url(#c0_14)" preserveAspectRatio="none" x="25" y="401" width="307" height="168" xlink:href="img/7.png"/>
<image clip-path="url(#c4_14)" preserveAspectRatio="none" x="35" y="404" width="294" height="156" xlink:href="img/8.png"/>
</svg>