<?xml version="1.0" encoding="UTF-8" standalone="no"?>
<!DOCTYPE svg PUBLIC "-//W3C//DTD SVG 1.1//EN"
"http://www.w3.org/Graphics/SVG/1.1/DTD/svg11.dtd">
<svg viewBox="0 0 1466 825" version="1.1" xmlns="http://www.w3.org/2000/svg" xmlns:xlink="http://www.w3.org/1999/xlink">
<defs>
<clipPath id="c0"><path d="M0,825V0H1466.7V825Z"/></clipPath>
<style type="text/css"><![CDATA[
.g0{
fill: #FFFFFF;
}
.g1{
fill: #0A91A0;
}
.g2{
fill: #727376;
}
.g3{
fill: #054850;
}
.g4{
fill: #D7D7D7;
fill-opacity: 0.54902005;
}
.g5{
fill: #0A91A0;
fill-opacity: 0.54902005;
}
.g6{
fill: #868686;
fill-opacity: 0.54902005;
}
.g7{
fill: #028ACE;
}
.g8{
fill: #026BA2;
}
.g9{
fill: #FFBF2F;
}
.ga{
fill: #DA291C;
}
]]></style>
</defs>
<path clip-path="url(#c0)" fill-rule="evenodd" d="M0,825H1466.7V0H0V825Z" class="g0"/>
<path fill-rule="evenodd" d="M1356.3,771.1l-29,-.1l-5.6,10.7l12,.2l-11.4,19.9c-1.4,2.2,-.9,1.9,.4,4.1c1.4,2.5,3.6,5.9,4.6,8.3c1.4,-1.1,12.2,-20.6,14.2,-23.9c1.4,-2.5,3.6,-5.8,4.7,-8.3h16.4L1375,760.3h-12.5c-1.7,3.3,-4.2,7.9,-6.2,10.8Z" class="g1"/>
<path fill-rule="evenodd" d="M1350.1,803.4l24.9,.2c-1.1,-3.2,-5.3,-8.6,-5.9,-10.9h-12.6c.3,-1.5,3,-5.3,3.9,-7.2l-9.2,-.1c-4.1,0,-2.9,-.3,-4.7,2.8c-2.4,4.3,-3.9,3.6,.6,10.3c1.1,1.6,1.8,3.1,3,4.9Z" class="g2"/>
<path clip-path="url(#c0)" fill-rule="evenodd" d="M-.6,581.5H1466.7V237.1H-.6V581.5Z" class="g3"/>
<path fill-rule="evenodd" d="M679.3,80.7L649.9,54.8l-1.6,2l27.1,23.9h3.9Z" class="g4"/>
<path fill-rule="evenodd" d="M695.6,80.7L641,32.6l-1.7,1.9l52.3,46.2h4Z" class="g5"/>
<path fill-rule="evenodd" d="M713.5,80.7L674.3,46.2L672.7,48L710,80.7h3.5Z" class="g6"/>
<path fill-rule="evenodd" d="M753.1,149.2l56,49.2l1.8,-2L757.2,149.2h-4.1Z" class="g4"/>
<path fill-rule="evenodd" d="M769.6,149.2l30.6,27l1.7,-2l-28.4,-25h-3.9Z" class="g5"/>
<path fill-rule="evenodd" d="M783.2,149.2l19.2,16.9l1.5,-1.7L786.7,149.2h-3.5Z" class="g6"/>
<path fill-rule="evenodd" d="M1377.8,644.4q-14.4,0,-14.4,0c-1.6,0,-2.5,1.3,-2.5,2.5q0,34.3,0,34.3c0,1.5,.9,2.5,2.5,2.5q14.4,0,14.4,0c1.6,0,2.5,-1,2.5,-2.5q0,-34.3,0,-34.3c0,-1.2,-.9,-2.5,-2.5,-2.5Zm-8.9,2.2q3.4,0,3.4,0c.3,0,.6,.3,.6,.6c0,.3,-.3,.6,-.6,.6q-3.4,0,-3.4,0c-.3,0,-.9,-.3,-.9,-.6c0,-.3,.6,-.6,.9,-.6Zm1.5,35.8c-.6,0,-1.2,-.6,-1.2,-1.2c0,-.9,.6,-1.3,1.2,-1.3c1,0,1.3,.4,1.3,1.3c0,.6,-.3,1.2,-1.3,1.2Zm7.8,-4q-15.2,0,-15.2,0q0,-28.4,0,-28.4q15.2,0,15.2,0v28.4Z" class="g1"/>
<path fill-rule="evenodd" d="M1355.6,611.1v18.1h30V611.1h-30Zm27.4,16l-7.3,-6.9l7.3,-7v13.9Zm-25.3,-13.9l7.3,7l-7.3,6.9V613.2Zm3.4,13.9l6,-5.7l3.8,4l3.6,-4l6,5.7h-19.4Zm12.1,-6.9l-2.3,2.1l-2.1,-2.1l-1.7,-1.3l-6,-5.7h19.4l-6,5.7l-1.3,1.3Z" class="g1"/>
<path fill-rule="evenodd" d="M180.9,616.4l-15.5,11.9h-.2V649H175V636.1h11.5V649h10V628.3L180.9,616.4Z" class="g1"/>
<path fill-rule="evenodd" d="M196.5,621.8v-12H190v7l-9.1,-7l-24.3,18.7h5.1L181,613.8l19.4,14.7h4.9l-8.8,-6.7Z" class="g1"/>
<image clip-path="url(#c0)" preserveAspectRatio="none" x="498" y="389" width="615" height="46" xlink:href="img/1.png"/>
<path fill-rule="evenodd" d="M141.3,437.3c0,-44.8,36.3,-81.1,81.1,-81.1c44.7,0,81,36.3,81,81.1c0,44.9,-36.3,81.2,-81,81.2c-44.8,0,-81.1,-36.3,-81.1,-81.2Z" class="g7"/>
<path fill-rule="evenodd" d="M156.6,437.3c0,-36.3,29.4,-65.7,65.8,-65.7c36.3,0,65.8,29.4,65.8,65.7c0,36.3,-29.5,65.8,-65.8,65.8c-36.4,0,-65.8,-29.5,-65.8,-65.8Z" class="g8"/>
<path fill-rule="evenodd" d="M265.1,373.5c0,-11.1,9,-20,20,-20c11,0,20,8.9,20,20c0,11,-9,19.9,-20,19.9c-11,0,-20,-8.9,-20,-19.9Z" class="g9"/>
<path fill-rule="evenodd" d="M93.1,321.8c0,-5.5,4.7,-10,10.5,-10c5.8,0,10.4,4.5,10.4,10c0,5.6,-4.6,10,-10.4,10c-5.8,0,-10.5,-4.4,-10.5,-10Z" class="ga"/>
</svg>