<?xml version="1.0" encoding="UTF-8" standalone="no"?>
<!DOCTYPE svg PUBLIC "-//W3C//DTD SVG 1.1//EN"
"http://www.w3.org/Graphics/SVG/1.1/DTD/svg11.dtd">
<svg viewBox="0 0 1466 825" version="1.1" xmlns="http://www.w3.org/2000/svg" xmlns:xlink="http://www.w3.org/1999/xlink">
<defs>
<clipPath id="c0_3"><path d="M0,825V0H1466.7V825Z"/></clipPath>
<style type="text/css"><![CDATA[
.g0_3{
fill: #FFFFFF;
}
.g1_3{
fill: #0A91A0;
}
.g2_3{
fill: #727376;
}
.g3_3{
fill: #D7D7D7;
fill-opacity: 0.54902005;
}
.g4_3{
fill: #0A91A0;
fill-opacity: 0.54902005;
}
.g5_3{
fill: #868686;
fill-opacity: 0.54902005;
}
.g6_3{
fill: none;
stroke: #0A91A0;
stroke-width: 2.291;
stroke-linecap: butt;
stroke-linejoin: miter;
}
]]></style>
</defs>
<path clip-path="url(#c0_3)" fill-rule="evenodd" d="M0,825H1466.7V0H0V825Z" class="g0_3"/>
<path fill-rule="evenodd" d="M1356.3,771.1l-29,-.1l-5.6,10.7l12,.2l-11.4,19.9c-1.4,2.2,-.9,1.9,.4,4.1c1.4,2.5,3.6,5.9,4.6,8.3c1.4,-1.1,12.2,-20.6,14.2,-23.9c1.4,-2.5,3.6,-5.8,4.7,-8.3h16.4L1375,760.3h-12.5c-1.7,3.3,-4.2,7.9,-6.2,10.8Z" class="g1_3"/>
<path fill-rule="evenodd" d="M1350.1,803.4l24.9,.2c-1.1,-3.2,-5.3,-8.6,-5.9,-10.9h-12.6c.3,-1.5,3,-5.3,3.9,-7.2l-9.2,-.1c-4.1,0,-2.9,-.3,-4.7,2.8c-2.4,4.3,-3.9,3.6,.6,10.3c1.1,1.6,1.8,3.1,3,4.9Z" class="g2_3"/>
<path fill-rule="evenodd" d="M679.3,80.7L649.9,54.8l-1.6,2l27.1,23.9h3.9Z" class="g3_3"/>
<path fill-rule="evenodd" d="M695.6,80.7L641,32.6l-1.7,1.9l52.3,46.2h4Z" class="g4_3"/>
<path fill-rule="evenodd" d="M713.5,80.7L674.3,46.2L672.7,48L710,80.7h3.5Z" class="g5_3"/>
<path fill-rule="evenodd" d="M753.1,149.2l56,49.2l1.8,-2L757.2,149.2h-4.1Z" class="g3_3"/>
<path fill-rule="evenodd" d="M769.6,149.2l30.6,27l1.7,-2l-28.4,-25h-3.9Z" class="g4_3"/>
<path fill-rule="evenodd" d="M783.2,149.2l19.2,16.9l1.5,-1.7L786.7,149.2h-3.5Z" class="g5_3"/>
<path d="M220.5,250.7H450M220.5,439.9H450M220.5,628H450" class="g6_3"/>
<path fill-rule="evenodd" d="M205.3,244.7c0,0,0,-.5,-.4,-.5c-5,-10,-16.4,-17.2,-28.7,-17.2c-12.3,0,-23.7,7.2,-29.2,17.2v.5c0,0,0,.4,0,.4c0,0,0,.5,0,.5v.4c5.5,10,16.9,17.3,29.2,17.3c12.3,0,23.7,-7.3,28.7,-17.3q.4,-.4,.4,-.4c0,0,0,-.5,0,-.5c0,0,0,-.4,0,-.4Zm-29.1,14.9c-10.5,0,-20.5,-5.9,-25.1,-14.5c5,-8.6,14.6,-14.5,25.1,-14.5c10,0,20,5.9,25,14.5c-5,8.6,-15,14.5,-25,14.5Z" class="g1_3"/>
<path fill-rule="evenodd" d="M176.2,237.8c-4,0,-7.2,3.2,-7.2,7.3c0,.5,.5,.9,.9,.9c.5,0,.9,-.4,.9,-.9c0,-3.2,2.3,-5.5,5.4,-5.5c.5,0,.9,-.4,.9,-.9c0,-.5,-.4,-.9,-.9,-.9Z" class="g1_3"/>
<path fill-rule="evenodd" d="M176.1,232.5c-7.3,0,-12.8,5.8,-12.8,12.6c0,6.8,5.5,12.7,12.8,12.7c6.8,0,12.7,-5.9,12.7,-12.7c0,-6.8,-5.9,-12.6,-12.7,-12.6Zm0,23.5c-5.9,0,-10.9,-5,-10.9,-10.9c0,-5.8,5,-10.8,10.9,-10.8c5.9,0,10.9,5,10.9,10.8c0,5.9,-5,10.9,-10.9,10.9Z" class="g1_3"/>
<path fill-rule="evenodd" d="M168.4,636.7c-.5,0,-.8,-.3,-1.1,-.5c-.8,-.6,-.8,-1.7,0,-2.3q33.5,-33.4,33.5,-33.4c.6,-.8,1.7,-.8,2.2,0c.9,.6,.9,1.7,0,2.2q-33.5,33.5,-33.5,33.5c-.2,.2,-.5,.5,-1.1,.5Z" class="g1_3"/>
<path fill-rule="evenodd" d="M195.7,618.8c-2.5,0,-5,-1.2,-7.2,-3.7c-3.1,-2.8,-4.3,-5.9,-3.4,-9c1.7,-7.8,14.8,-12.3,16.2,-12.8c.6,0,1.1,0,1.7,.2c.3,.3,.6,.9,.6,1.4q0,5.1,0,5.1q5,0,5,0c.6,0,1.1,.3,1.4,.6c.3,.5,.3,1.1,.3,1.6c-.6,1.7,-5.9,16.6,-14.6,16.6Zm4.5,-21.3c-4.2,1.6,-10.9,5,-11.7,9.2c-.6,2,.2,3.9,2.2,6.2c1.7,1.6,3.3,2.5,5,2.5c4.5,0,8.7,-7.3,10.4,-12q-4.2,0,-4.2,0c-.9,0,-1.7,-.9,-1.7,-1.7v-4.2Z" class="g1_3"/>
<path fill-rule="evenodd" d="M195.2,610.1c-.9,0,-1.8,-.8,-1.8,-1.6q0,-10.4,0,-10.4c0,-1.2,.9,-1.7,1.8,-1.7c.8,0,1.7,.5,1.7,1.7q0,10.4,0,10.4c0,.8,-.9,1.6,-1.7,1.6Z" class="g1_3"/>
<path fill-rule="evenodd" d="M144,661.3c-.5,0,-.8,-.3,-1.1,-.6c-.8,-.5,-.8,-1.7,0,-2.2q7.2,-7.3,7.2,-7.3c.6,-.5,1.7,-.5,2.2,0c.6,.6,.6,1.7,0,2.2q-7.2,7.3,-7.2,7.3c-.2,.3,-.5,.6,-1.1,.6Z" class="g1_3"/>
<path fill-rule="evenodd" d="M192.9,661.3c-.5,0,-.8,-.3,-1.1,-.6q-7.2,-7.3,-7.2,-7.3c-.5,-.5,-.5,-1.6,0,-2.2c.6,-.5,1.7,-.5,2.2,0q7.3,7.3,7.3,7.3c.8,.5,.8,1.7,0,2.2c-.3,.3,-.6,.6,-1.2,.6Z" class="g1_3"/>
<path fill-rule="evenodd" d="M168.5,661.3c-14.5,0,-26.2,-11.7,-26.2,-26.2c0,-14.5,11.7,-26.2,26.2,-26.2c14.5,0,26.2,11.7,26.2,26.2c0,14.5,-11.7,26.2,-26.2,26.2Zm0,-49.1c-12.6,0,-22.9,10.3,-22.9,22.9c0,12.5,10.3,22.8,22.9,22.8c12.5,0,22.9,-10.3,22.9,-22.8c0,-12.6,-10.4,-22.9,-22.9,-22.9Z" class="g1_3"/>
<path fill-rule="evenodd" d="M168.5,652.3c-9.5,0,-17.2,-7.8,-17.2,-17.2c0,-9.5,7.7,-17.3,17.2,-17.3c9.4,0,17.2,7.8,17.2,17.3c0,9.4,-7.8,17.2,-17.2,17.2Zm0,-31.1c-7.8,0,-13.9,6.1,-13.9,13.9c0,7.7,6.1,13.9,13.9,13.9c7.8,0,13.9,-6.2,13.9,-13.9c0,-7.8,-6.1,-13.9,-13.9,-13.9Z" class="g1_3"/>
<path fill-rule="evenodd" d="M168.5,643.5c-4.8,0,-8.4,-3.7,-8.4,-8.4c0,-4.8,3.6,-8.5,8.4,-8.5c4.8,0,8.4,3.7,8.4,8.5c0,4.7,-3.6,8.4,-8.4,8.4Zm0,-13.5c-2.8,0,-5.1,2.3,-5.1,5.1c0,2.8,2.3,5,5.1,5c2.8,0,5,-2.2,5,-5c0,-2.8,-2.2,-5.1,-5,-5.1Z" class="g1_3"/>
<path fill-rule="evenodd" d="M168.5,637.8c-1.7,0,-2.8,-1.1,-2.8,-2.7c0,-1.7,1.1,-2.8,2.8,-2.8c1.6,0,2.7,1.1,2.7,2.8c0,1.6,-1.1,2.7,-2.7,2.7Zm0,-3.3c-.3,0,-.6,.3,-.6,.6c0,.2,.3,.5,.6,.5c.3,0,.5,-.3,.5,-.5c0,-.3,-.2,-.6,-.5,-.6Z" class="g1_3"/>
<path fill-rule="evenodd" d="M167.2,464.7c-1.1,0,-1.5,-.3,-2.2,-1q-7.2,-9.8,-7.2,-9.8q-9.7,-7.1,-9.7,-7.1c-.7,-.4,-1.1,-1.1,-1.1,-2.2c0,-.7,0,-1.4,.8,-1.8q3.9,-4,3.9,-4c.4,-.7,1.1,-.7,1.8,-.7c0,0,.4,0,.7,0q6.9,1.8,6.9,1.8q8.2,-8.3,8.2,-8.3Q151,421.6,151,421.6c-.7,-.4,-1.4,-1.1,-1.4,-1.8c0,-1.1,0,-1.8,.7,-2.5q5,-5.1,5,-5.1c.7,-.7,1.8,-.7,2.5,-.7q25.6,6.1,25.6,6.1q5.4,-5.7,5.4,-5.7c3.2,-2.9,7.5,-5.1,10.8,-5.1c1.8,0,2.9,.4,3.9,1.5c1.5,1.4,1.8,3.9,.7,7.1c-.7,2.6,-2.5,5.5,-4.3,7.2q-5.7,6.2,-5.7,6.2q6.1,26.2,6.1,26.2c0,1.1,-.4,2.2,-1.1,2.9q-5,4,-5,4c-.4,.3,-1.1,.3,-1.8,.3c0,0,-.4,0,-.7,0c-.8,-.3,-1.5,-.7,-1.5,-1.4Q180.1,442.4,180.1,442.4q-8.2,8.3,-8.2,8.3q1.8,6.9,1.8,6.9c.3,1,0,1.8,-.8,2.5q-3.6,3.9,-3.6,3.9c-.7,.4,-1.4,.7,-2.1,.7ZM149.9,444.6q10.1,7.6,10.1,7.6q7.2,9.7,7.2,9.7q3.6,-3.6,3.6,-3.6Q168.6,450,168.6,450q12.3,-12.2,12.3,-12.2q11.5,21.6,11.5,21.6q5,-3.6,5,-3.6q-6.5,-28.1,-6.5,-28.1q6.9,-6.8,6.9,-6.8c1.8,-1.8,3.2,-4,3.9,-6.2c.8,-2.1,.4,-3.6,-.3,-4.3c-.4,-.7,-.7,-.7,-1.8,-.7c-2.5,0,-6.1,1.8,-8.7,4.3q-6.8,6.9,-6.8,6.9q-27,-6.5,-27,-6.5q-4.7,5,-4.7,5Q174,430.9,174,430.9q-12.2,12.3,-12.2,12.3Q153.5,441,153.5,441l-3.6,3.6Z" class="g1_3"/>
</svg>