<?xml version="1.0" encoding="UTF-8" standalone="no"?>
<!DOCTYPE svg PUBLIC "-//W3C//DTD SVG 1.1//EN"
"http://www.w3.org/Graphics/SVG/1.1/DTD/svg11.dtd">
<svg viewBox="0 0 1466 825" version="1.1" xmlns="http://www.w3.org/2000/svg" xmlns:xlink="http://www.w3.org/1999/xlink">
<defs>
<clipPath id="c0_10"><path d="M0,825V0H1466.7V825Z"/></clipPath>
<clipPath id="c1_10"><path d="M445.3,292.4V79.4H823.5v213Z"/></clipPath>
<clipPath id="c2_10"><path d="M36.7,287.3V77h378V287.3Z"/></clipPath>
<clipPath id="c3_10"><path d="M36.7,745.6V581.2h378V745.6Z"/></clipPath>
<clipPath id="c4_10"><path d="M36.7,562.5V339.3H415.6V562.5Z"/></clipPath>
<clipPath id="c5_10"><path d="M445.3,745.6V339.3H778.8V745.6Z"/></clipPath>
<clipPath id="c6_10"><path d="M897.6,506.6V198h528.2V506.6Z"/></clipPath>
<clipPath id="c7_10"><path d="M816.7,774.4V506.6H1237V774.4Z"/></clipPath>
<style type="text/css"><![CDATA[
.g0_10{
fill: #FFFFFF;
}
.g1_10{
fill: #0A91A0;
}
.g2_10{
fill: #727376;
}
.g3_10{
fill: #D7D7D7;
fill-opacity: 0.54902005;
}
.g4_10{
fill: #0A91A0;
fill-opacity: 0.54902005;
}
.g5_10{
fill: #868686;
fill-opacity: 0.54902005;
}
]]></style>
</defs>
<path clip-path="url(#c0_10)" fill-rule="evenodd" d="M0,825H1466.7V0H0V825Z" class="g0_10"/>
<path fill-rule="evenodd" d="M1356.3,771.1l-29,-.1l-5.6,10.7l12,.2l-11.4,19.9c-1.4,2.2,-.9,1.9,.4,4.1c1.4,2.5,3.6,5.9,4.6,8.3c1.4,-1.1,12.2,-20.6,14.2,-23.9c1.4,-2.5,3.6,-5.8,4.7,-8.3h16.4L1375,760.3h-12.5c-1.7,3.3,-4.2,7.9,-6.2,10.8Z" class="g1_10"/>
<path fill-rule="evenodd" d="M1350.1,803.4l24.9,.2c-1.1,-3.2,-5.3,-8.6,-5.9,-10.9h-12.6c.3,-1.5,3,-5.3,3.9,-7.2l-9.2,-.1c-4.1,0,-2.9,-.3,-4.7,2.8c-2.4,4.3,-3.9,3.6,.6,10.3c1.1,1.6,1.8,3.1,3,4.9Z" class="g2_10"/>
<image clip-path="url(#c1_10)" preserveAspectRatio="none" x="445" y="79" width="379" height="213" xlink:href="img/1.jpg"/>
<image clip-path="url(#c2_10)" preserveAspectRatio="none" x="37" y="77" width="378" height="210" xlink:href="img/2.jpg"/>
<image clip-path="url(#c3_10)" preserveAspectRatio="none" x="37" y="581" width="378" height="165" xlink:href="img/3.jpg"/>
<image clip-path="url(#c4_10)" preserveAspectRatio="none" x="37" y="339" width="379" height="223" xlink:href="img/4.jpg"/>
<image clip-path="url(#c5_10)" preserveAspectRatio="none" x="445" y="339" width="334" height="407" xlink:href="img/5.jpg"/>
<path fill-rule="evenodd" d="M1177.2,80.7L1147.8,54.8l-1.6,2l27.1,23.9h3.9Z" class="g3_10"/>
<path fill-rule="evenodd" d="M1193.7,80.7L1139.1,32.6l-1.7,1.9l52.3,46.2h4Z" class="g4_10"/>
<path fill-rule="evenodd" d="M1211.5,80.7L1172.3,46.2l-1.7,1.8l37.3,32.7h3.6Z" class="g5_10"/>
<path fill-rule="evenodd" d="M1251.3,149.2l55.7,49.2l1.8,-2l-53.5,-47.2h-4Z" class="g3_10"/>
<path fill-rule="evenodd" d="M1267.7,149.2l30.5,27l1.6,-2l-28.2,-25h-3.9Z" class="g4_10"/>
<path fill-rule="evenodd" d="M1281.3,149.2l19,16.9l1.6,-1.7l-17.1,-15.2h-3.5Z" class="g5_10"/>
<image clip-path="url(#c6_10)" preserveAspectRatio="none" x="898" y="198" width="528" height="309" xlink:href="img/6.jpg"/>
<image clip-path="url(#c7_10)" preserveAspectRatio="none" x="817" y="507" width="420" height="267" xlink:href="img/7.jpg"/>
</svg>