<?xml version="1.0" encoding="UTF-8" standalone="no"?>
<!DOCTYPE svg PUBLIC "-//W3C//DTD SVG 1.1//EN"
"http://www.w3.org/Graphics/SVG/1.1/DTD/svg11.dtd">
<svg viewBox="0 0 1466 825" version="1.1" xmlns="http://www.w3.org/2000/svg" xmlns:xlink="http://www.w3.org/1999/xlink">
<defs>
<clipPath id="c0_13"><path d="M0,825V0H1466.7V825Z"/></clipPath>
<clipPath id="c1_13"><path d="M339.2,356.6V112.4H605.4V356.6Z"/></clipPath>
<clipPath id="c2_13"><path d="M33.9,683.8V412.5H285.1V683.8Z"/></clipPath>
<clipPath id="c3_13"><path d="M659.5,363.4V115.1H893.4V363.4Z"/></clipPath>
<clipPath id="c4_13"><path d="M33.9,356.6V112.4H285.1V356.6Z"/></clipPath>
<clipPath id="c5_13"><path d="M326.7,682.4V411H654.5V682.4Z"/></clipPath>
<clipPath id="c6_13"><path d="M946.7,743.4V412.5h349.5V743.4Z"/></clipPath>
<clipPath id="c7_13"><path d="M704.6,699.1V411H848.3V699.1Z"/></clipPath>
<style type="text/css"><![CDATA[
.g0_13{
fill: #FFFFFF;
}
.g1_13{
fill: #0A91A0;
}
.g2_13{
fill: #727376;
}
.g3_13{
fill: #D7D7D7;
fill-opacity: 0.54902005;
}
.g4_13{
fill: #0A91A0;
fill-opacity: 0.54902005;
}
.g5_13{
fill: #868686;
fill-opacity: 0.54902005;
}
]]></style>
</defs>
<path clip-path="url(#c0_13)" fill-rule="evenodd" d="M0,825H1466.7V0H0V825Z" class="g0_13"/>
<path fill-rule="evenodd" d="M1356.3,771.1l-29,-.1l-5.6,10.7l12,.2l-11.4,19.9c-1.4,2.2,-.9,1.9,.4,4.1c1.4,2.5,3.6,5.9,4.6,8.3c1.4,-1.1,12.2,-20.6,14.2,-23.9c1.4,-2.5,3.6,-5.8,4.7,-8.3h16.4L1375,760.3h-12.5c-1.7,3.3,-4.2,7.9,-6.2,10.8Z" class="g1_13"/>
<path fill-rule="evenodd" d="M1350.1,803.4l24.9,.2c-1.1,-3.2,-5.3,-8.6,-5.9,-10.9h-12.6c.3,-1.5,3,-5.3,3.9,-7.2l-9.2,-.1c-4.1,0,-2.9,-.3,-4.7,2.8c-2.4,4.3,-3.9,3.6,.6,10.3c1.1,1.6,1.8,3.1,3,4.9Z" class="g2_13"/>
<image clip-path="url(#c0_13)" preserveAspectRatio="none" x="1167" y="89" width="51" height="52" xlink:href="img/1.png"/>
<path fill-rule="evenodd" d="M1222.1,80.7L1192.8,54.8l-1.7,2l27.1,23.9h3.9Z" class="g3_13"/>
<path fill-rule="evenodd" d="M1238.6,80.7L1183.8,32.6l-1.7,1.9l52.5,46.2h4Z" class="g4_13"/>
<path fill-rule="evenodd" d="M1256.4,80.7L1217.2,46.2l-1.7,1.8l37.4,32.7h3.5Z" class="g5_13"/>
<path fill-rule="evenodd" d="M1296.2,149.2l55.7,49.2l1.8,-2l-53.5,-47.2h-4Z" class="g3_13"/>
<path fill-rule="evenodd" d="M1312.5,149.2l30.6,27l1.7,-2l-28.5,-25h-3.8Z" class="g4_13"/>
<path fill-rule="evenodd" d="M1326.2,149.2l19,16.9l1.6,-1.7l-17.1,-15.2h-3.5Z" class="g5_13"/>
<image clip-path="url(#c1_13)" preserveAspectRatio="none" x="339" y="112" width="266" height="245" xlink:href="img/2.jpg"/>
<image clip-path="url(#c2_13)" preserveAspectRatio="none" x="34" y="412" width="251" height="272" xlink:href="img/3.jpg"/>
<image clip-path="url(#c3_13)" preserveAspectRatio="none" x="659" y="115" width="229" height="248" xlink:href="img/4.jpg"/>
<image clip-path="url(#c4_13)" preserveAspectRatio="none" x="34" y="112" width="251" height="245" xlink:href="img/5.jpg"/>
<image clip-path="url(#c5_13)" preserveAspectRatio="none" x="327" y="411" width="327" height="271" xlink:href="img/6.jpg"/>
<image clip-path="url(#c6_13)" preserveAspectRatio="none" x="947" y="412" width="349" height="331" xlink:href="img/7.png"/>
<image clip-path="url(#c7_13)" preserveAspectRatio="none" x="705" y="411" width="143" height="288" xlink:href="img/8.png"/>
</svg>